<svg width="83" height="84" viewBox="0 0 83 84" fill="none" xmlns="http://www.w3.org/2000/svg">
<path d="M5.23776 16.525C7.5627 16.525 9.1534 15.1792 10.0717 14.0659C10.118 14.0097 10.1708 13.9599 10.2181 13.9046C9.61933 14.9626 9.27328 16.1827 9.27328 17.4852C9.27328 21.5089 12.5352 24.7708 16.5589 24.7708C20.5825 24.7708 23.8444 21.5089 23.8444 17.4852C23.8444 13.4615 20.5825 10.1997 16.5589 10.1997C15.7962 10.1997 15.0614 10.3179 14.3705 10.5352C14.3563 8.64789 12.8243 7.12158 10.9336 7.12158H10.9335C9.65748 7.12158 8.47945 7.82284 7.89185 8.95556C6.81841 11.0247 4.85614 14.1505 2.65197 14.5088C2.43808 14.5436 2.32513 14.7883 2.42954 14.9782C2.75016 15.5618 3.53705 16.525 5.23776 16.525ZM22.3873 17.4852C22.3873 20.699 19.7727 23.3137 16.5589 23.3137C15.5679 23.3137 14.635 23.0637 13.8171 22.6257C19.9202 21.4875 20.9748 15.8788 21.1554 13.9145C21.9244 14.9022 22.3873 16.1394 22.3873 17.4852Z" fill="#20A4F3"/>
<path d="M26.8438 34.0536C26.8438 34.0536 33.8203 21.7915 36.7968 16.5694C37.5285 15.2859 37.0921 13.6551 35.8193 12.905L35.7641 12.8725C34.5856 12.178 33.0882 12.4926 32.2982 13.5933C30.406 16.2303 27.0207 20.9405 24.9619 23.805C23.8668 25.3284 22.108 26.2278 20.2319 26.2278H12.5725C10.2012 26.2278 8.06633 27.6644 7.17324 29.861L0.194854 47.0242C-0.392118 48.4679 0.396915 50.1027 1.89236 50.5413C3.13176 50.9049 4.45183 50.3154 5.00847 49.1499L9.77584 39.1678C9.77584 39.1678 9.77584 44.5249 8.56614 50.1756C7.71432 54.5954 7.91585 60.5517 8.01332 61.7017L9.60669 80.5246C9.72773 81.9555 10.9245 83.0553 12.3606 83.0553C13.8224 83.0553 15.0315 81.9169 15.1193 80.4577L16.3054 60.7704C16.3321 60.3264 16.701 59.9806 17.1459 59.9825C17.5906 59.9845 17.9564 60.3334 17.9794 60.7775L18.9979 80.4345C19.074 81.9033 20.2872 83.0553 21.758 83.0553H21.8474C23.313 83.0553 24.5238 81.9111 24.6067 80.4478L25.9221 57.2333C26.5138 49.524 25.3247 43.2172 24.9701 41.5613C24.9114 41.2866 24.9857 41.0073 25.1487 40.7785C27.0707 38.0816 26.8438 34.0536 26.8438 34.0536Z" fill="black"/>
<path d="M66.2377 28.7269C65.148 27.1616 63.3615 26.2285 61.4542 26.2285H50.401C48.4832 26.2285 46.6883 27.1718 45.6006 28.7512L42.5649 33.1594C42.0762 33.8691 41.0817 34.0019 40.4239 33.4454L37.8376 31.2578C36.6328 30.2387 34.8481 30.3124 33.7315 31.4275L33.6662 31.4927C32.4055 32.7516 32.4939 34.8202 33.8574 35.9669L40.4798 41.5361C41.5934 42.4726 43.2273 42.4442 44.3076 41.4694L46.7379 39.2768C46.9897 39.0496 47.3382 38.963 47.6671 39.046C48.1527 39.1685 48.4766 39.6265 48.4303 40.1251L47.9394 45.4169L43.3681 67.0277H48.7634L49.5969 81.0035C49.6708 82.2436 50.6982 83.2114 51.9404 83.2114C53.1919 83.2114 54.2234 82.2298 54.2853 80.9799L54.9765 67.0277H56.4983L57.3318 81.0035C57.4058 82.2436 58.433 83.2114 59.6755 83.2114C60.9269 83.2114 61.9583 82.2298 62.0202 80.9799L62.7115 67.0277H68.6021L63.8012 45.4169L62.4611 37.2206L62.4518 35.8306C62.449 35.4037 62.9977 35.2276 63.2439 35.5764L65.6226 38.9477C65.7457 39.1222 65.8005 39.3358 65.7766 39.548L65.1518 45.0914C65.1402 45.1948 65.1471 45.2994 65.1724 45.4004L66.5738 51.0105C66.6437 51.2906 66.8947 51.4876 67.1835 51.489C67.4626 51.4903 67.7095 51.3083 67.7908 51.0412L71.6732 38.2793C71.9064 37.5127 71.7753 36.6814 71.3174 36.0237L66.2377 28.7269Z" fill="black"/>
<path d="M71.201 23.3137C70.9638 23.3137 70.7397 23.3611 70.5258 23.431C70.9404 23.0332 71.201 22.4765 71.201 21.8566C71.201 20.6495 70.2225 19.6709 69.0154 19.6709C68.7782 19.6709 68.5541 19.7183 68.3402 19.7882C68.7548 19.3904 69.0154 18.8337 69.0154 18.2138C69.0154 17.0067 68.0368 16.0282 66.8297 16.0282C66.5112 16.0282 66.2107 16.0998 65.9378 16.2222C66.0357 15.9307 66.1011 15.6241 66.1011 15.2996C66.1011 13.6901 64.7965 12.3854 63.1869 12.3854C62.3699 12.3854 61.6336 12.7236 61.1045 13.2653C59.7836 11.4122 57.6219 10.1997 55.1728 10.1997C51.1491 10.1997 47.8872 13.4616 47.8872 17.4853C47.8872 21.509 51.1491 24.7708 55.1728 24.7708C58.9885 24.7708 62.114 21.8359 62.4272 18.1012C62.6709 18.1672 62.9223 18.2138 63.1869 18.2138C63.7379 18.2138 64.2477 18.052 64.6872 17.7862C64.6597 17.9246 64.644 18.0674 64.644 18.2138C64.644 19.4209 65.6226 20.3995 66.8297 20.3995C67.0669 20.3995 67.291 20.3521 67.5049 20.2822C67.0903 20.68 66.8297 21.2367 66.8297 21.8566C66.8297 23.0637 67.8082 24.0423 69.0154 24.0423C69.2525 24.0423 69.4767 23.9949 69.6906 23.925C69.2759 24.3228 69.0154 24.8795 69.0154 25.4994C69.0154 26.7065 69.9939 27.6851 71.201 27.6851C72.4081 27.6851 73.3867 26.7065 73.3867 25.4994C73.3867 24.2923 72.4081 23.3137 71.201 23.3137ZM55.1728 23.3137C51.9589 23.3137 49.3443 20.6991 49.3443 17.4853C49.3443 15.9727 49.9284 14.5973 50.8767 13.5603C51.0497 15.0239 51.9179 18.3784 56.1863 19.8339C55.7214 20.2174 55.3324 20.7719 55.3324 21.5651C55.3324 22.3446 55.6494 22.8787 56.0328 23.243C55.7513 23.285 55.4657 23.3137 55.1728 23.3137Z" fill="#20A4F3"/>
<path d="M26.7587 14.5711H29.6729C30.0756 14.5711 30.4015 14.2449 30.4015 13.8426C30.4015 13.4402 30.0756 13.114 29.6729 13.114H26.7587C26.3567 13.114 26.0301 12.7871 26.0301 12.3855V2.18567C26.0301 1.78404 26.3567 1.45711 26.7587 1.45711H43.5155C43.9175 1.45711 44.244 1.78404 44.244 2.18567V12.3855C44.244 12.7871 43.9175 13.114 43.5155 13.114H39.1441C38.7414 13.114 38.4156 13.4402 38.4156 13.8426C38.4156 14.2449 38.7414 14.5711 39.1441 14.5711H43.5155C44.7207 14.5711 45.7011 13.5907 45.7011 12.3855V2.18567C45.7011 0.980421 44.7207 0 43.5155 0H26.7587C25.5534 0 24.573 0.980421 24.573 2.18567V12.3855C24.573 13.5907 25.5534 14.5711 26.7587 14.5711Z" fill="#FF3366"/>
<path d="M42.781 4.79255C42.4964 4.50795 42.0354 4.50795 41.7508 4.79255L37.5957 8.9476L33.6079 4.95974C33.3233 4.67515 32.8623 4.67515 32.5777 4.95974L27.6243 9.91308C27.3397 10.1977 27.3397 10.6587 27.6243 10.9433C27.7666 11.0856 27.953 11.1567 28.1394 11.1567C28.3259 11.1567 28.5123 11.0856 28.6546 10.9433L33.0928 6.50508L37.0806 10.4929C37.3652 10.7775 37.8263 10.7775 38.1109 10.4929L42.781 5.82277C43.0656 5.53818 43.0656 5.07714 42.781 4.79255Z" fill="#FF3366"/>
<path d="M65.0291 5.32405L67.5577 2.79544V11.6566C67.5577 12.0589 67.8835 12.3851 68.2862 12.3851C68.6889 12.3851 69.0148 12.0589 69.0148 11.6566V2.79544L71.5434 5.32405C71.6857 5.46634 71.8721 5.53749 72.0585 5.53749C72.2449 5.53749 72.4313 5.46635 72.5736 5.32405C72.8582 5.03946 72.8582 4.57842 72.5736 4.29382L68.8013 0.52155C68.5168 0.236957 68.0557 0.236957 67.7711 0.52155L63.9988 4.29382C63.7143 4.57842 63.7143 5.03946 63.9988 5.32405C64.2834 5.60864 64.7445 5.60864 65.0291 5.32405Z" fill="#FF3366"/>
<path d="M82.7399 7.37913C82.4553 7.09454 81.9942 7.09454 81.7097 7.37913L79.2145 9.87429V0.728557C79.2145 0.326214 78.8886 0 78.4859 0C78.0832 0 77.7574 0.326214 77.7574 0.728557V9.94117L75.1953 7.37913C74.9107 7.09454 74.4497 7.09454 74.1651 7.37913C73.8805 7.66372 73.8805 8.12476 74.1651 8.40935L77.9374 12.1816C78.0797 12.3239 78.2661 12.3951 78.4525 12.3951C78.5498 12.3951 78.646 12.3735 78.737 12.3348C78.8648 12.2874 78.9685 12.2037 79.0509 12.0983L82.7399 8.40935C83.0245 8.12476 83.0245 7.66372 82.7399 7.37913Z" fill="#FF3366"/>
</svg>
