<svg width="96" height="91" viewBox="0 0 96 91" fill="none" xmlns="http://www.w3.org/2000/svg">
<path d="M38.3158 12.7719C38.9547 12.7719 39.5456 12.5852 40.0564 12.2791C40.8286 13.8467 42.0802 15.1953 43.7488 16.0645C45.0052 16.719 46.3497 17.0292 47.6748 17.0292C50.747 17.0292 53.7141 15.3609 55.2317 12.4476C55.3421 12.2359 55.4358 12.0201 55.5269 11.8039C56.1403 12.401 56.9756 12.7719 57.8994 12.7719C59.7805 12.7719 61.3052 11.2471 61.3052 9.36608C61.3052 7.87946 60.3468 6.62861 59.0188 6.16385C59.3871 5.61979 59.6023 4.96373 59.6023 4.25731C59.6023 2.37629 58.0775 0.851462 56.1965 0.851462C55.0633 0.851462 54.0666 1.4107 53.4474 2.26196C52.9062 1.76342 52.2986 1.32095 51.6149 0.964755C50.3585 0.310256 49.014 -5.19327e-05 47.6889 6.51906e-09C45.9679 5.19457e-05 44.2899 0.540323 42.8712 1.51298C42.3083 1.10169 41.6207 0.851462 40.8701 0.851462C38.9891 0.851462 37.4643 2.37629 37.4643 4.25731C37.4643 4.8956 37.6509 5.48586 37.9563 5.99646C36.2467 6.17835 34.9099 7.60818 34.9099 9.36608C34.9099 11.2471 36.4347 12.7719 38.3158 12.7719ZM53.7214 11.6609C52.5436 13.9218 50.2267 15.3263 47.6748 15.3263C46.5752 15.3263 45.5191 15.0665 44.5355 14.5542C42.9957 13.752 41.8973 12.4371 41.3254 10.9287C41.11 10.3608 40.9681 9.76697 40.9092 9.16023C41.178 9.12167 41.4349 9.06892 41.6856 9.00916C44.9358 8.23399 46.6866 5.76083 47.6016 3.69345C48.0456 5.03882 49.0322 6.31415 51.2033 6.31415C51.2033 6.31415 51.0158 9.51446 54.2707 10.213C54.1439 10.7052 53.9661 11.1912 53.7214 11.6609Z" fill="#20A4F3"/>
<path d="M21.8785 31.584C25.2143 29.8463 26.5097 25.7334 24.772 22.3977C23.0343 19.062 18.9215 17.7665 15.5857 19.5042C12.2499 21.242 10.9545 25.3548 12.6923 28.6905C14.4299 32.0263 18.5427 33.3217 21.8785 31.584Z" fill="#20A4F3"/>
<path d="M10.925 82.4114L14.3139 82.9902L15.1626 83.1352L16.0109 83.2801L18.6944 75.0867L22.9291 62.1567H22.0331H21.1371L18.0045 71.7215C16.6597 68.5125 13.4996 66.226 9.76476 66.226C4.70369 66.226 0.651973 70.4238 0.831162 75.4817L1.06367 82.0419C1.22602 86.6242 4.98786 90.255 9.57299 90.255H10.9687L10.971 90.2747C11.0046 90.2707 11.0342 90.255 11.0689 90.255H14.2843H17.6569H21.3155C21.7853 90.255 22.167 89.8729 22.167 89.4035C22.167 89.1106 22.1257 88.828 22.0653 88.5521C21.7263 87.0026 20.4921 85.773 18.8709 85.4963L18.0047 85.3483L15.475 84.9162L14.6267 84.7714L13.7781 84.6264L10.639 84.0902C10.4977 84.0661 10.3623 84.028 10.2307 83.9825C9.21576 83.6317 8.51449 82.678 8.51449 81.5724V76.6316C8.51449 76.1614 8.89532 75.7801 9.36595 75.7801C9.83658 75.7801 10.2174 76.1614 10.2174 76.6316V81.5724C10.2174 81.9886 10.5151 82.3415 10.925 82.4114Z" fill="black"/>
<path d="M2.49078 53.5021C2.77079 53.5806 3.06036 53.6344 3.36448 53.6381C3.37862 53.6383 3.39171 53.6423 3.40585 53.6423C3.7661 53.6423 4.10639 53.5712 4.43234 53.4675C3.21294 55.4422 3.02751 57.9867 4.17769 60.1945C5.3918 62.5251 7.76543 63.8598 10.2233 63.8598C11.2833 63.8598 12.3588 63.6116 13.364 63.088C14.5568 62.4666 15.4831 61.5386 16.1087 60.454C17.2328 58.5053 17.3737 56.0446 16.2574 53.9017C15.0433 51.5711 12.6697 50.2364 10.2118 50.2364C9.94065 50.2364 9.66854 50.2538 9.39664 50.2867C8.60619 50.3826 7.81917 50.6186 7.07113 51.0082C6.92062 51.0866 6.77906 51.1752 6.63687 51.263C6.7406 50.9371 6.8117 50.5967 6.8117 50.2364C6.8117 50.2223 6.80775 50.2092 6.80754 50.1951C6.8038 49.8921 6.75037 49.6036 6.67252 49.3246C6.27184 47.8894 4.96887 46.8306 3.40585 46.8306C1.52477 46.8306 0 48.3554 0 50.2364C0 51.7982 1.05726 53.1003 2.49078 53.5021Z" fill="#20A4F3"/>
<path d="M75.1882 31.5839C78.524 33.3216 82.6369 32.0262 84.3745 28.6905C84.8379 27.8011 85.0792 26.8567 85.1301 25.9166C85.6053 26.1715 86.1497 26.4048 86.7751 26.5886C88.8908 27.2108 91.0633 26.3003 92.5783 25.3664C93.1812 24.9948 93.0673 24.1069 92.4073 23.8507C90.5856 23.1436 88.805 20.9487 87.7602 19.2111C86.1246 16.491 83.3993 17.9049 83.3993 17.9049C82.4695 18.3371 82.0086 18.9906 81.8101 19.6972C81.7008 19.6323 81.5952 19.5636 81.4811 19.5041C78.1453 17.7664 74.0324 19.0619 72.2948 22.3976C70.557 25.7334 71.8524 29.8462 75.1882 31.5839Z" fill="#20A4F3"/>
<path d="M89.9956 51.0081C89.0869 50.5348 88.121 50.2976 87.1607 50.2544C87.0587 50.2498 86.9566 50.2363 86.8549 50.2363C84.3971 50.2364 82.0234 51.5711 80.8093 53.9016C79.693 56.0446 79.834 58.5052 80.9581 60.4539C81.5837 61.5385 82.51 62.4665 83.7028 63.0879C84.7079 63.6115 85.7834 63.8597 86.8435 63.8597C89.3013 63.8597 91.6749 62.525 92.889 60.1944C94.6268 56.8587 93.3313 52.7459 89.9956 51.0081Z" fill="#20A4F3"/>
<path d="M86.7912 66.226C82.9203 66.226 79.6579 68.6778 78.4037 72.0721L75.1564 62.1567H74.2609H73.3645L77.8862 75.9634L80.3235 83.4051L81.1724 83.2601L82.0205 83.1153L86.1414 82.4114C86.5514 82.3415 86.849 81.9886 86.849 81.5724V76.6316C86.849 76.1614 87.2299 75.7801 87.7005 75.7801C88.1711 75.7801 88.552 76.1614 88.552 76.6316V81.5724C88.552 82.678 87.8507 83.6317 86.8357 83.9825C86.7041 84.028 86.5687 84.0661 86.4275 84.0902L82.5564 84.7514L81.7082 84.8963L80.8593 85.0413L78.5575 85.4344L78.1956 85.4963C76.5743 85.773 75.3402 87.0026 75.0011 88.5521C74.9407 88.828 74.8995 89.1106 74.8995 89.4035C74.8995 89.8729 75.2811 90.255 75.7509 90.255H78.8991H82.0091H85.9976C86.0323 90.255 86.0618 90.2707 86.0955 90.2747L86.0978 90.255H86.9831C91.5682 90.255 95.33 86.6242 95.4923 82.0419L95.7248 75.4817C95.9041 70.4238 91.8524 66.226 86.7912 66.226Z" fill="black"/>
<path d="M63.3798 46.8302H68.3452L69.9421 51.7061L70.7723 54.2411L71.6218 54.0982L72.4706 53.9554L73.6989 53.7488C74.1671 53.6698 74.602 53.9841 74.6801 54.4472C74.7527 54.8778 74.482 55.2743 74.0729 55.3935C74.0411 55.4027 74.0151 55.4228 73.9817 55.4284L73.0067 55.5924L72.158 55.7352L71.3084 55.8781L70.2301 56.0595L66.4341 56.6981C65.0105 56.9372 63.9778 58.1587 63.9778 59.6022C63.9778 60.0715 64.3595 60.4536 64.8293 60.4536H70.5209H72.8069H73.7033H74.5988H75.5343H75.7802H79.0551C78.0621 58.1752 78.0639 55.4854 79.299 53.1146C80.7712 50.2887 83.6665 48.5333 86.855 48.5332C86.855 48.5332 86.855 48.5332 86.8551 48.5332C86.976 48.5332 87.0962 48.5499 87.217 48.5552L87.3681 43.9892C87.5357 38.9213 83.4729 34.7217 78.4022 34.7217C73.2146 34.7217 69.1084 39.1087 69.451 44.2849L69.541 45.6465C69.2284 45.331 68.8103 45.1273 68.3452 45.1273H63.2754L63.3276 45.9788L63.3798 46.8302Z" fill="black"/>
<path d="M73.2723 88.5518H23.794C23.8361 88.831 23.8698 89.1131 23.8698 89.4032C23.8698 89.7032 23.8083 89.987 23.7129 90.2547H73.3534C73.258 89.987 73.1964 89.7032 73.1964 89.4032C73.1964 89.1131 73.2302 88.831 73.2723 88.5518Z" fill="black"/>
<path d="M31.728 60.4536C32.1978 60.4536 32.5795 60.0715 32.5795 59.6022C32.5795 58.1587 31.5459 56.9372 30.1224 56.6981L26.3265 56.0595L24.9994 55.8363L24.1501 55.6935L23.3009 55.5506L22.5748 55.4284C22.528 55.4206 22.491 55.3945 22.4476 55.3797C22.0599 55.2471 21.8061 54.8645 21.8763 54.4472C21.9537 53.9841 22.3852 53.6702 22.8575 53.7488L23.837 53.9136L24.6863 54.0564L25.5355 54.1993L26.681 50.7016L27.9489 46.8302H32.4481L32.5004 45.9788L32.5527 45.1273H27.9489C27.6129 45.1273 27.3003 45.2359 27.0313 45.4096L27.1057 44.2849C27.4483 39.1087 23.3421 34.7217 18.1545 34.7217C13.0838 34.7217 9.02085 38.9213 9.18861 43.9892L9.34077 48.5863C9.63035 48.556 9.92096 48.5332 10.2121 48.5332C13.4005 48.5332 16.2958 50.2887 17.768 53.1146C19.0031 55.4854 19.005 58.1752 18.0119 60.4536H20.4354H20.7245H21.6952H22.5912H23.4872H26.0356H31.728Z" fill="black"/>
<path d="M36.3719 50.4964C37.5152 50.4964 38.459 49.6919 38.6369 48.5835L38.9184 46.8307L39.0211 46.1907C39.0211 46.1905 39.0211 46.1902 39.0211 46.19L39.0444 45.9792L39.1385 45.1278L40.0189 37.1677C40.0688 36.7162 39.9973 36.2581 39.811 35.8436L39.7262 35.6532C39.2348 34.5535 38.9845 33.3831 38.9845 32.1762V29.8014C38.9845 29.3312 39.3653 28.95 39.836 28.95C40.3066 28.95 40.6874 29.3312 40.6874 29.8014V32.1762C40.6874 33.142 40.887 34.0783 41.282 34.9588L41.3668 35.1493C41.6753 35.8386 41.795 36.6019 41.7118 37.3548L40.8523 45.1278H54.9095L54.0506 37.3548C53.9666 36.6031 54.0863 35.8398 54.3956 35.1476L54.4813 34.958C54.8754 34.0783 55.075 33.142 55.075 32.1762V29.8014C55.075 29.3312 55.4558 28.95 55.9264 28.95C56.3971 28.95 56.7779 29.3312 56.7779 29.8014V32.1762C56.7779 33.3831 56.5276 34.5535 56.0354 35.6548L55.9497 35.8444C55.7643 36.2585 55.6928 36.7158 55.7435 37.1669L56.6231 45.1278L56.6798 45.6408C56.7086 45.7061 56.7394 45.7708 56.7513 45.8441L56.773 45.9792L56.9097 46.8307L57.1912 48.5831C57.3691 49.6919 58.3137 50.4964 59.4362 50.4964C60.0981 50.4964 60.6935 50.2386 61.1325 49.77C61.5715 49.3019 61.7902 48.6916 61.7486 48.0513L61.6738 46.8307L61.6216 45.9792L61.5693 45.1278L60.459 27.02C60.3309 25.0344 59.5244 23.1261 58.1881 21.6489C56.5035 19.7868 54.1279 18.7324 51.6483 18.7324H44.1798C41.7002 18.7324 39.3246 19.7868 37.6632 21.6248C36.3037 23.1269 35.4972 25.0352 35.3699 27.0225L34.2586 45.1278L34.2065 45.9792L34.1542 46.8307L34.0794 48.0484C34.0379 48.6916 34.2574 49.3027 34.6964 49.7709C35.1355 50.2386 35.7308 50.4964 36.3719 50.4964Z" fill="#FF3366"/>
</svg>
