<svg width="97" height="93" viewBox="0 0 97 93" fill="none" xmlns="http://www.w3.org/2000/svg">
<path d="M8.13593 47.4299C9.08049 48.233 10.28 48.674 11.5197 48.674C12.7288 48.674 13.9004 48.2547 14.8348 47.4875L16.7252 45.9353C17.9497 49.0637 20.9872 51.2828 24.5496 51.2828C29.1926 51.2828 32.9566 47.5189 32.9566 42.8758C32.9566 38.2327 29.1926 34.4688 24.5496 34.4688C24.4859 34.4688 24.4242 34.4769 24.3609 34.4783C24.019 32.945 22.9207 30.1782 19.4179 30.1782C14.577 30.1782 12.2479 34.2884 11.8369 36.9372C11.4635 39.3432 10.3742 42.5405 7.34541 43.1064C6.73602 43.2202 6.21766 43.6179 6.01036 44.2022C5.7772 44.8592 5.97423 45.592 6.50532 46.0436L8.13593 47.4299ZM31.2752 42.8758C31.2752 46.5843 28.2581 49.6014 24.5496 49.6014C24.0723 49.6014 23.6072 49.5497 23.1579 49.4547C23.3612 43.9596 25.2634 43.0081 25.2634 43.0081C28.1033 41.1855 29.4025 39.8354 29.9935 38.9423C30.7961 40.0499 31.2752 41.4065 31.2752 42.8758Z" fill="#20A4F3"/>
<path d="M53.2977 50.2541C52.233 49.3435 50.6651 49.3393 49.5954 50.2442L45.2952 53.8821C43.2214 55.6366 40.4277 56.2808 37.795 55.6119L29.3301 53.4609L29.3323 53.4784C28.929 53.3748 28.5136 53.3046 28.0826 53.3046H21.3241C18.2354 53.3046 15.3955 54.9983 13.9273 57.7159L0.40915 82.7409C-0.399945 84.2387 0.0224592 86.1039 1.39784 87.1071C2.96277 88.2484 5.16345 87.855 6.23599 86.2421L14.6268 73.6242C14.815 73.341 15.1621 73.2081 15.4914 73.293C15.84 73.3829 16.0858 73.6889 16.0909 74.049C16.1362 77.261 16.0385 84.8554 14.3413 90.2967C14.0031 91.3811 14.8393 92.4779 15.9752 92.4779L32.571 92.4778C33.4995 92.4778 34.2524 91.725 34.2524 90.7964V88.0044C34.2524 86.0347 34.46 84.0704 34.8718 82.1442L35.871 77.4721C36.6975 73.6069 36.5594 69.5978 35.4689 65.7987L35.0896 64.4773L39.5678 64.9607C42.3064 65.2564 45.0159 64.1918 46.8209 62.1111L53.5988 54.2974C54.6378 53.0996 54.5027 51.2848 53.2977 50.2541Z" fill="black"/>
<path d="M94.3223 0H48.9358C47.5418 0 46.408 1.1338 46.408 2.52745V32.7821C46.408 34.1757 47.5418 35.3095 48.9358 35.3095H94.3223C95.7164 35.3095 96.8502 34.1757 96.8502 32.7821V2.52745C96.8502 1.1338 95.7164 0 94.3223 0ZM95.1687 32.7821C95.1687 33.2484 94.7894 33.6281 94.3223 33.6281H86.2372C86.1281 30.2661 84.2242 27.2606 81.3181 25.9502L79.2397 25.0132C77.2765 24.128 75.1684 23.672 73.0389 23.672C70.0369 23.672 67.0953 24.5779 64.5502 26.2862L53.612 33.6281H48.9358C48.4687 33.6281 48.0894 33.2484 48.0894 32.7821V2.52745C48.0894 2.06112 48.4687 1.68141 48.9358 1.68141H94.3223C94.7894 1.68141 95.1687 2.06112 95.1687 2.52745V32.7821Z" fill="black"/>
<path d="M80.8015 14.5196C80.8461 14.169 80.8767 13.8141 80.8767 13.4515C80.8767 8.80836 77.1128 5.04443 72.4697 5.04443C69.5646 5.04443 67.0039 6.51823 65.4937 8.75874C63.9993 10.8028 62.3209 11.8561 61.2625 12.3604C60.6161 12.6682 60.1995 13.3102 60.1995 14.0261C60.1995 15.1095 61.1357 15.9523 62.2151 15.8589C62.9804 15.7928 63.6819 15.685 64.3373 15.5496C65.2707 19.1755 68.5525 21.8585 72.4697 21.8585C74.1534 21.8585 75.7178 21.3585 77.0327 20.5062C77.2215 21.5243 78.1106 22.2965 79.1834 22.2965C80.3936 22.2965 81.3746 21.3154 81.3746 20.1053C81.3746 19.6371 81.225 19.2053 80.9749 18.8493C82.0189 18.682 82.8188 17.7844 82.8188 16.6932C82.8188 15.5426 81.929 14.6097 80.8015 14.5196ZM65.9616 15.118C70.5127 13.6099 71.8831 10.3907 72.2926 8.5404C73.2644 9.81706 74.9662 11.3123 77.7221 11.7532C77.2951 12.7935 76.5148 15.3312 78.456 16.4993C78.4559 16.5004 78.4558 16.5016 78.4556 16.5028C77.3411 18.6802 75.0793 20.1771 72.4697 20.1771C69.3373 20.1771 66.706 18.0215 65.9616 15.118Z" fill="#20A4F3"/>
<path d="M69.5271 61.3711C60.9374 61.3711 53.9741 68.3344 53.9741 76.9241C53.9741 85.5138 60.9374 92.4771 69.5271 92.4771C78.1168 92.4771 85.0801 85.5138 85.0801 76.9241C85.0801 68.3344 78.1168 61.3711 69.5271 61.3711ZM74.6994 89.7853C74.1346 89.2464 72.9214 88.5803 70.3504 88.5803C67.3289 88.5803 65.7555 89.5002 65.082 90.052C64.3766 89.8124 63.6939 89.5239 63.0443 89.1788V87.7148C63.0443 87.3153 62.9402 86.9228 62.742 86.5759L61.1145 83.7278C60.9163 83.381 60.812 82.9884 60.812 82.589V81.3843C60.812 80.7605 60.5581 80.1636 60.1088 79.7309C59.6811 79.319 59.1104 79.0889 58.5166 79.0889H55.8419C55.8287 79.0054 55.8152 78.9221 55.8035 78.8382L57.4307 77.3156C58.2735 76.527 58.8266 75.4779 59.0011 74.3368C59.2467 72.7299 60.2375 71.3336 61.6732 70.5712L62.8682 69.9366C63.5074 69.5972 63.9069 68.9326 63.9069 68.2089C63.9069 67.1285 63.0311 66.2527 61.9507 66.2527H60.6771C62.0144 65.1417 63.5646 64.2818 65.2543 63.7331C65.865 64.2493 67.0847 64.8321 69.4879 64.8321C71.7443 64.8321 73.1894 64.3184 74.0599 63.8284C75.6473 64.3796 77.1097 65.1997 78.3772 66.2527H75.6981C75.3772 66.2527 75.0863 66.4417 74.956 66.735C74.7503 67.1975 74.1766 67.3614 73.7577 67.0772L73.4536 66.8708C73.2553 66.7362 73.0078 66.6961 72.7771 66.7612L69.3541 67.7264C69.1306 67.7894 68.9447 67.9451 68.8435 68.1542L68.11 69.6696C68.0357 69.8231 67.9149 69.9493 67.7649 70.0303L66.2611 70.8425C65.9985 70.9842 65.8349 71.2586 65.8349 71.557V71.5796C65.8349 72.0281 66.1985 72.3917 66.6471 72.3917H69.1285C69.4508 72.3917 69.712 72.653 69.712 72.9752C69.712 73.2974 69.9731 73.5587 70.2954 73.5587H70.9339C71.2561 73.5587 71.5172 73.2974 71.5172 72.9752V72.2903L73.8004 73.5587L73.9018 74.8778L73.1917 74.1675H70.0039C68.2421 74.1675 66.5503 74.8575 65.291 76.0897C64.8926 76.4795 64.6679 77.0135 64.6679 77.571C64.6679 78.1206 64.8862 78.6477 65.275 79.0363L65.4055 79.1669C65.794 79.5555 66.3212 79.7738 66.8708 79.7738H67.9644C68.5378 79.7738 69.0027 80.2387 69.0027 80.8123V81.3213L68.0985 84.1703C67.8923 84.8201 68.0654 85.5306 68.5475 86.0126C68.8897 86.3548 69.3539 86.5471 69.8379 86.5471C71.4235 86.5471 72.854 85.5946 73.4656 84.1316L73.8585 83.1915C74.7245 81.1197 75.1703 78.8966 75.1703 76.6512H75.6523C76.0026 76.6512 76.2864 76.3672 76.2864 76.017V75.512C76.2864 75.1618 76.5705 74.8778 76.9206 74.8778C77.271 74.8778 77.5549 74.5939 77.5549 74.2436V72.5947L81.517 76.5568C82.0303 77.0702 82.6732 77.4156 83.3649 77.5925C83.0995 83.1222 79.5944 87.8093 74.6994 89.7853Z" fill="#FF3366"/>
<path d="M25.5678 22.6098C25.7829 22.6098 25.998 22.5277 26.1622 22.3635L26.7566 21.7691C27.085 21.4407 27.085 20.9087 26.7566 20.5803C26.4282 20.2519 25.8962 20.2519 25.5678 20.5803L24.9734 21.1747C24.645 21.5031 24.645 22.0351 24.9734 22.3635C25.1376 22.5277 25.3527 22.6098 25.5678 22.6098Z" fill="#FF3366"/>
<path d="M19.6227 28.5541C19.8378 28.5541 20.0529 28.472 20.2171 28.3078L20.8115 27.7134C21.1399 27.385 21.1399 26.853 20.8115 26.5246C20.4831 26.1962 19.9511 26.1962 19.6227 26.5246L19.0283 27.119C18.6999 27.4474 18.6999 27.9794 19.0283 28.3078C19.1925 28.472 19.4076 28.5541 19.6227 28.5541Z" fill="#FF3366"/>
<path d="M22.5949 25.5828C22.81 25.5828 23.0251 25.5007 23.1893 25.3365L23.7837 24.7416C24.1121 24.4132 24.1121 23.8808 23.7837 23.5524C23.4553 23.2248 22.9233 23.2244 22.5949 23.5528L22.0005 24.1477C21.6721 24.4761 21.6721 25.0085 22.0005 25.3369C22.1647 25.5007 22.3798 25.5828 22.5949 25.5828Z" fill="#FF3366"/>
<path d="M28.5399 19.6376C28.755 19.6376 28.9701 19.5555 29.1343 19.3913L29.7287 18.7969C30.0571 18.4685 30.0571 17.9365 29.7287 17.6081C29.4003 17.2797 28.8683 17.2797 28.5399 17.6081L27.9455 18.2025C27.6171 18.5309 27.6171 19.0629 27.9455 19.3913C28.1097 19.5555 28.3248 19.6376 28.5399 19.6376Z" fill="#FF3366"/>
<path d="M43.4015 4.77581C43.6166 4.77581 43.8317 4.69371 43.9959 4.52951L44.5903 3.93511C44.9187 3.60671 44.9187 3.0747 44.5903 2.7463C44.2619 2.4179 43.7299 2.4179 43.4015 2.7463L42.8071 3.3407C42.4787 3.6691 42.4787 4.20111 42.8071 4.52951C42.9713 4.69371 43.1864 4.77581 43.4015 4.77581Z" fill="#FF3366"/>
<path d="M40.4293 7.74798C40.6444 7.74798 40.8595 7.66588 41.0237 7.50168L41.6181 6.90727C41.9465 6.57887 41.9465 6.04687 41.6181 5.71847C41.2897 5.39007 40.7577 5.39007 40.4293 5.71847L39.8349 6.31287C39.5065 6.64127 39.5065 7.17328 39.8349 7.50168C39.9991 7.66588 40.2142 7.74798 40.4293 7.74798Z" fill="#FF3366"/>
<path d="M34.4845 13.6923C34.6996 13.6923 34.9147 13.6102 35.0789 13.446L35.6733 12.8516C36.0017 12.5232 36.0017 11.9912 35.6733 11.6628C35.3449 11.3344 34.8129 11.3344 34.4845 11.6628L33.8901 12.2572C33.5617 12.5856 33.5617 13.1176 33.8901 13.446C34.0543 13.6102 34.2694 13.6923 34.4845 13.6923Z" fill="#FF3366"/>
<path d="M37.4564 10.7211C37.6715 10.7211 37.8866 10.639 38.0508 10.4748L38.6452 9.88042C38.9736 9.55202 38.9736 9.02001 38.6452 8.69161C38.3168 8.36321 37.7848 8.36321 37.4564 8.69161L36.862 9.28602C36.5336 9.61442 36.5336 10.1464 36.862 10.4748C37.0262 10.639 37.2413 10.7211 37.4564 10.7211Z" fill="#FF3366"/>
<path d="M31.5116 16.6645C31.7267 16.6645 31.9418 16.5824 32.106 16.4182L32.7004 15.8238C33.0288 15.4954 33.0288 14.9634 32.7004 14.635C32.372 14.3066 31.84 14.3066 31.5116 14.635L30.9172 15.2294C30.5888 15.5578 30.5888 16.0898 30.9172 16.4182C31.0814 16.5824 31.2965 16.6645 31.5116 16.6645Z" fill="#FF3366"/>
<path d="M75.2041 56.2531L75.7986 55.6587C76.127 55.3303 76.127 54.7983 75.7986 54.4699C75.4702 54.1415 74.9381 54.1415 74.6097 54.4699L74.0153 55.0643C73.6869 55.3927 73.6869 55.9247 74.0153 56.2531C74.1795 56.4173 74.3946 56.4994 74.6097 56.4994C74.8248 56.4994 75.0399 56.4173 75.2041 56.2531Z" fill="#FF3366"/>
<path d="M92.444 36.6359L91.8496 37.2304C91.5212 37.5588 91.5212 38.0908 91.8496 38.4192C92.0138 38.5834 92.2289 38.6655 92.444 38.6655C92.6591 38.6655 92.8742 38.5834 93.0384 38.4192L93.6328 37.8248C93.9612 37.4964 93.9612 36.9643 93.6328 36.6359C93.3044 36.3075 92.7724 36.3075 92.444 36.6359Z" fill="#FF3366"/>
<path d="M81.1482 50.3083L81.7426 49.7139C82.071 49.3855 82.071 48.8535 81.7426 48.5251C81.4142 48.1967 80.8822 48.1967 80.5538 48.5251L79.9594 49.1195C79.631 49.4479 79.631 49.9799 79.9594 50.3083C80.1236 50.4725 80.3387 50.5546 80.5538 50.5546C80.7689 50.5546 80.984 50.4725 81.1482 50.3083Z" fill="#FF3366"/>
<path d="M72.2317 59.2261L72.8261 58.6313C73.1545 58.3029 73.1545 57.7705 72.8261 57.4421C72.4977 57.1145 71.9657 57.1141 71.6373 57.4425L71.0429 58.0373C70.7145 58.3657 70.7145 58.8981 71.0429 59.2265C71.2071 59.3903 71.4222 59.4724 71.6373 59.4724C71.8524 59.4724 72.0675 59.3903 72.2317 59.2261Z" fill="#FF3366"/>
<path d="M78.1768 53.2815L78.7712 52.6871C79.0996 52.3587 79.0996 51.8267 78.7712 51.4983C78.4428 51.1699 77.9108 51.1699 77.5824 51.4983L76.988 52.0927C76.6596 52.4211 76.6596 52.9531 76.988 53.2815C77.1522 53.4457 77.3673 53.5278 77.5824 53.5278C77.7975 53.5278 78.0126 53.4457 78.1768 53.2815Z" fill="#FF3366"/>
<path d="M89.4721 39.6086L88.8776 40.203C88.5492 40.5314 88.5492 41.0634 88.8776 41.3918C89.0418 41.556 89.2569 41.6381 89.4721 41.6381C89.6872 41.6381 89.9023 41.556 90.0665 41.3918L90.6609 40.7974C90.9893 40.469 90.9893 39.937 90.6609 39.6086C90.3325 39.2802 89.8005 39.2802 89.4721 39.6086Z" fill="#FF3366"/>
<path d="M83.527 45.552L82.9326 46.1464C82.6042 46.4748 82.6042 47.0068 82.9326 47.3352C83.0968 47.4994 83.3119 47.5815 83.527 47.5815C83.7421 47.5815 83.9572 47.4994 84.1214 47.3352L84.7158 46.7408C85.0442 46.4124 85.0442 45.8804 84.7158 45.552C84.3874 45.2236 83.8554 45.2236 83.527 45.552Z" fill="#FF3366"/>
<path d="M86.4992 42.5813L85.9047 43.1757C85.5763 43.5041 85.5763 44.0361 85.9047 44.3645C86.0689 44.5287 86.284 44.6108 86.4992 44.6108C86.7143 44.6108 86.9294 44.5287 87.0936 44.3645L87.688 43.7701C88.0164 43.4417 88.0164 42.9097 87.688 42.5813C87.3596 42.2529 86.8276 42.2529 86.4992 42.5813Z" fill="#FF3366"/>
</svg>
