<svg width="102" height="102" viewBox="0 0 102 102" fill="none" xmlns="http://www.w3.org/2000/svg">
<path d="M12.6941 43.0846L12.6781 43.0827C12.6781 43.0827 18.4189 49.0835 18.4189 57.1002C18.4189 63.8075 17.8614 80.115 17.6791 85.2659H25.6065L26.7669 74.221C26.8146 73.7663 27.1981 73.421 27.6553 73.421C28.1374 73.421 28.5325 73.8034 28.5482 74.2852L28.906 85.2659H36.4036C36.3926 79.1597 36.0225 66.6955 35.7402 58.7826C35.7526 57.7305 35.9389 56.6818 36.3845 55.7286C37.812 52.6746 37.5724 49.461 37.1954 47.406C36.9105 45.8531 37.1885 44.2531 38.0081 42.9038L39.2356 40.8831L39.2267 40.8914C43.3892 35.6129 44.1799 28.3374 44.2716 24.3614C44.308 22.7784 43.0214 21.481 41.438 21.481C39.9173 21.481 38.6643 22.6768 38.6075 24.1964C38.4056 29.5989 36.6092 41.1793 24.9182 41.1793C13.2271 41.1793 11.4307 29.5989 11.2288 24.1964C11.172 22.6768 9.91903 21.481 8.39834 21.481C6.81495 21.481 5.52824 22.7784 5.56472 24.3614C5.66992 28.9263 6.7004 37.8372 12.6941 43.0846Z" fill="black"/>
<path d="M17.8773 26.9816C17.1565 28.1798 16.7344 29.578 16.7344 31.0781C16.7344 35.4791 20.3021 39.0469 24.7031 39.0469C29.1041 39.0469 32.6719 35.4791 32.6719 31.0781C32.6719 26.6771 29.1041 23.1094 24.7031 23.1094C23.8689 23.1094 23.0651 23.2387 22.3093 23.4765C22.2921 21.5109 20.6963 19.9219 18.7266 19.9219C16.7461 19.9219 15.1406 21.5273 15.1406 23.5078C15.1406 25.1942 16.3089 26.5987 17.8773 26.9816ZM24.7031 37.4531C21.9206 37.4531 19.5549 35.6582 18.6871 33.1677C24.1769 33.0054 26.095 29.7997 26.7483 27.2668C27.6369 27.7326 28.8585 28.169 30.435 28.3062C30.8428 29.1458 31.0781 30.0838 31.0781 31.0781C31.0781 34.5933 28.2183 37.4531 24.7031 37.4531Z" fill="#20A4F3"/>
<path d="M53.4562 54.2846C53.4622 54.2846 53.4674 54.2837 53.4734 54.2837C54.9312 56.1616 57.2041 57.375 59.7656 57.375C64.1666 57.375 67.7343 53.8073 67.7343 49.4062C67.7343 45.0052 64.1666 41.4375 59.7656 41.4375C57.7952 41.4375 55.9952 42.1563 54.6043 43.3412L54.5939 43.3439L54.5111 43.4259L53.8468 44.0841L48.9128 48.9722C48.4214 49.4799 48.322 50.2466 48.6679 50.8627C49.4184 52.1992 50.9852 54.2846 53.4562 54.2846ZM59.7656 55.7812C58.0281 55.7812 56.4522 55.0808 55.3013 53.9495C57.567 53.0586 58.581 50.571 59.6897 48.7989C60.9728 46.7485 63.4072 45.7983 64.7294 45.4155C65.6102 46.509 66.1406 47.8961 66.1406 49.4062C66.1406 52.9214 63.2808 55.7812 59.7656 55.7812Z" fill="#20A4F3"/>
<path d="M76.4159 45.5877C74.7803 44.9435 72.9314 45.7394 72.2753 47.3701L70.066 52.861C68.3874 57.0328 64.342 59.7658 59.8452 59.7658H56.5182C53.6703 59.7658 51.0388 61.2856 49.6157 63.7525L40.5584 79.4527C39.782 80.7984 40.2571 82.519 41.6139 83.2758C42.8419 83.9607 44.3878 83.6226 45.2178 82.4876L53.2495 71.5041L51.1263 85.2658H51.7968C59.277 85.2658 66.1109 82.4608 71.3147 77.854C71.4232 71.8562 70.4082 68.3077 70.4082 68.3077L78.1922 49.8049C78.8884 48.1498 78.0865 46.2459 76.4159 45.5877Z" fill="black"/>
<path d="M96.9353 30.3737L91.6195 19.5888C91.3921 10.5193 84.4613 5.0036 84.1614 4.77014C83.8734 4.54602 83.4703 4.54602 83.1824 4.77014C82.8904 4.99738 76.3187 10.2306 75.7581 18.8725L70.0892 30.3737C69.5672 31.4328 70.338 32.6721 71.5187 32.6721H75.7031V34.2658C75.7031 34.7059 76.0595 35.0627 76.5 35.0627H80.3205L79.54 37.1774C79.348 37.6977 79.733 38.2502 80.2877 38.2502H81.2812H82.0781H82.875V55.7814C82.875 65.5885 78.3278 74.3291 71.2319 80.0249C65.9089 84.2977 59.1538 86.8596 51.7969 86.8596H50.8805H36.3965H28.0832H25.4391H17.6221H7.96875C7.08856 86.8596 6.375 87.5731 6.375 88.4533V94.892C6.375 95.7767 7.09371 96.4858 7.96714 96.4858C7.99706 96.4858 8.02716 96.4849 8.05742 96.4832L51.6377 94.0548C70.2876 93.0191 84.7971 77.4508 84.5188 58.7742L84.4687 55.4119V38.2502H85.2656H86.0625H87.0561C87.6107 38.2502 87.9957 37.6977 87.8037 37.1774L87.0233 35.0627H90.8437C91.2842 35.0627 91.6406 34.7059 91.6406 34.2658V32.6721H95.5057C96.6865 32.6721 97.4573 31.4328 96.9353 30.3737ZM84.4687 33.4689V27.0939C84.4687 26.6539 84.1123 26.2971 83.6719 26.2971C83.2314 26.2971 82.875 26.6539 82.875 27.0939V33.4689H77.2969V24.7079V20.0364C77.2969 18.7825 77.45 17.6006 77.7 16.4887C78.6889 12.0907 81.2888 8.85909 82.875 7.2274V12.7502C82.875 13.1902 83.2314 13.5471 83.6719 13.5471C84.1123 13.5471 84.4687 13.1902 84.4687 12.7502V7.22327C85.8744 8.66488 88.0795 11.3589 89.2524 15.0202C89.7376 16.5348 90.0469 18.2128 90.0469 20.0364V31.2174V33.4689H84.4687Z" fill="#FF3366"/>
<path d="M83.6719 15.9375C81.4713 15.9375 79.6875 17.7214 79.6875 19.9219C79.6875 22.1224 81.4713 23.9062 83.6719 23.9062C85.8724 23.9062 87.6562 22.1224 87.6562 19.9219C87.6562 17.7214 85.8724 15.9375 83.6719 15.9375ZM83.6719 22.3125C82.3537 22.3125 81.2812 21.2401 81.2812 19.9219C81.2812 18.6037 82.3537 17.5312 83.6719 17.5312C84.99 17.5312 86.0625 18.6037 86.0625 19.9219C86.0625 21.2401 84.99 22.3125 83.6719 22.3125Z" fill="#FF3366"/>
</svg>
