<svg width="368" height="277" viewBox="0 0 368 277" fill="none" xmlns="http://www.w3.org/2000/svg">
<g clip-path="url(#clip0)">
<path d="M169.706 59.0929H78.9245C78.4788 59.0924 78.0515 58.9156 77.7364 58.6014C77.4212 58.2872 77.2439 57.8612 77.2434 57.4169V34.9665C77.2439 34.5222 77.4212 34.0962 77.7364 33.782C78.0515 33.4678 78.4788 33.291 78.9245 33.2905H169.706C170.151 33.291 170.579 33.4678 170.894 33.782C171.209 34.0962 171.386 34.5222 171.387 34.9665V57.4169C171.386 57.8612 171.209 58.2872 170.894 58.6014C170.579 58.9156 170.151 59.0924 169.706 59.0929ZM78.9245 33.9609C78.6571 33.9612 78.4007 34.0673 78.2116 34.2558C78.0225 34.4443 77.9161 34.6999 77.9159 34.9665V57.4169C77.9162 57.6835 78.0225 57.9391 78.2116 58.1276C78.4007 58.3161 78.6571 58.4222 78.9245 58.4225H169.706C169.973 58.4222 170.229 58.3161 170.418 58.1276C170.608 57.9391 170.714 57.6835 170.714 57.4169V34.9665C170.714 34.6999 170.608 34.4443 170.418 34.2558C170.229 34.0673 169.973 33.9612 169.706 33.9609L78.9245 33.9609Z" fill="#3F3D56"/>
<path d="M93.0292 52.1575C96.8112 52.1575 99.8772 49.1009 99.8772 45.3303C99.8772 41.5598 96.8112 38.5032 93.0292 38.5032C89.2471 38.5032 86.1812 41.5598 86.1812 45.3303C86.1812 49.1009 89.2471 52.1575 93.0292 52.1575Z" fill="#20A4F3"/>
<path d="M108.843 40.7792C108.54 40.7792 108.25 40.8991 108.036 41.1124C107.822 41.3258 107.702 41.6153 107.702 41.917C107.702 42.2188 107.822 42.5082 108.036 42.7216C108.25 42.935 108.54 43.0549 108.843 43.0549H162.649C162.952 43.0549 163.242 42.935 163.456 42.7216C163.67 42.5082 163.79 42.2188 163.79 41.917C163.79 41.6153 163.67 41.3258 163.456 41.1124C163.242 40.8991 162.952 40.7792 162.649 40.7792H108.843Z" fill="#E6E6E6"/>
<path d="M108.843 47.6061C108.54 47.6061 108.25 47.726 108.036 47.9394C107.822 48.1527 107.702 48.4422 107.702 48.7439C107.702 49.0457 107.822 49.3351 108.036 49.5485C108.25 49.7619 108.54 49.8818 108.843 49.8818H131.996C132.146 49.8821 132.295 49.8528 132.433 49.7958C132.572 49.7387 132.698 49.655 132.804 49.5493C132.91 49.4436 132.995 49.3181 133.052 49.1799C133.11 49.0417 133.139 48.8935 133.139 48.7439C133.139 48.5943 133.11 48.4462 133.052 48.308C132.995 48.1698 132.91 48.0443 132.804 47.9386C132.698 47.8329 132.572 47.7492 132.433 47.6921C132.295 47.635 132.146 47.6058 131.996 47.6061H108.843Z" fill="#E6E6E6"/>
<path d="M130.293 139.118H89.9453C89.4996 139.118 89.0723 138.941 88.7571 138.627C88.442 138.312 88.2647 137.886 88.2642 137.442V95.55C88.2647 95.1057 88.442 94.6797 88.7571 94.3655C89.0723 94.0513 89.4996 93.8745 89.9453 93.874H130.293C130.738 93.8745 131.166 94.0513 131.481 94.3655C131.796 94.6797 131.973 95.1057 131.974 95.55V137.442C131.973 137.886 131.796 138.312 131.481 138.627C131.166 138.941 130.738 139.118 130.293 139.118ZM89.9453 94.5444C89.6779 94.5447 89.4215 94.6508 89.2324 94.8393C89.0433 95.0278 88.9369 95.2834 88.9366 95.55V137.442C88.9369 137.709 89.0433 137.964 89.2324 138.153C89.4215 138.341 89.6779 138.447 89.9453 138.448H130.293C130.56 138.447 130.816 138.341 131.005 138.153C131.195 137.964 131.301 137.709 131.301 137.442V95.55C131.301 95.2834 131.195 95.0278 131.005 94.8393C130.816 94.6508 130.56 94.5447 130.293 94.5444H89.9453Z" fill="#3F3D56"/>
<path d="M98.5422 102.513C98.2395 102.513 97.9492 102.633 97.7352 102.846C97.5211 103.06 97.4009 103.349 97.4009 103.651C97.4009 103.953 97.5211 104.242 97.7352 104.456C97.9492 104.669 98.2395 104.789 98.5422 104.789H121.695C121.998 104.789 122.288 104.669 122.502 104.456C122.716 104.242 122.836 103.953 122.836 103.651C122.836 103.349 122.716 103.06 122.502 102.846C122.288 102.633 121.998 102.513 121.695 102.513H98.5422Z" fill="#E6E6E6"/>
<path d="M98.5416 109.217C98.3916 109.217 98.2429 109.246 98.1042 109.303C97.9655 109.36 97.8394 109.444 97.7332 109.55C97.627 109.655 97.5428 109.781 97.4853 109.919C97.4278 110.057 97.3982 110.205 97.3982 110.355C97.3982 110.505 97.4278 110.653 97.4853 110.791C97.5428 110.929 97.627 111.055 97.7332 111.16C97.8394 111.266 97.9655 111.35 98.1042 111.407C98.2429 111.464 98.3916 111.493 98.5416 111.493H121.694C121.997 111.493 122.287 111.373 122.502 111.16C122.716 110.946 122.836 110.657 122.836 110.355C122.836 110.053 122.716 109.764 122.502 109.55C122.287 109.337 121.997 109.217 121.694 109.217H98.5416Z" fill="#E6E6E6"/>
<path d="M110.119 130.479C108.698 130.479 107.309 130.059 106.127 129.272C104.946 128.485 104.025 127.366 103.481 126.058C102.937 124.749 102.795 123.309 103.072 121.92C103.35 120.53 104.034 119.254 105.039 118.252C106.043 117.251 107.323 116.569 108.717 116.292C110.111 116.016 111.555 116.158 112.868 116.7C114.181 117.242 115.303 118.16 116.092 119.338C116.881 120.516 117.303 121.9 117.303 123.317C117.301 125.216 116.543 127.036 115.196 128.379C113.849 129.722 112.023 130.477 110.119 130.479Z" fill="#20A4F3"/>
<path d="M196.39 0H236.737C237.183 0.00052176 237.61 0.177268 237.925 0.491467C238.24 0.805667 238.417 1.23166 238.418 1.67601V43.568C238.417 44.0124 238.24 44.4384 237.925 44.7526C237.61 45.0668 237.183 45.2435 236.737 45.244H196.39C195.944 45.2435 195.517 45.0668 195.201 44.7526C194.886 44.4384 194.709 44.0124 194.708 43.568V1.67601C194.709 1.23166 194.886 0.805667 195.201 0.491467C195.517 0.177268 195.944 0.00052176 196.39 0ZM236.737 44.5736C237.004 44.5734 237.261 44.4673 237.45 44.2788C237.639 44.0903 237.745 43.8347 237.745 43.568V1.67601C237.745 1.4094 237.639 1.15378 237.45 0.965259C237.261 0.776735 237.004 0.670694 236.737 0.670403H196.39C196.122 0.670694 195.866 0.776735 195.677 0.965259C195.488 1.15378 195.381 1.4094 195.381 1.67601V43.568C195.381 43.8347 195.488 44.0903 195.677 44.2788C195.866 44.4673 196.122 44.5734 196.39 44.5736H236.737Z" fill="#3F3D56"/>
<path d="M228.139 36.6052C228.442 36.6052 228.732 36.4853 228.946 36.2719C229.16 36.0585 229.281 35.7691 229.281 35.4673C229.281 35.1655 229.16 34.8761 228.946 34.6627C228.732 34.4493 228.442 34.3295 228.139 34.3295H204.987C204.684 34.3295 204.394 34.4493 204.18 34.6627C203.965 34.8761 203.845 35.1655 203.845 35.4673C203.845 35.7691 203.965 36.0585 204.18 36.2719C204.394 36.4853 204.684 36.6052 204.987 36.6052H228.139Z" fill="#E6E6E6"/>
<path d="M228.139 29.901C228.442 29.901 228.732 29.7811 228.946 29.5677C229.16 29.3543 229.281 29.0649 229.281 28.7631C229.281 28.4613 229.16 28.1719 228.946 27.9585C228.732 27.7451 228.442 27.6252 228.139 27.6252H204.987C204.684 27.6252 204.394 27.7451 204.18 27.9585C203.965 28.1719 203.845 28.4613 203.845 28.7631C203.845 29.0649 203.965 29.3543 204.18 29.5677C204.394 29.7811 204.684 29.901 204.987 29.901H228.139Z" fill="#E6E6E6"/>
<path d="M216.562 8.63892C217.983 8.63892 219.372 9.05898 220.554 9.84599C221.735 10.633 222.656 11.7516 223.2 13.0603C223.743 14.3691 223.886 15.8092 223.609 17.1985C223.331 18.5879 222.647 19.8641 221.642 20.8658C220.638 21.8674 219.358 22.5496 217.964 22.8259C216.57 23.1023 215.126 22.9605 213.813 22.4184C212.5 21.8763 211.378 20.9582 210.589 19.7804C209.8 18.6026 209.378 17.2178 209.378 15.8012C209.38 13.9023 210.138 12.0818 211.485 10.7391C212.832 9.39635 214.658 8.64106 216.562 8.63892Z" fill="#20A4F3"/>
<path d="M77.7617 86.6684C84.9014 81.1555 93.2428 77.3961 102.111 75.6946C111.049 73.9966 120.266 74.4687 128.983 77.0713C133.365 78.372 137.575 80.1907 141.524 82.4885C145.547 84.8332 149.182 87.7196 152.68 90.7757C156.223 93.8715 159.65 97.1052 163.349 100.02C173.909 108.435 187.019 113.033 200.538 113.062C201.655 113.064 202.771 113.034 203.886 112.97C204.491 112.937 204.495 111.995 203.886 112.029C190.106 112.785 176.497 108.685 165.443 100.447C161.609 97.5892 158.109 94.3214 154.535 91.1548C151.07 88.0847 147.513 85.0983 143.582 82.6318C133.968 76.5931 122.782 73.5105 111.422 73.7686C100.061 74.0268 89.0281 77.6143 79.6995 84.0835C78.8125 84.6983 77.9461 85.3409 77.0936 86.0024C76.6144 86.3743 77.2873 87.0365 77.7617 86.6684V86.6684Z" fill="#3F3D56"/>
<path d="M77.2591 91.2207C79.9707 91.2207 82.1689 89.0292 82.1689 86.3258C82.1689 83.6225 79.9707 81.431 77.2591 81.431C74.5475 81.431 72.3494 83.6225 72.3494 86.3258C72.3494 89.0292 74.5475 91.2207 77.2591 91.2207Z" fill="#3F3D56"/>
<path d="M259.913 156.211C262.624 156.211 264.822 154.019 264.822 151.316C264.822 148.613 262.624 146.421 259.913 146.421C257.201 146.421 255.003 148.613 255.003 151.316C255.003 154.019 257.201 156.211 259.913 156.211Z" fill="#3F3D56"/>
<path d="M285.632 123.433H205.52C205.074 123.432 204.647 123.255 204.331 122.941C204.016 122.627 203.839 122.201 203.838 121.757V80.1998C203.839 79.7555 204.016 79.3295 204.331 79.0153C204.647 78.7011 205.074 78.5243 205.52 78.5238H285.632C286.078 78.5243 286.505 78.7011 286.82 79.0153C287.135 79.3295 287.313 79.7555 287.313 80.1998V121.757C287.313 122.201 287.135 122.627 286.82 122.941C286.505 123.255 286.078 123.432 285.632 123.433ZM205.52 79.1942C205.252 79.1945 204.996 79.3006 204.807 79.4891C204.617 79.6776 204.511 79.9332 204.511 80.1998V121.757C204.511 122.023 204.617 122.279 204.807 122.467C204.996 122.656 205.252 122.762 205.52 122.762H285.632C285.899 122.762 286.156 122.656 286.345 122.467C286.534 122.279 286.64 122.023 286.641 121.757V80.1998C286.64 79.9332 286.534 79.6776 286.345 79.4891C286.156 79.3006 285.899 79.1945 285.632 79.1942H205.52Z" fill="#3F3D56"/>
<path d="M218.953 100.072C222.736 100.072 225.802 97.0157 225.802 93.2451C225.802 89.4746 222.736 86.418 218.953 86.418C215.171 86.418 212.105 89.4746 212.105 93.2451C212.105 97.0157 215.171 100.072 218.953 100.072Z" fill="#20A4F3"/>
<path d="M234.769 88.6936C234.619 88.6933 234.47 88.7226 234.332 88.7796C234.193 88.8367 234.067 88.9205 233.961 89.0261C233.855 89.1318 233.77 89.2574 233.713 89.3955C233.655 89.5337 233.626 89.6819 233.626 89.8315C233.626 89.9811 233.655 90.1292 233.713 90.2674C233.77 90.4056 233.855 90.5311 233.961 90.6368C234.067 90.7425 234.193 90.8263 234.332 90.8833C234.47 90.9404 234.619 90.9696 234.769 90.9693H277.906C278.209 90.9693 278.499 90.8494 278.714 90.6361C278.928 90.4227 279.048 90.1332 279.048 89.8315C279.048 89.5297 278.928 89.2403 278.714 89.0269C278.499 88.8135 278.209 88.6936 277.906 88.6936H234.769Z" fill="#E6E6E6"/>
<path d="M234.769 95.5209C234.619 95.5206 234.47 95.5498 234.332 95.6069C234.193 95.664 234.067 95.7477 233.961 95.8534C233.855 95.9591 233.77 96.0846 233.713 96.2228C233.655 96.361 233.626 96.5091 233.626 96.6587C233.626 96.8083 233.655 96.9565 233.713 97.0947C233.77 97.2328 233.855 97.3584 233.961 97.4641C234.067 97.5697 234.193 97.6535 234.332 97.7106C234.47 97.7676 234.619 97.7969 234.769 97.7966H257.922C258.225 97.7966 258.515 97.6767 258.729 97.4633C258.943 97.2499 259.063 96.9605 259.063 96.6587C259.063 96.357 258.943 96.0675 258.729 95.8541C258.515 95.6408 258.225 95.5209 257.922 95.5209H234.769Z" fill="#E6E6E6"/>
<path d="M213.701 106.435C212.833 106.435 212.126 106.946 212.126 107.573C212.126 108.201 212.833 108.711 213.701 108.711H277.268C278.136 108.711 278.843 108.201 278.843 107.573C278.843 106.946 278.136 106.435 277.268 106.435H213.701Z" fill="#E6E6E6"/>
<path d="M213.701 113.263C212.833 113.263 212.126 113.773 212.126 114.401C212.126 115.028 212.833 115.538 213.701 115.538H277.268C278.136 115.538 278.843 115.028 278.843 114.401C278.843 113.773 278.136 113.263 277.268 113.263H213.701Z" fill="#E6E6E6"/>
<path d="M199.08 155.873C203.6 153.918 208.646 155.622 212.906 157.424C215.1 158.351 217.27 159.342 219.541 160.074C221.451 160.689 223.407 161.151 225.391 161.457C229.372 162.064 233.42 162.089 237.408 161.53C241.416 160.973 245.322 159.84 249.005 158.168C252.668 156.513 256.053 154.307 259.042 151.626C259.423 151.283 259.796 150.933 260.161 150.575C260.596 150.15 259.928 149.484 259.493 149.909C256.614 152.706 253.31 155.032 249.702 156.8C246.108 158.561 242.276 159.789 238.326 160.443C234.363 161.109 230.322 161.179 226.338 160.649C224.351 160.382 222.388 159.956 220.469 159.377C218.264 158.662 216.101 157.825 213.99 156.869C209.691 155.028 204.913 153.225 200.189 154.495C199.647 154.644 199.117 154.833 198.603 155.059C198.047 155.3 198.528 156.112 199.08 155.873V155.873Z" fill="#3F3D56"/>
<path d="M197.335 167.425H159.485L168.393 152.044C168.552 151.768 168.782 151.539 169.058 151.38C169.335 151.221 169.648 151.137 169.968 151.137C170.287 151.137 170.601 151.221 170.877 151.38C171.154 151.539 171.383 151.768 171.543 152.044L175.348 158.614L181.818 147.442C182.018 147.097 182.305 146.811 182.651 146.611C182.998 146.412 183.39 146.307 183.79 146.307C184.19 146.307 184.583 146.412 184.929 146.611C185.275 146.811 185.562 147.097 185.762 147.442L197.335 167.425Z" fill="#20A4F3"/>
<path d="M197.371 167.421H157.024C156.578 167.42 156.151 167.243 155.835 166.929C155.52 166.615 155.343 166.189 155.343 165.745V143.294C155.343 142.85 155.52 142.424 155.835 142.11C156.151 141.796 156.578 141.619 157.024 141.618H197.371C197.817 141.619 198.244 141.796 198.559 142.11C198.874 142.424 199.051 142.85 199.052 143.294V165.745C199.051 166.189 198.874 166.615 198.559 166.929C198.244 167.243 197.817 167.42 197.371 167.421ZM157.024 142.289C156.756 142.289 156.5 142.395 156.311 142.584C156.122 142.772 156.015 143.028 156.015 143.294V165.745C156.015 166.011 156.122 166.267 156.311 166.455C156.5 166.644 156.756 166.75 157.024 166.75H197.371C197.638 166.75 197.895 166.644 198.084 166.455C198.273 166.267 198.379 166.011 198.379 165.745V143.294C198.379 143.028 198.273 142.772 198.084 142.584C197.895 142.395 197.638 142.289 197.371 142.289H157.024Z" fill="#3F3D56"/>
<path d="M276.507 147.662L269.315 151.303C266.748 152.602 264.271 152.38 263.323 149.67C263.097 149.026 263.013 148.34 263.078 147.66C263.143 146.98 263.354 146.322 263.698 145.731C264.041 145.14 264.509 144.63 265.068 144.236C265.628 143.842 266.266 143.573 266.94 143.448L273.775 142.176L303.048 132.493L320.781 119.957L327.282 130.282L306.792 141.305L276.507 147.662Z" fill="#FFB8B8"/>
<path d="M310.079 268.513L304.576 267.599L305.187 257.237H310.996L310.079 268.513Z" fill="#FFB8B8"/>
<path d="M363.482 258.393L358.157 260.049L354.019 250.525L359.203 247.915L363.482 258.393Z" fill="#FFB8B8"/>
<path d="M360.517 249.313L353.792 252.056L321.694 209.999L311.607 259.37L304.881 258.151C300.567 215.587 297.05 172.172 301.366 151.638L326.28 150.572L337.59 186.533L343.093 210.914L360.517 249.313Z" fill="#2F2E41"/>
<path d="M309.775 276.893C308.769 277.108 307.72 276.997 306.782 276.576L303.513 275.11C300.772 274.969 298.906 275.514 297.38 273.528C296.95 272.961 296.679 272.289 296.597 271.582C296.515 270.875 296.624 270.159 296.913 269.509C297.2 268.856 297.655 268.291 298.233 267.872C298.811 267.452 299.491 267.194 300.202 267.123L304.691 264.303L304.927 266.417C306.979 267.576 309.415 267.075 311.996 265.947L313.406 270.864C313.587 271.498 313.636 272.162 313.55 272.816C313.463 273.47 313.243 274.099 312.903 274.664C312.562 275.229 312.109 275.719 311.571 276.102C311.033 276.486 310.421 276.755 309.775 276.893Z" fill="#2F2E41"/>
<path d="M365.661 266.807C364.78 267.336 363.752 267.571 362.727 267.476L359.158 267.148C356.52 267.902 354.932 269.021 352.842 267.637C352.25 267.24 351.776 266.692 351.468 266.05C351.16 265.408 351.03 264.696 351.092 263.987C351.15 263.277 351.397 262.595 351.807 262.011C352.217 261.427 352.775 260.963 353.425 260.666L356.753 256.545L357.664 258.468C359.982 258.9 362.123 257.638 364.197 255.735L367.132 259.93C367.51 260.47 367.773 261.083 367.904 261.729C368.035 262.375 368.032 263.042 367.894 263.687C367.756 264.331 367.487 264.941 367.103 265.478C366.719 266.015 366.228 266.467 365.661 266.807Z" fill="#2F2E41"/>
<path d="M317.108 107.296C323.186 107.296 328.113 102.384 328.113 96.3249C328.113 90.2657 323.186 85.3536 317.108 85.3536C311.031 85.3536 306.104 90.2657 306.104 96.3249C306.104 102.384 311.031 107.296 317.108 107.296Z" fill="#FFB8B8"/>
<path d="M330.56 119.486L316.192 116.439L314.358 104.553L324.446 102.42L330.56 119.486Z" fill="#FFB8B8"/>
<path d="M326.586 152.095H300.908L306.696 137.608C306.275 132.624 308.394 128.957 311.427 125.765L315.275 116.134C321.492 112.055 326.18 112.359 331.171 117.658C337.089 126.011 332.993 138.568 326.586 152.095Z" fill="#20A4F3"/>
<path d="M314.969 182.876L314.238 190.884C313.978 193.743 312.472 195.716 309.666 195.077C308.998 194.925 308.371 194.631 307.828 194.214C307.284 193.798 306.838 193.27 306.518 192.666C306.199 192.062 306.014 191.396 305.977 190.714C305.939 190.032 306.05 189.35 306.302 188.714L308.855 182.267L316.191 152.4L314.969 130.762H327.196L325.668 153.924L314.969 182.876Z" fill="#FFB8B8"/>
<path d="M328.113 131.372H314.052L315.037 122.227C315.102 120.645 315.758 119.145 316.875 118.02C317.993 116.896 319.492 116.229 321.078 116.15C321.918 116.108 322.758 116.232 323.55 116.516C324.342 116.8 325.069 117.238 325.69 117.804C326.311 118.37 326.813 119.054 327.167 119.815C327.521 120.575 327.721 121.399 327.754 122.237L328.113 131.372Z" fill="#20A4F3"/>
<path d="M330.729 85.044C333.013 85.044 334.865 83.1977 334.865 80.9202C334.865 78.6427 333.013 76.7964 330.729 76.7964C328.444 76.7964 326.593 78.6427 326.593 80.9202C326.593 83.1977 328.444 85.044 330.729 85.044Z" fill="#2F2E41"/>
<path d="M326.467 79.9106C326.535 78.8643 327 77.8832 327.768 77.1671C328.537 76.451 329.55 76.0538 330.601 76.0563C330.516 76.0455 330.431 76.0324 330.344 76.0268C329.25 75.9573 328.173 76.3239 327.349 77.046C326.526 77.7681 326.024 78.7866 325.953 79.8777C325.883 80.9687 326.25 82.0429 326.974 82.8642C327.698 83.6855 328.719 84.1866 329.813 84.2574C329.901 84.263 329.986 84.2608 330.072 84.261C329.029 84.1292 328.075 83.6059 327.405 82.7976C326.736 81.9894 326.4 80.9569 326.467 79.9106Z" fill="#2F2E41"/>
<path d="M326.443 81.6715C322.754 78.6205 312.173 82.4982 311.49 84.5494C306.501 85.2271 302.724 88.1288 302.724 93.2882V93.2882C305.69 94.4995 309.063 94.3503 312.71 93.2882C318.522 98.0107 318.921 103.947 315.386 110.766L319.735 110.853L325.125 102.998L325.383 110.965L335.352 110.766V99.3484C335.384 95.5522 334.508 91.8031 332.795 88.4122C331.242 85.4034 328.831 83.6466 326.443 81.6715Z" fill="#2F2E41"/>
<path d="M317.16 101.844C318.252 101.844 319.138 100.608 319.138 99.083C319.138 97.5582 318.252 96.3221 317.16 96.3221C316.067 96.3221 315.182 97.5582 315.182 99.083C315.182 100.608 316.067 101.844 317.16 101.844Z" fill="#FFB8B8"/>
<path d="M68.2766 102.586C68.2766 102.586 69.4673 82.0395 75.6488 86.7082C81.8303 91.377 72.9493 104.492 72.9493 104.492L68.2766 102.586Z" fill="#FFB9B9"/>
<path d="M45.2793 163.533C45.2793 163.533 59.0105 178.901 51.3282 179.957C43.6458 181.014 40.6238 165.479 40.6238 165.479L45.2793 163.533Z" fill="#FFB9B9"/>
<path d="M27.3599 90.7878C29.0833 91.2399 30.6343 92.1896 31.8181 93.5177C33.0019 94.8457 33.7657 96.4928 34.0136 98.2522L38.3814 129.246L44.5044 153.968C44.5044 153.968 47.5659 156.715 46.3413 158.241C45.1167 159.768 47.8721 166.177 47.8721 166.177L40.2183 168.619C40.2183 168.619 39.2998 162.209 37.7691 161.904C36.4238 161.636 21.3643 121.529 17.7344 111.813C17.2339 110.473 16.9507 109.711 16.9507 109.711C16.9507 109.711 17.563 89.2617 27.3599 90.7878Z" fill="#575A89"/>
<path d="M28.7592 252.415L33.4604 260.72C37.101 268.469 33.8658 269.877 24.9395 266.036L22.9048 256.229L28.7592 252.415Z" fill="#FFB9B9"/>
<path d="M31.1299 263.453C31.1299 263.453 33.3616 259.831 34.1688 260.437C34.976 261.044 38.3053 263.671 38.3053 263.671L42.6419 267.812C42.6419 267.812 57.2935 269.356 47.9835 274.474C38.6736 279.592 33.5287 275.349 33.5287 275.349C33.5287 275.349 20.4892 276.025 20.6995 272.398C20.9099 268.771 25.1152 263.033 25.1152 263.033C25.1152 263.033 30.4153 266.575 31.1299 263.453Z" fill="#2F2E41"/>
<path d="M7.89819 158.531L12.3056 211.697C12.3056 211.697 12.4525 243.48 17.1537 249.632C21.8548 255.783 22.0017 258.859 22.0017 258.859L31.6979 253.879C31.6979 253.879 26.7029 245.581 27.7313 244.311C28.3652 243.505 28.8163 242.572 29.0535 241.576L26.4091 208.768L31.4041 151.647L7.89819 158.531Z" fill="#2F2E41"/>
<path d="M19.9451 252.415L15.8316 263.253L6.50269 259.365L11.4243 251.243L19.9451 252.415Z" fill="#FFB9B9"/>
<path d="M13.0817 259.603C13.0817 259.603 16.5806 257.422 17.0179 258.294C17.4553 259.167 19.2047 262.873 19.2047 262.873L21.1728 268.323C21.1728 268.323 33.2 275.953 22.9222 276.389C12.6444 276.825 10.0203 270.939 10.0203 270.939C10.0203 270.939 -1.56958 265.925 0.179844 262.873C1.92927 259.821 8.0522 256.655 8.0522 256.655C8.0522 256.655 11.1137 262.001 13.0817 259.603Z" fill="#2F2E41"/>
<path d="M45.2138 158.677L47.5644 207.596C47.5644 207.596 26.1153 251.829 23.7647 253C23.0643 253.361 22.4434 253.858 21.9387 254.461C21.4341 255.065 21.0559 255.764 20.8264 256.515L7.89819 253.293L13.7747 243.919L26.7029 212.576C26.7029 212.576 28.7597 211.697 29.3473 208.768C29.935 205.839 31.1103 205.839 28.1721 205.253C25.2338 204.667 25.2338 201.738 25.2338 201.738L15.5376 157.212L45.2138 158.677Z" fill="#2F2E41"/>
<path d="M46.2378 72.0895C47.2776 65.7019 42.9264 59.6833 36.5193 58.6468C30.1121 57.6102 24.0752 61.9481 23.0354 68.3357C21.9957 74.7234 26.3469 80.7419 32.754 81.7785C39.1612 82.8151 45.1981 78.4772 46.2378 72.0895Z" fill="#FFB9B9"/>
<path d="M24.2049 70.9448C24.2049 70.9448 23.3234 85.8842 22.1481 87.3489C20.9728 88.8135 34.4887 88.5206 34.4887 88.5206C34.4887 88.5206 33.6073 75.9246 34.4887 74.7529C35.3702 73.5812 24.2049 70.9448 24.2049 70.9448Z" fill="#FFB9B9"/>
<path d="M46.0931 161.9C46.0931 161.9 12.8909 158.971 6.72217 161.9C6.72217 161.9 8.99305 153.501 8.40628 152.623C7.97954 151.982 9.15689 128.058 8.7873 114.257C8.57774 106.47 6.77551 98.8655 12.0146 93.084C13.7977 91.1201 15.7867 89.4715 17.8861 88.6662C17.8861 88.6662 17.2993 83.1013 20.237 82.8088C20.237 82.8088 31.4047 81.635 35.5159 85.1525C36.8305 86.2693 37.6573 89.6729 37.7449 92.6054C35.7103 102.581 36.4304 113.65 38.2974 125.133C38.4117 125.862 38.5374 126.595 38.6632 127.329C40.6445 138.717 43.6393 150.458 46.0931 161.9Z" fill="#575A89"/>
<path d="M28.4955 73.6651C29.4894 73.606 30.4599 73.9409 31.447 74.0715C34.9784 74.5389 38.6521 71.9842 39.4319 68.5187C39.4944 68.0573 39.6323 67.6091 39.8403 67.1921C40.3838 66.3075 41.6215 66.1388 42.6419 66.3422C43.6623 66.5457 44.6295 67.0218 45.6686 67.0761C47.2731 67.1601 48.8135 66.1753 49.6686 64.8192C50.4766 63.4202 50.8202 61.8023 50.6503 60.1968L49.8811 61.0016C49.5686 60.3424 49.4479 59.609 49.5329 58.8848C49.1253 58.7766 48.6966 58.7745 48.288 58.8787C47.8793 58.983 47.5044 59.19 47.199 59.4801C46.5208 59.5521 47.0327 58.226 46.5288 57.7677C46.2837 57.6176 45.9917 57.5631 45.7087 57.6147C44.2659 57.6286 43.0987 56.5284 41.9617 55.6427C39.9917 54.1115 37.688 53.0639 35.2368 52.5845C33.6075 52.2677 31.875 52.2168 30.3299 52.8216C29.0826 53.3798 27.9569 54.1759 27.0162 55.1651C24.5972 57.4841 22.4551 60.2088 21.4487 63.4005C20.6306 66.0148 20.6074 68.8121 21.3821 71.4395C21.7876 72.804 23.0097 77.4771 24.7989 77.5859C27.047 77.7226 25.6972 73.8315 28.4955 73.6651Z" fill="#2F2E41"/>
<path d="M33.3607 92.2257L37.5715 92.6754C37.5715 92.6754 41.7049 100.67 41.4047 102.338C41.1045 104.005 40.4508 102.993 42.3112 105.661C44.1716 108.329 49.4506 115.225 50.1043 116.237C50.7581 117.25 68.5795 103.694 67.4716 99.6322C67.4716 99.6322 73.1001 103.658 75.5115 104.194C75.5115 104.194 57.145 128.208 54.5856 131.281C52.0262 134.354 49.9663 133.723 46.4489 131.901C42.9316 130.079 25.1375 111.903 25.1375 111.903L33.3607 92.2257Z" fill="#575A89"/>
<path opacity="0.1" d="M38.6651 127.329L24.03 112.738L27.7336 111.534L38.2993 125.133C38.4136 125.862 38.5393 126.596 38.6651 127.329Z" fill="black"/>
</g>
<defs>
<clipPath id="clip0">
<rect width="368" height="277" fill="white"/>
</clipPath>
</defs>
</svg>
