<svg width="429" height="232" viewBox="0 0 429 232" fill="none" xmlns="http://www.w3.org/2000/svg">
<g clip-path="url(#clip0)">
<path d="M97.1188 201.735C97.0365 211.064 96.3491 220.377 95.0611 229.618C95.016 229.943 94.9669 230.267 94.9217 230.592L7.04845 230.103C6.79045 229.781 6.5365 229.455 6.29045 229.125C5.47006 228.033 4.70115 226.909 3.9953 225.747C0.602636 220.149 -0.950558 213.594 0.605893 209.071L0.633764 209.001C0.969742 208.011 1.49917 207.096 2.19165 206.31C5.74033 202.339 12.9154 203.001 19.4266 206.206C13.5865 199.851 8.93621 191.831 8.58288 184.672C8.23643 177.69 11.9088 172.702 15.892 168.463C16.0227 168.323 16.1533 168.187 16.284 168.05C16.3474 167.98 16.4147 167.914 16.4779 167.844C19.5856 164.614 23.2087 161.429 28.4528 161.815C34.2043 162.238 40.5809 167.027 45.0519 172.608C49.523 178.185 52.4941 184.521 55.5057 190.704C58.5211 196.884 61.7836 203.221 66.6224 208.503C60.0686 200.261 54.7844 190.884 52.8325 181.764C50.8805 172.645 52.5984 163.885 58.4394 159.59C60.2126 158.327 62.2646 157.503 64.4235 157.19C64.6755 157.148 64.9314 157.114 65.1914 157.085C70.5985 156.473 77.0545 158.332 82.5473 162.776C88.5965 167.67 92.7905 174.924 94.8772 181.81C96.9638 188.697 97.1861 195.326 97.1188 201.735Z" fill="#F2F2F2"/>
<path d="M39.628 230.284L37.9477 230.275C37.4142 229.943 36.8781 229.616 36.3395 229.292C36.0061 229.083 35.6689 228.881 35.3314 228.676C29.7578 225.292 24.1494 222.045 18.5061 218.937C12.868 215.827 7.20147 212.859 1.50662 210.035C1.35566 209.97 1.23251 209.854 1.15855 209.708C1.08459 209.562 1.06451 209.394 1.10179 209.235C1.10789 209.214 1.11735 209.194 1.12979 209.176C1.20922 209.028 1.38675 208.966 1.64585 209.093C2.34437 209.441 3.04691 209.789 3.74538 210.145C9.45577 213.018 15.1417 216.034 20.8031 219.193C26.4605 222.35 32.0858 225.648 37.6788 229.084C37.7964 229.155 37.9142 229.23 38.0318 229.301C38.5651 229.629 39.0947 229.957 39.628 230.284Z" fill="white"/>
<path d="M61.293 230.405L60.2539 230.399C60.0196 230.073 59.7893 229.747 59.5549 229.421C54.0489 221.745 48.5441 214.069 43.0403 206.392C34.0274 193.825 25.0171 181.258 16.0095 168.691C15.9561 168.623 15.9164 168.546 15.8926 168.463C15.8156 168.185 16.0211 168.022 16.2846 168.051C16.3957 168.066 16.5022 168.106 16.5968 168.165C16.6915 168.225 16.7722 168.305 16.8336 168.398C21.8868 175.446 26.9387 182.491 31.9893 189.533C40.9553 202.037 49.9201 214.54 58.8836 227.042C59.4537 227.836 60.0239 228.633 60.594 229.427C60.8283 229.753 61.0627 230.079 61.293 230.405Z" fill="white"/>
<path d="M84.441 224.406C84.388 226.147 84.2721 227.86 84.1207 229.557C84.0914 229.882 84.0621 230.207 84.0326 230.531L82.9425 230.525C82.9758 230.2 83.0091 229.876 83.0385 229.551C83.2688 227.099 83.4323 224.619 83.4545 222.072C83.4835 215.01 82.7912 207.964 81.3884 201.041C79.8973 193.587 77.7563 186.276 74.9897 179.192C72.0859 171.719 68.5849 164.49 64.5204 157.574C64.4438 157.461 64.4097 157.325 64.4241 157.19C64.4691 156.881 64.8828 156.789 65.1921 157.085C65.2532 157.142 65.3058 157.209 65.3483 157.281C65.8512 158.141 66.345 159.003 66.8295 159.868C70.7442 166.823 74.0949 174.077 76.8498 181.561C79.4739 188.669 81.4699 195.991 82.8153 203.444C84.0754 210.358 84.6202 217.382 84.441 224.406Z" fill="white"/>
<path d="M388.846 179.698C388.846 175.508 372.984 172.111 353.417 172.111C333.85 172.111 317.988 175.508 317.988 179.698C317.988 182.383 324.509 184.741 334.34 186.089V227.656C334.34 228.59 334.713 229.486 335.378 230.146C336.042 230.807 336.943 231.178 337.883 231.178C338.822 231.178 339.724 230.807 340.388 230.146C341.052 229.486 341.426 228.59 341.426 227.656V186.838C345.171 187.126 349.207 187.284 353.417 187.284C357.627 187.284 361.663 187.126 365.408 186.838V227.656C365.408 228.59 365.782 229.486 366.446 230.146C367.111 230.807 368.012 231.178 368.951 231.178C369.891 231.178 370.792 230.807 371.457 230.146C372.121 229.486 372.494 228.59 372.494 227.656V186.089C382.325 184.741 388.846 182.383 388.846 179.698Z" fill="#CCCCCC"/>
<path d="M357.334 110.258C365.763 110.258 372.596 103.465 372.596 95.085C372.596 86.7052 365.763 79.912 357.334 79.912C348.906 79.912 342.073 86.7052 342.073 95.085C342.073 103.465 348.906 110.258 357.334 110.258Z" fill="#2F2E41"/>
<path d="M319.355 224.905H312.672L309.493 199.279H319.356L319.355 224.905Z" fill="#A0616A"/>
<path d="M307.899 223.006H320.786V231.073H299.784C299.784 230.014 299.994 228.965 300.402 227.986C300.81 227.007 301.408 226.118 302.161 225.369C302.915 224.62 303.809 224.026 304.793 223.62C305.778 223.215 306.833 223.006 307.899 223.006Z" fill="#2F2E41"/>
<path d="M308.924 221.197L302.548 219.208L307.231 193.812L316.641 196.747L308.924 221.197Z" fill="#A0616A"/>
<path d="M298.565 215.976L310.861 219.812L308.431 227.509L288.393 221.257C288.712 220.246 289.228 219.308 289.912 218.496C290.596 217.683 291.434 217.012 292.379 216.522C293.323 216.032 294.356 215.731 295.417 215.637C296.479 215.543 297.548 215.658 298.565 215.976Z" fill="#2F2E41"/>
<path d="M311.097 210.973C310.804 210.973 310.514 210.92 310.24 210.818L305.324 208.985C304.772 208.777 304.314 208.379 304.032 207.864C303.751 207.348 303.665 206.749 303.79 206.176C305.028 200.643 309.246 181.807 311.556 171.703C314.295 159.719 354.258 157.492 355.957 157.403L356.097 157.396L360.592 163.012C362.217 168.203 361.702 172.252 359.062 175.047C351.359 183.201 328.36 178.141 325.618 177.501L313.393 209.403C313.215 209.864 312.9 210.262 312.49 210.542C312.08 210.822 311.595 210.973 311.097 210.973Z" fill="#2F2E41"/>
<path d="M318.183 214.766C317.89 214.766 317.6 214.713 317.326 214.611L312.41 212.778C311.858 212.571 311.4 212.173 311.118 211.657C310.837 211.142 310.751 210.543 310.876 209.969C312.114 204.437 316.332 185.6 318.642 175.497C321.381 163.512 361.343 161.286 363.043 161.197L363.183 161.189L367.678 166.806C369.303 171.997 368.788 176.045 366.148 178.84C358.445 186.993 335.446 181.934 332.704 181.294L320.479 213.196C320.301 213.658 319.986 214.055 319.576 214.335C319.166 214.616 318.68 214.766 318.183 214.766Z" fill="#2F2E41"/>
<path d="M303.96 136.722C304.14 136.962 304.302 137.216 304.442 137.482L331.325 140.298L335.194 135.023L343.965 139.788L336.364 152.589L303.395 144.231C302.563 145.038 301.504 145.573 300.359 145.766C299.213 145.96 298.036 145.802 296.983 145.313C295.931 144.825 295.052 144.03 294.465 143.034C293.878 142.037 293.61 140.886 293.696 139.735C293.783 138.583 294.22 137.485 294.95 136.586C295.68 135.687 296.667 135.031 297.781 134.704C298.896 134.377 300.083 134.395 301.187 134.755C302.291 135.116 303.258 135.802 303.96 136.722L303.96 136.722Z" fill="#A0616A"/>
<path d="M366.431 168.955C366.043 168.954 365.66 168.861 365.314 168.684C359.939 165.966 349.471 161.26 339.765 160.275C339.433 160.243 339.111 160.142 338.82 159.979C338.53 159.815 338.277 159.593 338.078 159.327C337.875 159.058 337.729 158.75 337.651 158.423C337.573 158.096 337.563 157.756 337.623 157.425C338.499 152.604 340.508 140.33 340.25 130.492C340.173 127.467 341.134 124.506 342.975 122.097C344.816 119.687 347.426 117.972 350.378 117.233C352.155 116.767 353.959 116.413 355.781 116.174C357.875 115.91 360.002 116.138 361.991 116.838C363.981 117.539 365.777 118.693 367.238 120.208C368.698 121.723 369.781 123.557 370.4 125.563C371.019 127.569 371.157 129.691 370.802 131.76C369.071 141.955 367.326 156.194 368.843 166.134C368.913 166.579 368.857 167.035 368.682 167.451C368.507 167.867 368.22 168.227 367.852 168.49C367.44 168.791 366.943 168.954 366.431 168.955Z" fill="#20A4F3"/>
<path d="M340.747 143.025C340.412 143.024 340.081 142.955 339.773 142.822L332.77 139.809C332.174 139.551 331.705 139.069 331.465 138.468C331.226 137.867 331.236 137.196 331.494 136.602L336.907 124.17C337.234 123.418 337.706 122.738 338.297 122.168C338.888 121.598 339.587 121.15 340.352 120.848C341.118 120.547 341.936 120.398 342.759 120.411C343.582 120.424 344.395 120.598 345.151 120.923C345.906 121.248 346.59 121.718 347.163 122.306C347.736 122.894 348.187 123.589 348.49 124.35C348.793 125.111 348.942 125.924 348.928 126.743C348.915 127.562 348.739 128.369 348.412 129.121L342.999 141.553C342.808 141.99 342.494 142.361 342.094 142.623C341.694 142.884 341.226 143.024 340.747 143.025V143.025Z" fill="#20A4F3"/>
<path d="M356.777 111.945C364.171 111.945 370.164 105.986 370.164 98.635C370.164 91.2844 364.171 85.3256 356.777 85.3256C349.384 85.3256 343.39 91.2844 343.39 98.635C343.39 105.986 349.384 111.945 356.777 111.945Z" fill="#A0616A"/>
<path d="M343.149 92.096C349.49 95.9444 356.639 98.2862 364.039 98.9392L361.837 96.3161C363.44 96.9055 365.127 97.2386 366.835 97.303C368.542 97.2765 370.329 96.6234 371.298 95.2266C371.729 94.5322 371.986 93.7443 372.045 92.93C372.105 92.1157 371.965 91.2992 371.638 90.5502C370.967 89.0562 369.923 87.7578 368.604 86.7785C366.267 84.9406 363.509 83.706 360.576 83.1848C357.642 82.6636 354.625 82.872 351.792 83.7914C349.849 84.3687 348.109 85.4785 346.771 86.9936C345.502 88.5502 343.058 89.937 343.708 91.8336L343.149 92.096Z" fill="#2F2E41"/>
<path d="M359.028 81.3552C354.805 77.0983 349.696 73.8134 344.059 71.7316C340.44 70.3989 336.502 69.5754 332.719 70.3323C328.936 71.0892 325.358 73.691 324.303 77.3811C323.44 80.3986 324.331 83.6475 325.67 86.488C327.009 89.3285 328.797 91.9625 329.88 94.9089C330.986 97.9154 331.318 101.149 330.847 104.315C330.377 107.482 329.118 110.481 327.186 113.041C325.253 115.602 322.708 117.642 319.782 118.976C316.855 120.31 313.64 120.897 310.428 120.683C314.145 121.178 317.571 122.915 321.204 123.839C324.837 124.763 329.125 124.701 331.825 122.113C334.682 119.375 334.739 114.924 334.601 110.981C334.396 105.121 334.19 99.26 333.985 93.3994C333.88 90.4107 333.791 87.3261 334.875 84.5365C335.959 81.7469 338.536 79.3041 341.544 79.3295C343.823 79.3487 345.841 80.7218 347.67 82.0758C349.498 83.4299 351.433 84.8746 353.704 85.076C355.974 85.2774 358.567 83.6067 358.397 81.3464" fill="#2F2E41"/>
<path d="M334.269 165.536C333.382 165.535 332.506 165.339 331.705 164.961C330.903 164.583 330.196 164.033 329.634 163.35C329.073 162.668 328.67 161.87 328.456 161.014C328.241 160.158 328.22 159.266 328.395 158.401C328.569 157.536 328.934 156.721 329.464 156.013C329.993 155.306 330.674 154.724 331.457 154.309C332.24 153.895 333.106 153.658 333.992 153.617C334.878 153.575 335.762 153.729 336.581 154.068H336.581C336.828 154.171 337.067 154.292 337.296 154.428L361.683 143.543L362.368 136.968L372.88 136.688L372.81 147.635C372.797 148.903 372.373 150.133 371.602 151.143C370.83 152.153 369.751 152.888 368.525 153.24L340.007 161.31C339.951 161.498 339.886 161.682 339.811 161.862C339.353 162.949 338.583 163.877 337.598 164.531C336.612 165.184 335.454 165.534 334.269 165.536V165.536Z" fill="#A0616A"/>
<path d="M371.989 142.054C371.69 142.205 371.364 142.292 371.029 142.312L363.413 142.778C362.764 142.817 362.126 142.598 361.638 142.17C361.151 141.742 360.855 141.139 360.814 140.494L359.978 126.972C359.926 126.154 360.037 125.335 360.304 124.56C360.571 123.785 360.989 123.069 361.534 122.455C362.079 121.841 362.741 121.34 363.481 120.98C364.222 120.62 365.026 120.409 365.849 120.359C366.671 120.309 367.496 120.42 368.275 120.687C369.054 120.954 369.772 121.37 370.389 121.914C371.006 122.457 371.509 123.115 371.87 123.852C372.23 124.589 372.441 125.389 372.491 126.207L373.327 139.728C373.356 140.203 373.245 140.676 373.007 141.09C372.77 141.503 372.416 141.838 371.989 142.054L371.989 142.054Z" fill="#20A4F3"/>
<path d="M355.436 166.903H312.376C311.87 166.903 311.385 166.704 311.027 166.348C310.67 165.992 310.469 165.51 310.469 165.007C310.469 164.504 310.67 164.021 311.027 163.666C311.385 163.31 311.87 163.11 312.376 163.11H355.436C355.942 163.11 356.427 163.31 356.785 163.666C357.143 164.021 357.344 164.504 357.344 165.007C357.344 165.51 357.143 165.992 356.785 166.348C356.427 166.704 355.942 166.903 355.436 166.903Z" fill="#3F3D56"/>
<path d="M293.572 163.381V136.828C293.573 135.894 293.946 134.999 294.61 134.339C295.275 133.679 296.175 133.307 297.114 133.306H345.625C346.564 133.307 347.465 133.679 348.129 134.339C348.793 134.999 349.167 135.894 349.168 136.828V163.381C349.167 164.315 348.793 165.21 348.129 165.871C347.465 166.531 346.564 166.902 345.625 166.903H297.114C296.175 166.902 295.275 166.531 294.61 165.871C293.946 165.21 293.573 164.315 293.572 163.381Z" fill="#3F3D56"/>
<path d="M321.37 153.356C323.176 153.356 324.64 151.9 324.64 150.105C324.64 148.309 323.176 146.853 321.37 146.853C319.564 146.853 318.099 148.309 318.099 150.105C318.099 151.9 319.564 153.356 321.37 153.356Z" fill="white"/>
<path d="M150.862 118.858C150.42 118.193 149.838 117.633 149.154 117.216C148.471 116.799 147.705 116.537 146.909 116.447C146.113 116.357 145.306 116.441 144.546 116.694C143.787 116.948 143.092 117.363 142.511 117.912L125.203 109.031L126.279 119.037L142.55 125.937C143.543 126.845 144.836 127.361 146.185 127.385C147.534 127.409 148.844 126.94 149.869 126.067C150.893 125.195 151.56 123.979 151.743 122.65C151.927 121.321 151.613 119.972 150.862 118.858H150.862Z" fill="#FFB8B8"/>
<path d="M135.482 122.885C135.168 123.028 134.829 123.104 134.484 123.107C134.14 123.111 133.798 123.042 133.482 122.906L117.042 115.816C111.42 113.393 106.876 109.022 104.253 103.516L95.6104 85.3786C94.9725 84.5639 94.5024 83.6321 94.227 82.6367C93.9516 81.6412 93.8763 80.6016 94.0053 79.5772C94.1344 78.5527 94.4653 77.5637 94.9791 76.6665C95.4929 75.7693 96.1796 74.9816 96.9998 74.3484C97.8201 73.7153 98.7578 73.2491 99.7594 72.9765C100.761 72.7039 101.807 72.6303 102.837 72.7598C103.867 72.8894 104.862 73.2196 105.764 73.7315C106.665 74.2434 107.457 74.9271 108.093 75.7433L123.285 103.767L137.313 114.302C137.715 114.605 138.013 115.023 138.168 115.5C138.322 115.977 138.326 116.49 138.178 116.969L136.801 121.39C136.653 121.864 136.364 122.282 135.971 122.589C135.82 122.706 135.656 122.806 135.482 122.885Z" fill="#CCCCCC"/>
<path d="M95.2288 64.0477C102.622 64.0477 108.616 58.0888 108.616 50.7382C108.616 43.3876 102.622 37.4287 95.2288 37.4287C87.8352 37.4287 81.8416 43.3876 81.8416 50.7382C81.8416 58.0888 87.8352 64.0477 95.2288 64.0477Z" fill="#FFB8B8"/>
<path d="M100.653 225.334H107.334L110.514 199.709H100.651L100.653 225.334Z" fill="#FFB8B8"/>
<path d="M120.22 231.502L99.2188 231.503L99.2185 223.436L112.106 223.436C114.258 223.436 116.322 224.285 117.844 225.798C119.365 227.311 120.22 229.363 120.22 231.502L120.22 231.502Z" fill="#2F2E41"/>
<path d="M78.85 225.334H85.5319L88.7113 199.709H78.8484L78.85 225.334Z" fill="#FFB8B8"/>
<path d="M98.418 231.502L77.4163 231.503L77.416 223.436L90.3033 223.436C92.4554 223.436 94.5193 224.285 96.0411 225.798C97.5629 227.311 98.4179 229.363 98.418 231.502L98.418 231.502Z" fill="#2F2E41"/>
<path d="M76.5154 218C76.2852 217.738 76.1138 217.431 76.0127 217.098C75.9117 216.766 75.8833 216.416 75.9295 216.071L87.629 128.834L116.696 133.742L119.799 131.891L111.777 214.662C111.71 215.221 111.451 215.74 111.045 216.131C110.638 216.523 110.108 216.762 109.544 216.81L100.742 217.54C100.393 217.569 100.04 217.523 99.7099 217.405C99.3794 217.287 99.0782 217.1 98.8267 216.856C98.5752 216.613 98.3793 216.318 98.2522 215.993C98.1251 215.667 98.0698 215.318 98.0899 214.97L100.369 175.551C100.373 175.484 100.352 175.418 100.309 175.366C100.267 175.314 100.207 175.279 100.14 175.268C100.074 175.257 100.006 175.271 99.9489 175.307C99.8922 175.344 99.8511 175.4 99.8335 175.465L88.5599 217.028C88.4189 217.545 88.1107 218.002 87.6827 218.328C87.2548 218.654 86.7309 218.831 86.1917 218.832H78.3608C78.0113 218.832 77.6658 218.758 77.3476 218.614C77.0293 218.471 76.7456 218.261 76.5154 218Z" fill="#2F2E41"/>
<path d="M96.6472 134.941C96.3136 134.64 95.8847 134.466 95.435 134.447C94.9853 134.428 94.5433 134.567 94.1857 134.838L88.3743 139.332C88.058 139.578 87.6861 139.742 87.291 139.811C86.896 139.88 86.49 139.851 86.1086 139.728C85.7272 139.605 85.3821 139.39 85.1036 139.103C84.8251 138.816 84.6217 138.466 84.5112 138.082C81.6607 128.157 75.2024 103.175 76.7934 85.5911C77.6953 75.6243 86.3523 68.0494 96.0914 68.6849C102.75 69.1263 107.13 72.945 109.111 80.0346C113.974 97.4413 119.319 129.371 120.341 135.595C120.421 136.078 120.353 136.574 120.146 137.018C119.938 137.461 119.6 137.832 119.176 138.082C116.427 139.723 113.285 140.602 110.078 140.627C106.198 140.627 101.545 139.284 96.6472 134.941Z" fill="#CCCCCC"/>
<path d="M98.838 141.132C98.9031 140.338 98.7922 139.54 98.5133 138.793C98.2344 138.046 97.7942 137.369 97.2237 136.81C96.6531 136.251 95.9662 135.822 95.2112 135.556C94.4562 135.289 93.6515 135.19 92.8539 135.265L84.7478 117.658L79.3835 126.191L87.9036 141.603C88.1204 142.927 88.8182 144.126 89.8646 144.972C90.911 145.819 92.2334 146.255 93.5812 146.196C94.929 146.138 96.2086 145.591 97.1774 144.658C98.1463 143.724 98.7371 142.47 98.838 141.132H98.838Z" fill="#FFB8B8"/>
<path d="M84.2359 134.864C83.9009 134.785 83.5864 134.636 83.313 134.427C83.0396 134.219 82.8135 133.955 82.6492 133.654L74.114 117.988C71.195 112.633 70.3322 106.405 71.6861 100.464L76.1438 80.8892C76.1479 79.8569 76.3565 78.8356 76.7578 77.8836C77.1592 76.9315 77.7453 76.0674 78.4827 75.3407C79.2201 74.614 80.0943 74.0389 81.0554 73.6483C82.0165 73.2577 83.0456 73.0593 84.0839 73.0643C85.1222 73.0693 86.1493 73.2778 87.1065 73.6777C88.0637 74.0776 88.9322 74.6612 89.6625 75.395C90.3927 76.1289 90.9703 76.9986 91.3622 77.9545C91.7542 78.9104 91.9528 79.9337 91.9467 80.9659L86.5061 112.338L91.0049 129.234C91.1328 129.719 91.1079 130.231 90.9335 130.701C90.7592 131.171 90.4438 131.577 90.03 131.863L86.2021 134.498C85.7914 134.78 85.304 134.931 84.8047 134.931C84.6131 134.931 84.4222 134.909 84.2359 134.864Z" fill="#CCCCCC"/>
<path opacity="0.2" d="M90.8609 94.1963L85.9553 114.788L93.0411 132.129L88.1356 115.33L90.8609 94.1963Z" fill="black"/>
<path d="M87.5899 61.6826C86.3991 61.7045 85.2157 61.4917 84.1081 61.0563C83.6207 60.8696 83.1148 60.7161 82.6284 60.5292C78.3324 58.8791 75.5024 54.3305 75.4011 49.7529C75.2997 45.1753 77.6841 40.7322 81.2248 37.8042C84.7655 34.8762 89.3516 33.3729 93.9438 33.0252C98.8904 32.6508 104.46 33.8979 107.224 37.9935C107.96 39.0836 108.475 40.4063 108.039 41.7226C107.908 42.1198 107.675 42.4759 107.362 42.7554C106.128 43.8472 104.897 43.0263 103.639 42.9537C101.909 42.854 100.356 44.2459 99.7976 45.8764C99.2392 47.507 99.485 49.3021 99.9359 50.9652C100.279 51.966 100.496 53.0054 100.58 54.0595C100.617 54.588 100.517 55.117 100.29 55.5964C100.063 56.0757 99.7167 56.4896 99.2839 56.7986C98.2031 57.4481 96.7838 57.0722 95.7023 56.4237C94.6209 55.7753 93.6865 54.8736 92.5183 54.3965C91.3502 53.9193 89.7808 54.0251 89.1009 55.0832C88.8848 55.4682 88.7386 55.888 88.6688 56.3234C88.0593 59.0843 88.1994 58.9217 87.5899 61.6825L87.5899 61.6826Z" fill="#2F2E41"/>
<path d="M203.66 106.85C203.438 106.571 203.283 106.245 203.207 105.897C203.131 105.549 203.135 105.188 203.22 104.842C205.253 96.3766 205.253 87.5541 203.22 79.0886C203.135 78.7426 203.131 78.382 203.207 78.0341C203.283 77.6862 203.438 77.3601 203.66 77.0808C203.878 76.8053 204.155 76.5828 204.472 76.4302C204.789 76.2775 205.137 76.1987 205.489 76.1998H227.222C227.777 76.2009 228.314 76.3978 228.737 76.7557C229.16 77.1135 229.442 77.6089 229.532 78.1537C230.949 87.3076 230.949 96.6232 229.532 105.777C229.442 106.322 229.16 106.817 228.737 107.175C228.314 107.533 227.777 107.73 227.222 107.731H205.489C205.137 107.732 204.789 107.653 204.472 107.501C204.155 107.348 203.878 107.125 203.66 106.85Z" fill="#E6E6E6"/>
<path d="M170.042 30.6498C169.82 30.3705 169.665 30.0445 169.588 29.6967C169.512 29.3488 169.517 28.9882 169.602 28.6424C171.635 20.1768 171.635 11.3543 169.602 2.88874C169.517 2.5429 169.512 2.18232 169.588 1.83444C169.665 1.48656 169.82 1.16056 170.042 0.88126C170.259 0.605726 170.537 0.383132 170.854 0.230418C171.171 0.0777027 171.518 -0.00109911 171.871 1.158e-05H193.604C194.159 0.00112433 194.696 0.198109 195.119 0.555913C195.542 0.913717 195.823 1.40911 195.913 1.95392C197.331 11.1077 197.331 20.4234 195.913 29.5772C195.823 30.122 195.542 30.6174 195.119 30.9752C194.696 31.333 194.159 31.53 193.604 31.5311H171.871C171.518 31.5322 171.171 31.4534 170.854 31.3007C170.537 31.148 170.259 30.9254 170.042 30.6498Z" fill="#E6E6E6"/>
<path d="M223.518 56.1394C222.1 46.9856 222.1 37.67 223.518 28.5162C223.608 27.9714 223.889 27.4759 224.312 27.1181C224.735 26.7603 225.272 26.5633 225.827 26.5623H247.56C247.912 26.5612 248.26 26.64 248.577 26.7927C248.894 26.9454 249.172 27.168 249.389 27.4435C249.611 27.7228 249.766 28.0488 249.842 28.3967C249.919 28.7446 249.914 29.1052 249.829 29.451C247.796 37.9166 247.796 46.739 249.829 55.2046C249.914 55.5505 249.919 55.911 249.842 56.2589C249.766 56.6068 249.611 56.9328 249.389 57.2121C249.172 57.4876 248.894 57.7102 248.577 57.8629C248.26 58.0157 247.912 58.0945 247.56 58.0933H225.827C225.272 58.0923 224.735 57.8953 224.312 57.5375C223.889 57.1797 223.608 56.6843 223.518 56.1394Z" fill="#20A4F3"/>
<path d="M132.534 55.1748C131.116 46.021 131.116 36.7054 132.534 27.5516C132.624 27.0068 132.905 26.5114 133.328 26.1536C133.751 25.7958 134.288 25.5988 134.843 25.5977H156.576C156.928 25.5966 157.276 25.6754 157.593 25.8281C157.91 25.9808 158.188 26.2034 158.405 26.4789C158.627 26.7582 158.782 27.0842 158.859 27.4321C158.935 27.78 158.93 28.1406 158.845 28.4864C156.812 36.952 156.812 45.7744 158.845 54.24C158.93 54.5859 158.935 54.9464 158.859 55.2943C158.782 55.6422 158.627 55.9682 158.405 56.2475C158.188 56.523 157.91 56.7456 157.593 56.8983C157.276 57.0511 156.928 57.1299 156.576 57.1287H134.843C134.288 57.1276 133.751 56.9306 133.328 56.5728C132.905 56.215 132.624 55.7196 132.534 55.1748Z" fill="#20A4F3"/>
<path d="M137.911 118.941C137.685 118.657 137.527 118.325 137.45 117.972C137.372 117.618 137.377 117.251 137.464 116.9C139.53 108.295 139.53 99.3277 137.463 90.723C137.377 90.3714 137.372 90.0049 137.45 89.6512C137.527 89.2976 137.685 88.9662 137.911 88.6823C138.132 88.4023 138.414 88.1761 138.736 88.021C139.058 87.8658 139.412 87.7858 139.77 87.7869H161.86C162.424 87.7879 162.97 87.9881 163.4 88.3518C163.83 88.7155 164.116 89.2191 164.207 89.7729C165.648 99.0771 165.648 108.546 164.207 117.85C164.116 118.404 163.83 118.907 163.4 119.271C162.97 119.635 162.424 119.835 161.86 119.836H139.77C139.412 119.837 139.058 119.757 138.736 119.602C138.414 119.447 138.132 119.22 137.911 118.941Z" fill="#20A4F3"/>
<path d="M6.8584 232H428.351C428.524 232 428.689 231.932 428.81 231.811C428.932 231.69 429 231.526 429 231.355C429 231.184 428.932 231.02 428.81 230.899C428.689 230.778 428.524 230.71 428.351 230.71H6.8584C6.77301 230.709 6.68842 230.726 6.60946 230.758C6.53051 230.79 6.45874 230.838 6.39828 230.898C6.33781 230.958 6.28984 231.029 6.25711 231.107C6.22437 231.186 6.20752 231.27 6.20752 231.355C6.20752 231.44 6.22437 231.524 6.25711 231.602C6.28984 231.681 6.33781 231.752 6.39828 231.812C6.45874 231.872 6.53051 231.919 6.60946 231.951C6.68842 231.984 6.77301 232 6.8584 232Z" fill="#3F3D56"/>
<path d="M157.596 99.612H145.959C145.526 99.6115 145.11 99.4401 144.804 99.1353C144.497 98.8305 144.325 98.4173 144.324 97.9863V97.296C144.325 96.865 144.497 96.4517 144.804 96.147C145.11 95.8422 145.526 95.6708 145.959 95.6703H157.596C158.03 95.6708 158.445 95.8422 158.752 96.147C159.058 96.4517 159.231 96.865 159.231 97.296V97.9863C159.231 98.4173 159.058 98.8305 158.752 99.1353C158.445 99.4401 158.03 99.6115 157.596 99.612Z" fill="white"/>
<path d="M157.596 106.411H145.959C145.526 106.411 145.11 106.239 144.804 105.935C144.497 105.63 144.325 105.217 144.324 104.786V104.095C144.325 103.664 144.497 103.251 144.804 102.946C145.11 102.642 145.526 102.47 145.959 102.47H157.596C158.03 102.47 158.445 102.642 158.752 102.946C159.058 103.251 159.231 103.664 159.231 104.095V104.786C159.231 105.217 159.058 105.63 158.752 105.935C158.445 106.239 158.03 106.411 157.596 106.411Z" fill="white"/>
<path d="M149.89 38.9699H138.485C138.052 38.9694 137.636 38.798 137.33 38.4932C137.023 38.1885 136.851 37.7752 136.85 37.3442V36.7092C136.851 36.2782 137.023 35.8649 137.33 35.5602C137.636 35.2554 138.052 35.084 138.485 35.0835H149.89C150.323 35.084 150.739 35.2554 151.046 35.5602C151.352 35.8649 151.525 36.2782 151.525 36.7092V37.3442C151.525 37.7752 151.352 38.1885 151.046 38.4932C150.739 38.798 150.323 38.9694 149.89 38.9699Z" fill="white"/>
<path d="M222.754 86.7266H211.349C210.916 86.7262 210.5 86.5547 210.193 86.25C209.887 85.9452 209.714 85.532 209.714 85.1009V84.4656C209.714 84.0346 209.887 83.6214 210.193 83.3166C210.5 83.0119 210.916 82.8404 211.349 82.84H222.754C223.187 82.8404 223.603 83.0119 223.909 83.3166C224.216 83.6214 224.388 84.0346 224.389 84.4656V85.1009C224.388 85.532 224.216 85.9452 223.909 86.25C223.603 86.5547 223.187 86.7262 222.754 86.7266Z" fill="white"/>
<path d="M222.754 94.754H211.349C210.916 94.7535 210.5 94.5821 210.193 94.2773C209.887 93.9725 209.714 93.5593 209.714 93.1283V92.493C209.714 92.062 209.887 91.6488 210.193 91.344C210.5 91.0392 210.916 90.8678 211.349 90.8673H222.754C223.187 90.8678 223.603 91.0392 223.909 91.344C224.216 91.6488 224.388 92.062 224.389 92.493V93.1283C224.388 93.5593 224.216 93.9725 223.909 94.2773C223.603 94.5821 223.187 94.7535 222.754 94.754Z" fill="white"/>
<path d="M222.754 102.781H211.349C210.916 102.781 210.5 102.609 210.193 102.305C209.887 102 209.714 101.587 209.714 101.156V100.52C209.714 100.089 209.887 99.6761 210.193 99.3713C210.5 99.0666 210.916 98.8951 211.349 98.8947H222.754C223.187 98.8951 223.603 99.0666 223.909 99.3713C224.216 99.6761 224.388 100.089 224.389 100.52V101.156C224.388 101.587 224.216 102 223.909 102.305C223.603 102.609 223.187 102.781 222.754 102.781Z" fill="white"/>
<path d="M149.89 45.6594H138.485C138.052 45.6589 137.636 45.4875 137.33 45.1827C137.023 44.8779 136.851 44.4647 136.85 44.0337V43.3984C136.851 42.9674 137.023 42.5542 137.33 42.2494C137.636 41.9446 138.052 41.7732 138.485 41.7727H149.89C150.323 41.7732 150.739 41.9446 151.046 42.2494C151.352 42.5542 151.525 42.9674 151.525 43.3984V44.0337C151.525 44.4647 151.352 44.8779 151.046 45.1827C150.739 45.4875 150.323 45.6589 149.89 45.6594Z" fill="white"/>
<path d="M189.23 11.8648H177.825C177.392 11.8643 176.976 11.6929 176.669 11.3881C176.363 11.0834 176.19 10.6701 176.19 10.2391V9.60383C176.19 9.17282 176.363 8.75959 176.669 8.45482C176.976 8.15005 177.392 7.97862 177.825 7.97815H189.23C189.663 7.97862 190.079 8.15005 190.385 8.45482C190.692 8.75959 190.864 9.17282 190.865 9.60383V10.2391C190.864 10.6701 190.692 11.0834 190.385 11.3881C190.079 11.6929 189.663 11.8643 189.23 11.8648Z" fill="white"/>
<path d="M241.269 40.6035H229.865C229.431 40.603 229.016 40.4316 228.709 40.1268C228.402 39.822 228.23 39.4088 228.229 38.9778V38.3425C228.23 37.9115 228.402 37.4982 228.709 37.1935C229.016 36.8887 229.431 36.7173 229.865 36.7168H241.269C241.703 36.7173 242.119 36.8887 242.425 37.1935C242.732 37.4982 242.904 37.9115 242.905 38.3425V38.9778C242.904 39.4088 242.732 39.822 242.425 40.1268C242.119 40.4316 241.703 40.603 241.269 40.6035Z" fill="white"/>
</g>
<defs>
<clipPath id="clip0">
<rect width="429" height="232" fill="white"/>
</clipPath>
</defs>
</svg>
