<svg width="409" height="262" viewBox="0 0 409 262" fill="none" xmlns="http://www.w3.org/2000/svg">
<path d="M61.5766 71.5452C62.2588 64.1899 64.143 56.9968 67.1541 50.2528C67.9933 48.3761 68.9169 46.5406 69.9251 44.7465C69.9756 44.6526 69.9878 44.5428 69.959 44.4402C69.9302 44.3376 69.8628 44.2501 69.7708 44.1963C69.6789 44.1425 69.5697 44.1266 69.4662 44.1518C69.3628 44.1771 69.2732 44.2416 69.2163 44.3317C65.5501 50.8664 62.9817 57.9598 61.6137 65.3285C61.2332 67.3862 60.9472 69.4585 60.7557 71.5452C60.7071 72.0716 61.5282 72.0683 61.5766 71.5452Z" fill="#E6E6E6"/>
<path d="M71.9122 46.0644C74.7834 46.0644 77.1109 43.7343 77.1109 40.8601C77.1109 37.9858 74.7834 35.6558 71.9122 35.6558C69.0411 35.6558 66.7136 37.9858 66.7136 40.8601C66.7136 43.7343 69.0411 46.0644 71.9122 46.0644Z" fill="#E6E6E6"/>
<path d="M62.1076 71.6835C62.5502 66.9118 63.7726 62.2452 65.726 57.8701C66.2704 56.6526 66.8696 55.4618 67.5236 54.2979C67.5564 54.237 67.5643 54.1658 67.5457 54.0992C67.527 54.0326 67.4832 53.9759 67.4236 53.941C67.3639 53.9061 67.2931 53.8957 67.226 53.9121C67.1588 53.9285 67.1007 53.9704 67.0638 54.0288C64.6854 58.2682 63.0191 62.87 62.1317 67.6504C61.8848 68.9853 61.6993 70.3297 61.5751 71.6835C61.5435 72.025 62.0762 72.0228 62.1076 71.6835Z" fill="#E6E6E6"/>
<path d="M68.813 55.1529C70.6757 55.1529 72.1856 53.6413 72.1856 51.7767C72.1856 49.912 70.6757 48.4004 68.813 48.4004C66.9504 48.4004 65.4404 49.912 65.4404 51.7767C65.4404 53.6413 66.9504 55.1529 68.813 55.1529Z" fill="#E6E6E6"/>
<path d="M61.4363 71.3646C58.8536 67.3297 56.9504 62.8975 55.8026 58.2451C55.4838 56.9498 55.2247 55.642 55.0253 54.3216C55.0137 54.2534 54.9762 54.1923 54.9206 54.1513C54.8649 54.1103 54.7956 54.0925 54.7271 54.1017C54.6586 54.1109 54.5964 54.1464 54.5536 54.2007C54.5107 54.2549 54.4906 54.3237 54.4974 54.3925C55.2267 59.1996 56.7402 63.8541 58.9774 68.1698C59.603 69.3743 60.2826 70.5486 61.0164 71.6925C61.2013 71.9812 61.62 71.6515 61.4363 71.3646Z" fill="#E6E6E6"/>
<path d="M54.4932 54.9159C56.3558 54.9159 57.8658 53.4043 57.8658 51.5396C57.8658 49.6749 56.3558 48.1633 54.4932 48.1633C52.6306 48.1633 51.1206 49.6749 51.1206 51.5396C51.1206 53.4043 52.6306 54.9159 54.4932 54.9159Z" fill="#E6E6E6"/>
<path d="M51.0818 74.352V67.7183C51.0825 67.0588 51.3446 66.4265 51.8104 65.9601C52.2763 65.4938 52.9079 65.2315 53.5667 65.2307H69.0282C69.6871 65.2315 70.3187 65.4938 70.7845 65.9601C71.2504 66.4265 71.5124 67.0588 71.5131 67.7183V74.352C71.5124 75.0115 71.2504 75.6438 70.7845 76.1101C70.3187 76.5765 69.6871 76.8388 69.0282 76.8396H53.5667C52.9079 76.8388 52.2763 76.5765 51.8104 76.1101C51.3446 75.6438 51.0825 75.0115 51.0818 74.352Z" fill="#F2F2F2"/>
<path d="M68.476 32.0626H61.8496C61.1908 32.0618 60.5592 31.7995 60.0934 31.3331C59.6275 30.8668 59.3655 30.2345 59.3647 29.5749V2.48761C59.3655 1.82808 59.6275 1.19578 60.0934 0.729425C60.5592 0.263068 61.1908 0.000743275 61.8496 0H68.476C69.1348 0.000743275 69.7665 0.263068 70.2323 0.729425C70.6982 1.19578 70.9602 1.82808 70.9609 2.48761V29.5749C70.9602 30.2345 70.6982 30.8668 70.2323 31.3331C69.7665 31.7995 69.1348 32.0618 68.476 32.0626Z" fill="#F2F2F2"/>
<path d="M70.6848 5.25171H59.6409V7.46292H70.6848V5.25171Z" fill="#CCCCCC"/>
<path d="M70.6848 22.3884H59.6409V24.5996H70.6848V22.3884Z" fill="#CCCCCC"/>
<path d="M85.0422 32.0626H78.4158C77.757 32.0618 77.1254 31.7995 76.6595 31.3331C76.1937 30.8668 75.9317 30.2345 75.9309 29.5749V2.48761C75.9317 1.82808 76.1937 1.19578 76.6595 0.729425C77.1254 0.263068 77.757 0.000743275 78.4158 0H85.0422C85.701 0.000743275 86.3326 0.263068 86.7985 0.729425C87.2643 1.19578 87.5263 1.82808 87.5271 2.48761V29.5749C87.5263 30.2345 87.2643 30.8668 86.7985 31.3331C86.3326 31.7995 85.701 32.0618 85.0422 32.0626Z" fill="#F2F2F2"/>
<path d="M87.2508 5.25171H76.2068V7.46292H87.2508V5.25171Z" fill="#CCCCCC"/>
<path d="M87.2508 22.3884H76.2068V24.5996H87.2508V22.3884Z" fill="#CCCCCC"/>
<path d="M101.608 32.0626H94.9817C94.3229 32.0618 93.6913 31.7995 93.2255 31.3331C92.7596 30.8668 92.4976 30.2345 92.4968 29.5749V2.48761C92.4976 1.82808 92.7596 1.19578 93.2255 0.729425C93.6913 0.263068 94.3229 0.000743275 94.9817 0H101.608C102.267 0.000743275 102.899 0.263068 103.364 0.729425C103.83 1.19578 104.092 1.82808 104.093 2.48761V29.5749C104.092 30.2345 103.83 30.8668 103.364 31.3331C102.899 31.7995 102.267 32.0618 101.608 32.0626Z" fill="#F2F2F2"/>
<path d="M103.817 5.25171H92.7729V7.46292H103.817V5.25171Z" fill="#CCCCCC"/>
<path d="M103.817 22.3884H92.7729V24.5996H103.817V22.3884Z" fill="#CCCCCC"/>
<path d="M110.443 76.8396H103.817C103.158 76.8389 102.527 76.5766 102.061 76.1102C101.595 75.6439 101.333 75.0116 101.332 74.352V47.2647C101.333 46.6052 101.595 45.9729 102.061 45.5065C102.527 45.0402 103.158 44.7778 103.817 44.7771H110.443C111.102 44.7778 111.734 45.0402 112.2 45.5065C112.665 45.9729 112.927 46.6052 112.928 47.2647V74.352C112.927 75.0116 112.665 75.6439 112.2 76.1102C111.734 76.5766 111.102 76.8389 110.443 76.8396Z" fill="#F2F2F2"/>
<path d="M112.652 50.0286H101.608V52.2398H112.652V50.0286Z" fill="#CCCCCC"/>
<path d="M112.652 67.1655H101.608V69.3767H112.652V67.1655Z" fill="#CCCCCC"/>
<path d="M127.009 76.8396H120.383C119.724 76.8389 119.092 76.5766 118.627 76.1102C118.161 75.6439 117.899 75.0116 117.898 74.352V47.2647C117.899 46.6052 118.161 45.9729 118.627 45.5065C119.092 45.0402 119.724 44.7778 120.383 44.7771H127.009C127.668 44.7778 128.3 45.0402 128.765 45.5065C129.231 45.9729 129.493 46.6052 129.494 47.2647V74.352C129.493 75.0116 129.231 75.6439 128.765 76.1102C128.3 76.5766 127.668 76.8389 127.009 76.8396Z" fill="#F2F2F2"/>
<path d="M129.218 50.0286H118.174V52.2398H129.218V50.0286Z" fill="#CCCCCC"/>
<path d="M129.218 67.1655H118.174V69.3767H129.218V67.1655Z" fill="#CCCCCC"/>
<path d="M143.575 76.8396H136.949C136.29 76.8389 135.658 76.5766 135.193 76.1102C134.727 75.6439 134.465 75.0116 134.464 74.352V47.2647C134.465 46.6052 134.727 45.9729 135.193 45.5065C135.658 45.0402 136.29 44.7778 136.949 44.7771H143.575C144.234 44.7778 144.866 45.0402 145.331 45.5065C145.797 45.9729 146.059 46.6052 146.06 47.2647V74.352C146.059 75.0116 145.797 75.6439 145.331 76.1102C144.866 76.5766 144.234 76.8389 143.575 76.8396Z" fill="#F2F2F2"/>
<path d="M145.784 50.0286H134.74V52.2398H145.784V50.0286Z" fill="#CCCCCC"/>
<path d="M145.784 67.1655H134.74V69.3767H145.784V67.1655Z" fill="#CCCCCC"/>
<path d="M66.8195 121.617H60.1931C59.5343 121.616 58.9027 121.353 58.4369 120.887C57.971 120.421 57.709 119.788 57.7083 119.129V92.0416C57.709 91.382 57.971 90.7497 58.4369 90.2834C58.9027 89.817 59.5343 89.5547 60.1931 89.554H66.8195C67.4783 89.5547 68.11 89.817 68.5758 90.2834C69.0417 90.7497 69.3037 91.382 69.3044 92.0416V119.129C69.3037 119.788 69.0417 120.421 68.5758 120.887C68.11 121.353 67.4783 121.616 66.8195 121.617Z" fill="#F2F2F2"/>
<path d="M69.0284 94.8057H57.9844V97.0169H69.0284V94.8057Z" fill="#CCCCCC"/>
<path d="M69.0284 111.943H57.9844V114.154H69.0284V111.943Z" fill="#CCCCCC"/>
<path d="M83.3855 121.617H76.7591C76.1003 121.616 75.4687 121.353 75.0028 120.887C74.537 120.421 74.2749 119.788 74.2742 119.129V92.0416C74.2749 91.382 74.537 90.7497 75.0028 90.2834C75.4687 89.817 76.1003 89.5547 76.7591 89.554H83.3855C84.0443 89.5547 84.6759 89.817 85.1417 90.2834C85.6076 90.7497 85.8696 91.382 85.8703 92.0416V119.129C85.8696 119.788 85.6076 120.421 85.1417 120.887C84.6759 121.353 84.0443 121.616 83.3855 121.617Z" fill="#F2F2F2"/>
<path d="M85.5943 94.8057H74.5503V97.0169H85.5943V94.8057Z" fill="#CCCCCC"/>
<path d="M85.5943 111.943H74.5503V114.154H85.5943V111.943Z" fill="#CCCCCC"/>
<path d="M99.9514 121.617H93.325C92.6662 121.616 92.0346 121.353 91.5687 120.887C91.1029 120.421 90.8408 119.788 90.8401 119.129V92.0416C90.8408 91.382 91.1029 90.7497 91.5687 90.2834C92.0346 89.817 92.6662 89.5547 93.325 89.554H99.9514C100.61 89.5547 101.242 89.817 101.708 90.2834C102.174 90.7497 102.436 91.382 102.436 92.0416V119.129C102.436 119.788 102.174 120.421 101.708 120.887C101.242 121.353 100.61 121.616 99.9514 121.617Z" fill="#F2F2F2"/>
<path d="M102.16 94.8057H91.1162V97.0169H102.16V94.8057Z" fill="#CCCCCC"/>
<path d="M102.16 111.943H91.1162V114.154H102.16V111.943Z" fill="#CCCCCC"/>
<path d="M118.174 32.0626H111.548C110.889 32.0618 110.257 31.7995 109.791 31.3331C109.326 30.8668 109.063 30.2345 109.063 29.5749V2.48761C109.063 1.82808 109.326 1.19578 109.791 0.729425C110.257 0.263068 110.889 0.000743275 111.548 0H118.174C118.833 0.000743275 119.464 0.263068 119.93 0.729425C120.396 1.19578 120.658 1.82808 120.659 2.48761V29.5749C120.658 30.2345 120.396 30.8668 119.93 31.3331C119.464 31.7995 118.833 32.0618 118.174 32.0626Z" fill="#F2F2F2"/>
<path d="M120.383 5.25171H109.339V7.46292H120.383V5.25171Z" fill="#CCCCCC"/>
<path d="M120.383 22.3884H109.339V24.5996H120.383V22.3884Z" fill="#CCCCCC"/>
<path d="M134.74 32.0626H128.114C127.455 32.0618 126.823 31.7995 126.357 31.3331C125.891 30.8668 125.629 30.2345 125.629 29.5749V2.48761C125.629 1.82808 125.891 1.19578 126.357 0.729425C126.823 0.263068 127.455 0.000743275 128.114 0H134.74C135.399 0.000743275 136.03 0.263068 136.496 0.729425C136.962 1.19578 137.224 1.82808 137.225 2.48761V29.5749C137.224 30.2345 136.962 30.8668 136.496 31.3331C136.03 31.7995 135.399 32.0618 134.74 32.0626Z" fill="#F2F2F2"/>
<path d="M136.949 5.25171H125.905V7.46292H136.949V5.25171Z" fill="#CCCCCC"/>
<path d="M136.949 22.3884H125.905V24.5996H136.949V22.3884Z" fill="#CCCCCC"/>
<path d="M151.306 32.0626H144.679C144.021 32.0618 143.389 31.7995 142.923 31.3331C142.457 30.8668 142.195 30.2345 142.195 29.5749V2.48761C142.195 1.82808 142.457 1.19578 142.923 0.729425C143.389 0.263068 144.021 0.000743275 144.679 0H151.306C151.965 0.000743275 152.596 0.263068 153.062 0.729425C153.528 1.19578 153.79 1.82808 153.791 2.48761V29.5749C153.79 30.2345 153.528 30.8668 153.062 31.3331C152.596 31.7995 151.965 32.0618 151.306 32.0626Z" fill="#F2F2F2"/>
<path d="M153.515 5.25171H142.471V7.46292H153.515V5.25171Z" fill="#CCCCCC"/>
<path d="M153.515 22.3884H142.471V24.5996H153.515V22.3884Z" fill="#CCCCCC"/>
<path d="M167.872 32.0626H161.246C160.587 32.0618 159.955 31.7995 159.489 31.3331C159.023 30.8668 158.761 30.2345 158.761 29.5749V2.48761C158.761 1.82808 159.023 1.19578 159.489 0.729425C159.955 0.263068 160.587 0.000743275 161.246 0H167.872C168.531 0.000743275 169.162 0.263068 169.628 0.729425C170.094 1.19578 170.356 1.82808 170.357 2.48761V29.5749C170.356 30.2345 170.094 30.8668 169.628 31.3331C169.162 31.7995 168.531 32.0618 167.872 32.0626Z" fill="#F2F2F2"/>
<path d="M170.081 5.25171H159.037V7.46292H170.081V5.25171Z" fill="#CCCCCC"/>
<path d="M170.081 22.3884H159.037V24.5996H170.081V22.3884Z" fill="#CCCCCC"/>
<path d="M192.688 32.8917H35.3115C35.165 32.8917 35.0246 32.8335 34.921 32.7298C34.8175 32.6261 34.7593 32.4855 34.7593 32.3389C34.7593 32.1923 34.8175 32.0517 34.921 31.948C35.0246 31.8444 35.165 31.7861 35.3115 31.7861H192.688C192.835 31.7861 192.975 31.8444 193.079 31.948C193.182 32.0517 193.24 32.1923 193.24 32.3389C193.24 32.4855 193.182 32.6261 193.079 32.7298C192.975 32.8335 192.835 32.8917 192.688 32.8917Z" fill="#CCCCCC"/>
<path d="M192.688 77.6688H35.3115C35.165 77.6688 35.0246 77.6106 34.921 77.5069C34.8175 77.4032 34.7593 77.2626 34.7593 77.116C34.7593 76.9694 34.8175 76.8288 34.921 76.7251C35.0246 76.6215 35.165 76.5632 35.3115 76.5632H192.688C192.835 76.5632 192.975 76.6215 193.079 76.7251C193.182 76.8288 193.24 76.9694 193.24 77.116C193.24 77.2626 193.182 77.4032 193.079 77.5069C192.975 77.6106 192.835 77.6688 192.688 77.6688Z" fill="#CCCCCC"/>
<path d="M192.688 122.446H35.3115C35.165 122.446 35.0246 122.387 34.921 122.284C34.8175 122.18 34.7593 122.039 34.7593 121.893C34.7593 121.746 34.8175 121.606 34.921 121.502C35.0246 121.398 35.165 121.34 35.3115 121.34H192.688C192.835 121.34 192.975 121.398 193.079 121.502C193.182 121.606 193.24 121.746 193.24 121.893C193.24 122.039 193.182 122.18 193.079 122.284C192.975 122.387 192.835 122.446 192.688 122.446Z" fill="#CCCCCC"/>
<path d="M183.368 209.226C183.368 204.952 167.299 201.487 147.475 201.487C127.652 201.487 111.583 204.952 111.583 209.226C111.583 211.965 118.189 214.37 128.148 215.746V258.149C128.148 259.102 128.527 260.016 129.2 260.69C129.873 261.364 130.786 261.742 131.738 261.742C132.69 261.742 133.603 261.364 134.276 260.69C134.949 260.016 135.327 259.102 135.327 258.149V216.51C139.122 216.804 143.211 216.965 147.475 216.965C151.74 216.965 155.829 216.804 159.624 216.51V258.149C159.624 259.102 160.002 260.016 160.675 260.69C161.348 261.364 162.261 261.742 163.213 261.742C164.165 261.742 165.078 261.364 165.751 260.69C166.424 260.016 166.802 259.102 166.802 258.149V215.746C176.762 214.37 183.368 211.965 183.368 209.226Z" fill="#CCCCCC"/>
<path d="M176.462 254.79H183.232L186.452 228.649H176.46L176.462 254.79Z" fill="#A0616A"/>
<path d="M196.288 261.083L175.011 261.083L175.011 252.854L188.067 252.853C190.247 252.853 192.338 253.72 193.88 255.263C195.422 256.807 196.288 258.9 196.288 261.082L196.288 261.083Z" fill="#2F2E41"/>
<path d="M187.03 251.008L193.489 248.979L188.744 223.072L179.211 226.066L187.03 251.008Z" fill="#A0616A"/>
<path d="M207.828 251.069L187.528 257.447L185.066 249.595L197.523 245.681C199.604 245.028 201.858 245.228 203.79 246.239C205.723 247.249 207.175 248.987 207.828 251.069Z" fill="#2F2E41"/>
<path d="M182.501 238.976L170.117 206.432C167.338 207.085 144.038 212.246 136.234 203.928C133.56 201.077 133.038 196.947 134.684 191.652L139.238 185.922L139.38 185.93C141.102 186.021 181.587 188.292 184.362 200.518C186.702 210.824 190.976 230.04 192.23 235.684C192.357 236.269 192.27 236.88 191.985 237.406C191.7 237.932 191.235 238.338 190.676 238.55L185.695 240.419C185.418 240.524 185.124 240.577 184.827 240.577C184.323 240.577 183.831 240.424 183.416 240.138C183 239.852 182.681 239.447 182.501 238.976Z" fill="#2F2E41"/>
<path d="M175.322 242.845L162.938 210.301C160.159 210.955 136.859 216.115 129.055 207.798C126.381 204.947 125.859 200.817 127.505 195.521L132.059 189.792L132.201 189.8C133.923 189.89 174.408 192.162 177.184 204.387C179.524 214.694 183.797 233.91 185.051 239.554C185.178 240.139 185.091 240.75 184.806 241.276C184.521 241.802 184.056 242.208 183.497 242.419L178.517 244.289C178.239 244.394 177.945 244.447 177.649 244.447C177.145 244.447 176.652 244.294 176.237 244.008C175.822 243.722 175.503 243.317 175.322 242.845Z" fill="#2F2E41"/>
<path d="M192.059 164.833C191.876 165.078 191.713 165.337 191.571 165.608L164.336 168.48L160.416 163.099L151.53 167.961L159.23 181.019L192.631 172.493C193.474 173.315 194.547 173.862 195.707 174.059C196.868 174.256 198.06 174.095 199.127 173.597C200.194 173.099 201.083 172.288 201.678 171.271C202.273 170.254 202.545 169.081 202.457 167.906C202.369 166.731 201.926 165.611 201.187 164.694C200.448 163.777 199.447 163.107 198.318 162.774C197.19 162.44 195.986 162.459 194.868 162.826C193.75 163.194 192.77 163.894 192.059 164.833V164.833Z" fill="#A0616A"/>
<path d="M127.33 197.24C126.957 196.971 126.666 196.604 126.489 196.18C126.311 195.755 126.255 195.29 126.325 194.836C127.862 184.696 126.094 170.17 124.34 159.77C123.981 157.66 124.121 155.495 124.748 153.449C125.375 151.402 126.473 149.531 127.952 147.986C129.431 146.44 131.252 145.263 133.267 144.548C135.283 143.834 137.437 143.602 139.559 143.871C141.404 144.115 143.232 144.475 145.032 144.951C148.022 145.705 150.667 147.454 152.532 149.913C154.397 152.371 155.371 155.391 155.293 158.477C155.031 168.512 157.067 181.034 157.954 185.952C158.015 186.289 158.005 186.636 157.926 186.97C157.847 187.304 157.699 187.618 157.494 187.892C157.292 188.164 157.036 188.39 156.741 188.557C156.447 188.724 156.121 188.827 155.784 188.86C145.951 189.864 135.346 194.665 129.9 197.437C129.55 197.618 129.162 197.713 128.769 197.714C128.251 197.713 127.747 197.547 127.33 197.24Z" fill="#20A4F3"/>
<path d="M153.875 171.086C153.571 170.966 153.293 170.788 153.059 170.56C152.825 170.333 152.637 170.061 152.509 169.761L147.025 157.078C146.693 156.312 146.515 155.487 146.501 154.652C146.487 153.817 146.638 152.987 146.945 152.211C147.252 151.434 147.708 150.725 148.289 150.125C148.869 149.525 149.562 149.046 150.328 148.714C151.093 148.382 151.917 148.205 152.751 148.192C153.586 148.179 154.414 148.33 155.19 148.638C155.965 148.946 156.673 149.404 157.272 149.985C157.871 150.567 158.349 151.261 158.68 152.028L164.164 164.71C164.425 165.316 164.435 166 164.193 166.613C163.951 167.227 163.475 167.719 162.871 167.981L155.776 171.056C155.477 171.186 155.155 171.256 154.828 171.262C154.502 171.267 154.178 171.207 153.875 171.086H153.875Z" fill="#20A4F3"/>
<path d="M166.106 163.727C165.923 163.972 165.759 164.231 165.617 164.502L138.383 167.374L134.462 161.993L125.577 166.855L133.277 179.913L166.678 171.387C167.521 172.21 168.594 172.756 169.754 172.953C170.914 173.15 172.107 172.989 173.174 172.491C174.24 171.993 175.13 171.182 175.725 170.165C176.32 169.149 176.591 167.975 176.504 166.8C176.416 165.625 175.973 164.505 175.234 163.588C174.494 162.671 173.494 162.002 172.365 161.668C171.236 161.334 170.033 161.353 168.915 161.721C167.797 162.088 166.817 162.788 166.106 163.727V163.727Z" fill="#A0616A"/>
<path d="M127.921 171.639C127.617 171.519 127.34 171.34 127.106 171.113C126.871 170.886 126.684 170.614 126.555 170.313L121.071 157.631C120.739 156.864 120.561 156.04 120.547 155.205C120.534 154.37 120.685 153.54 120.991 152.763C121.298 151.987 121.755 151.278 122.335 150.678C122.916 150.078 123.609 149.598 124.374 149.267C125.14 148.935 125.964 148.757 126.798 148.744C127.632 148.731 128.461 148.883 129.236 149.191C130.012 149.499 130.72 149.956 131.318 150.538C131.917 151.12 132.396 151.814 132.727 152.58L138.211 165.263C138.472 165.869 138.482 166.553 138.24 167.166C137.997 167.779 137.522 168.271 136.918 168.534L129.823 171.608C129.524 171.739 129.202 171.809 128.875 171.814C128.549 171.82 128.224 171.76 127.921 171.639H127.921Z" fill="#20A4F3"/>
<path d="M138.551 139.556C146.041 139.556 152.113 133.477 152.113 125.979C152.113 118.48 146.041 112.401 138.551 112.401C131.06 112.401 124.988 118.48 124.988 125.979C124.988 133.477 131.06 139.556 138.551 139.556Z" fill="#A0616A"/>
<path d="M128.854 135.297C128.796 135.127 128.777 134.945 128.8 134.767C128.822 134.588 128.886 134.417 128.985 134.266C129.084 134.116 129.216 133.99 129.371 133.899C129.526 133.807 129.699 133.753 129.879 133.739C130.246 133.759 130.606 133.853 130.935 134.016C131.265 134.179 131.559 134.407 131.798 134.687C132.289 135.253 132.861 135.745 133.494 136.145C134.15 136.476 135.04 136.428 135.414 135.797C135.765 135.205 135.525 134.411 135.312 133.722C134.771 131.971 134.468 130.154 134.412 128.321C134.351 126.276 134.639 124.141 135.77 122.546C137.23 120.487 139.841 119.705 142.311 119.762C144.782 119.818 147.212 120.582 149.659 121.064C150.504 121.231 151.497 121.316 152.062 120.661C152.663 119.964 152.443 118.836 152.187 117.895C151.524 115.453 150.82 112.928 149.279 110.956C147.614 108.906 145.234 107.565 142.62 107.202C140.11 106.891 137.562 107.18 135.186 108.047C131.314 109.269 127.907 111.644 125.421 114.857C122.858 118.273 121.751 122.566 122.341 126.797C122.918 130.483 124.868 133.812 127.8 136.115L128.854 135.297Z" fill="#2F2E41"/>
<path d="M77.0688 167.983C77.751 160.628 79.6352 153.435 82.6463 146.691C83.4855 144.814 84.4091 142.979 85.4173 141.185C85.4678 141.091 85.48 140.981 85.4512 140.878C85.4224 140.776 85.3549 140.688 85.263 140.635C85.1711 140.581 85.0619 140.565 84.9584 140.59C84.855 140.615 84.7654 140.68 84.7085 140.77C81.0423 147.305 78.4739 154.398 77.1059 161.767C76.7254 163.824 76.4394 165.897 76.2479 167.983C76.1993 168.51 77.0204 168.506 77.0688 167.983Z" fill="#3F3D56"/>
<path d="M87.4044 142.503C90.2755 142.503 92.6031 140.173 92.6031 137.299C92.6031 134.424 90.2755 132.094 87.4044 132.094C84.5333 132.094 82.2058 134.424 82.2058 137.299C82.2058 140.173 84.5333 142.503 87.4044 142.503Z" fill="#20A4F3"/>
<path d="M77.5998 168.122C78.0424 163.35 79.2648 158.684 81.2182 154.309C81.7626 153.091 82.3618 151.9 83.0158 150.736C83.0486 150.676 83.0565 150.604 83.0379 150.538C83.0192 150.471 82.9754 150.414 82.9158 150.379C82.8561 150.345 82.7853 150.334 82.7182 150.351C82.6511 150.367 82.5929 150.409 82.556 150.467C80.1776 154.707 78.5113 159.309 77.6239 164.089C77.377 165.424 77.1915 166.768 77.0673 168.122C77.0357 168.463 77.5684 168.461 77.5998 168.122Z" fill="#3F3D56"/>
<path d="M84.3052 151.591C86.1678 151.591 87.6778 150.08 87.6778 148.215C87.6778 146.35 86.1678 144.839 84.3052 144.839C82.4426 144.839 80.9326 146.35 80.9326 148.215C80.9326 150.08 82.4426 151.591 84.3052 151.591Z" fill="#20A4F3"/>
<path d="M76.9285 167.803C74.3458 163.768 72.4425 159.336 71.2947 154.684C70.976 153.389 70.7169 152.081 70.5174 150.76C70.5059 150.692 70.4684 150.631 70.4127 150.59C70.3571 150.549 70.2877 150.531 70.2193 150.54C70.1508 150.55 70.0886 150.585 70.0457 150.639C70.0029 150.694 69.9828 150.762 69.9896 150.831C70.7188 155.638 72.2323 160.293 74.4696 164.608C75.0951 165.813 75.7748 166.987 76.5086 168.131C76.6935 168.42 77.1122 168.09 76.9285 167.803Z" fill="#3F3D56"/>
<path d="M69.9854 151.354C71.848 151.354 73.358 149.843 73.358 147.978C73.358 146.113 71.848 144.602 69.9854 144.602C68.1227 144.602 66.6128 146.113 66.6128 147.978C66.6128 149.843 68.1227 151.354 69.9854 151.354Z" fill="#20A4F3"/>
<path d="M66.574 170.79V164.157C66.5747 163.497 66.8368 162.865 67.3026 162.398C67.7685 161.932 68.4001 161.67 69.0589 161.669H84.5204C85.1792 161.67 85.8109 161.932 86.2767 162.398C86.7426 162.865 87.0046 163.497 87.0053 164.157V170.79C87.0046 171.45 86.7426 172.082 86.2767 172.548C85.8109 173.015 85.1792 173.277 84.5204 173.278H69.0589C68.4001 173.277 67.7685 173.015 67.3026 172.548C66.8368 172.082 66.5747 171.45 66.574 170.79Z" fill="#CCCCCC"/>
<path d="M205.18 168.871H161.557C160.489 168.871 159.624 169.738 159.624 170.806C159.624 171.875 160.489 172.741 161.557 172.741H205.18C206.248 172.741 207.113 171.875 207.113 170.806C207.113 169.738 206.248 168.871 205.18 168.871Z" fill="#CCCCCC"/>
<path d="M234.447 172.741H185.301C184.35 172.74 183.437 172.361 182.764 171.687C182.091 171.014 181.713 170.1 181.712 169.148V142.061C181.713 141.108 182.091 140.195 182.764 139.521C183.437 138.847 184.35 138.468 185.301 138.467H234.447C235.398 138.468 236.311 138.847 236.984 139.521C237.657 140.195 238.035 141.108 238.036 142.061V169.148C238.035 170.1 237.657 171.014 236.984 171.687C236.311 172.361 235.398 172.74 234.447 172.741Z" fill="#CCCCCC"/>
<path d="M209.874 158.921C211.704 158.921 213.187 157.436 213.187 155.604C213.187 153.772 211.704 152.287 209.874 152.287C208.044 152.287 206.561 153.772 206.561 155.604C206.561 157.436 208.044 158.921 209.874 158.921Z" fill="white"/>
<path d="M359.52 209.226C359.52 204.952 343.45 201.487 323.627 201.487C303.804 201.487 287.734 204.952 287.734 209.226C287.734 211.965 294.341 214.37 304.3 215.746V258.149C304.3 259.102 304.678 260.016 305.351 260.69C306.025 261.364 306.937 261.742 307.889 261.742C308.841 261.742 309.754 261.364 310.427 260.69C311.101 260.016 311.479 259.102 311.479 258.149V216.51C315.273 216.804 319.362 216.965 323.627 216.965C327.892 216.965 331.981 216.804 335.775 216.51V258.149C335.775 259.102 336.154 260.016 336.827 260.69C337.5 261.364 338.413 261.742 339.365 261.742C340.317 261.742 341.23 261.364 341.903 260.69C342.576 260.016 342.954 259.102 342.954 258.149V215.746C352.913 214.37 359.52 211.965 359.52 209.226Z" fill="#CCCCCC"/>
<path d="M327.596 138.388C336.135 138.388 343.057 131.458 343.057 122.91C343.057 114.361 336.135 107.431 327.596 107.431C319.057 107.431 312.134 114.361 312.134 122.91C312.134 131.458 319.057 138.388 327.596 138.388Z" fill="#2F2E41"/>
<path d="M289.119 255.343H282.349L279.128 229.202H289.12L289.119 255.343Z" fill="#FFB8B8"/>
<path d="M277.514 253.406H290.57V261.636H269.293C269.293 260.555 269.506 259.485 269.919 258.486C270.332 257.488 270.937 256.581 271.701 255.817C272.464 255.052 273.37 254.446 274.368 254.033C275.365 253.619 276.434 253.406 277.514 253.406Z" fill="#2F2E41"/>
<path d="M278.55 251.561L272.091 249.531L276.836 223.624L286.369 226.619L278.55 251.561Z" fill="#FFB8B8"/>
<path d="M268.057 246.234L280.515 250.148L278.053 257.999L257.753 251.622C258.076 250.591 258.599 249.634 259.292 248.805C259.984 247.976 260.834 247.292 261.79 246.791C262.747 246.291 263.793 245.984 264.869 245.889C265.944 245.793 267.027 245.91 268.057 246.234Z" fill="#2F2E41"/>
<path d="M280.754 241.13C280.457 241.13 280.163 241.077 279.886 240.972L274.905 239.103C274.346 238.891 273.882 238.485 273.596 237.959C273.311 237.433 273.224 236.822 273.351 236.237C274.605 230.593 278.879 211.377 281.219 201.071C283.994 188.845 324.479 186.574 326.201 186.483L326.343 186.475L330.897 192.205C332.543 197.5 332.021 201.63 329.347 204.481C321.543 212.799 298.243 207.638 295.465 206.985L283.08 239.529C282.9 240 282.581 240.405 282.165 240.691C281.75 240.977 281.258 241.13 280.754 241.13Z" fill="#2F2E41"/>
<path d="M287.932 245C287.636 245 287.342 244.946 287.064 244.842L282.084 242.972C281.525 242.76 281.06 242.354 280.775 241.829C280.49 241.303 280.403 240.691 280.53 240.107C281.784 234.463 286.057 215.247 288.397 204.94C291.173 192.715 331.658 190.443 333.38 190.352L333.522 190.345L338.076 196.074C339.722 201.369 339.2 205.5 336.526 208.351C328.722 216.668 305.422 211.507 302.643 210.854L290.259 243.398C290.079 243.869 289.76 244.275 289.344 244.561C288.929 244.847 288.436 245 287.932 245Z" fill="#2F2E41"/>
<path d="M273.523 165.385C273.706 165.63 273.869 165.89 274.011 166.16L301.246 169.033L305.166 163.652L314.052 168.513L306.352 181.571L272.951 173.046C272.108 173.868 271.035 174.414 269.875 174.611C268.714 174.809 267.522 174.648 266.455 174.15C265.388 173.652 264.499 172.84 263.904 171.824C263.309 170.807 263.037 169.633 263.125 168.458C263.213 167.284 263.656 166.163 264.395 165.247C265.134 164.33 266.135 163.66 267.264 163.327C268.392 162.993 269.596 163.011 270.714 163.379C271.832 163.747 272.812 164.447 273.523 165.385Z" fill="#FFB8B8"/>
<path d="M336.812 198.267C336.418 198.266 336.03 198.171 335.68 197.99C330.234 195.218 319.629 190.417 309.796 189.413C309.459 189.379 309.133 189.276 308.839 189.11C308.545 188.943 308.288 188.717 308.087 188.445C307.881 188.171 307.734 187.857 307.654 187.523C307.575 187.189 307.566 186.842 307.626 186.504C308.513 181.587 310.549 169.065 310.287 159.029C310.21 155.944 311.183 152.924 313.048 150.465C314.913 148.007 317.558 146.257 320.548 145.504C322.348 145.028 324.176 144.667 326.022 144.423C328.143 144.154 330.298 144.386 332.313 145.101C334.329 145.816 336.149 146.993 337.628 148.538C339.108 150.084 340.205 151.955 340.832 154.001C341.459 156.048 341.599 158.213 341.24 160.323C339.486 170.723 337.718 185.249 339.255 195.389C339.325 195.843 339.269 196.308 339.092 196.732C338.914 197.157 338.623 197.524 338.251 197.793C337.833 198.099 337.329 198.265 336.812 198.267Z" fill="#20A4F3"/>
<path d="M310.791 171.815C310.452 171.814 310.116 171.744 309.804 171.608L302.71 168.534C302.106 168.271 301.63 167.779 301.388 167.166C301.145 166.553 301.156 165.869 301.417 165.263L306.901 152.58C307.232 151.814 307.71 151.12 308.309 150.538C308.908 149.956 309.615 149.499 310.391 149.191C311.167 148.883 311.995 148.731 312.829 148.744C313.664 148.757 314.487 148.935 315.253 149.267C316.019 149.598 316.712 150.078 317.292 150.678C317.872 151.278 318.329 151.987 318.636 152.763C318.943 153.54 319.094 154.37 319.08 155.205C319.066 156.04 318.888 156.864 318.556 157.631L313.072 170.313C312.879 170.759 312.56 171.138 312.155 171.405C311.75 171.671 311.276 171.814 310.791 171.815Z" fill="#20A4F3"/>
<path d="M327.031 140.109C334.521 140.109 340.594 134.03 340.594 126.532C340.594 119.033 334.521 112.954 327.031 112.954C319.541 112.954 313.469 119.033 313.469 126.532C313.469 134.03 319.541 140.109 327.031 140.109Z" fill="#FFB8B8"/>
<path d="M313.224 119.861C319.648 123.787 326.891 126.176 334.388 126.842L332.157 124.166C333.781 124.767 335.49 125.107 337.221 125.173C338.95 125.146 340.761 124.479 341.742 123.054C342.179 122.346 342.439 121.542 342.499 120.712C342.559 119.881 342.418 119.048 342.087 118.284C341.407 116.76 340.349 115.435 339.013 114.436C336.645 112.561 333.851 111.302 330.879 110.77C327.908 110.238 324.851 110.451 321.981 111.389C320.012 111.978 318.249 113.11 316.894 114.656C315.608 116.244 313.133 117.658 313.791 119.593L313.224 119.861Z" fill="#2F2E41"/>
<path d="M329.311 108.904C325.034 104.561 319.857 101.21 314.146 99.0863C310.48 97.7267 306.49 96.8867 302.658 97.6588C298.825 98.4309 295.201 101.085 294.132 104.85C293.257 107.928 294.16 111.242 295.517 114.14C296.874 117.037 298.685 119.724 299.782 122.73C300.902 125.797 301.239 129.095 300.762 132.326C300.285 135.556 299.01 138.616 297.052 141.228C295.095 143.839 292.516 145.92 289.552 147.282C286.587 148.643 283.329 149.241 280.075 149.023C283.841 149.528 287.312 151.3 290.992 152.243C294.673 153.186 299.017 153.122 301.753 150.482C304.647 147.689 304.705 143.148 304.565 139.126L303.941 121.19C303.835 118.141 303.744 114.995 304.842 112.149C305.941 109.303 308.551 106.811 311.598 106.837C313.908 106.857 315.952 108.257 317.804 109.639C319.657 111.02 321.617 112.494 323.918 112.699C326.218 112.905 328.845 111.2 328.673 108.895" fill="#2F2E41"/>
<path d="M266.269 155.386L297.498 156.124L302.022 189.544L273.182 190.192L266.269 155.386Z" fill="#E6E6E6"/>
<path d="M299.476 164.28C299.659 164.525 299.823 164.784 299.965 165.055L327.199 167.927L331.12 162.546L340.005 167.408L332.305 180.466L298.904 171.94C298.061 172.762 296.988 173.309 295.828 173.506C294.668 173.703 293.475 173.542 292.408 173.044C291.342 172.546 290.452 171.735 289.857 170.718C289.262 169.701 288.991 168.528 289.078 167.353C289.166 166.178 289.609 165.058 290.348 164.141C291.088 163.224 292.088 162.554 293.217 162.221C294.346 161.887 295.549 161.906 296.667 162.273C297.785 162.641 298.765 163.341 299.476 164.28V164.28Z" fill="#FFB8B8"/>
<path d="M336.744 172.368C336.405 172.367 336.069 172.297 335.758 172.161L328.663 169.087C328.059 168.824 327.584 168.332 327.341 167.719C327.099 167.106 327.109 166.422 327.37 165.816L332.854 153.133C333.185 152.367 333.663 151.673 334.262 151.091C334.861 150.509 335.569 150.052 336.344 149.744C337.12 149.436 337.949 149.284 338.783 149.297C339.617 149.31 340.441 149.488 341.206 149.82C341.972 150.151 342.665 150.631 343.245 151.231C343.826 151.831 344.283 152.54 344.589 153.316C344.896 154.093 345.047 154.923 345.033 155.758C345.02 156.593 344.842 157.417 344.51 158.184L339.025 170.866C338.832 171.312 338.514 171.691 338.109 171.958C337.703 172.224 337.229 172.367 336.744 172.368Z" fill="#20A4F3"/>
<path d="M272.549 172.188H52.7734C51.8214 172.188 50.9085 172.567 50.2354 173.241C49.5622 173.915 49.1841 174.828 49.1841 175.781C49.1841 176.734 49.5622 177.648 50.2354 178.322C50.9085 178.996 51.8214 179.375 52.7734 179.375H59.1237V257.596C59.1237 258.549 59.5018 259.463 60.1749 260.137C60.8481 260.811 61.761 261.189 62.713 261.189C63.6649 261.189 64.5778 260.811 65.251 260.137C65.9241 259.463 66.3022 258.549 66.3022 257.596V186.279L106.542 259.292C107.019 260.115 107.802 260.716 108.721 260.961C109.639 261.206 110.618 261.077 111.441 260.601C112.264 260.125 112.865 259.342 113.112 258.423C113.359 257.504 113.232 256.524 112.758 255.699L70.6942 179.375H262.885V179.421L220.847 255.699C220.371 256.524 220.242 257.505 220.488 258.425C220.734 259.346 221.336 260.131 222.16 260.607C222.985 261.084 223.964 261.213 224.884 260.966C225.803 260.72 226.587 260.117 227.063 259.292L262.885 194.295V257.596C262.885 258.549 263.263 259.463 263.936 260.137C264.609 260.811 265.522 261.189 266.474 261.189C267.426 261.189 268.339 260.811 269.012 260.137C269.685 259.463 270.064 258.549 270.064 257.596V181.269L271.108 179.375H272.549C273.5 179.375 274.413 178.996 275.087 178.322C275.76 177.648 276.138 176.734 276.138 175.781C276.138 174.828 275.76 173.915 275.087 173.241C274.413 172.567 273.5 172.188 272.549 172.188Z" fill="#3F3D56"/>
<path d="M408.342 262H0.657302C0.483253 262 0.31651 261.93 0.193617 261.807C0.0707241 261.683 0.00170898 261.516 0.00170898 261.342C0.00170898 261.168 0.0707241 261 0.193617 260.877C0.31651 260.754 0.483253 260.684 0.657302 260.684H408.342C408.517 260.684 408.684 260.753 408.807 260.876C408.931 261 409 261.167 409 261.342C409 261.516 408.931 261.684 408.807 261.807C408.684 261.931 408.517 262 408.342 262Z" fill="#3F3D56"/>
</svg>
