<svg width="569" height="322" viewBox="0 0 569 322" fill="none" xmlns="http://www.w3.org/2000/svg">
<g clip-path="url(#clip0)">
<path d="M493.503 157.951H125.856C120.522 157.945 115.407 155.822 111.636 152.05C107.864 148.277 105.742 143.161 105.736 137.826V20.125C105.742 14.7894 107.864 9.674 111.636 5.90113C115.407 2.12827 120.522 0.00602712 125.856 0H493.503C498.837 0.00602712 503.951 2.12827 507.723 5.90113C511.495 9.674 513.617 14.7894 513.623 20.125V137.826C513.617 143.161 511.495 148.277 507.723 152.05C503.951 155.822 498.837 157.945 493.503 157.951Z" fill="#E6E6E6"/>
<path d="M126.465 7.92822C123.233 7.93191 120.133 9.21812 117.847 11.5047C115.561 13.7913 114.275 16.8915 114.271 20.1252V137.826C114.275 141.06 115.561 144.16 117.847 146.446C120.133 148.733 123.233 150.019 126.465 150.023H494.112C497.345 150.019 500.445 148.733 502.731 146.446C505.017 144.16 506.303 141.06 506.306 137.826V20.1252C506.303 16.8915 505.017 13.7913 502.731 11.5047C500.445 9.21811 497.345 7.9319 494.112 7.92822H126.465Z" fill="white"/>
<path d="M172.585 57.1663C169.943 57.1663 167.361 56.3828 165.165 54.9148C162.968 53.4468 161.256 51.3603 160.245 48.9191C159.234 46.4779 158.97 43.7917 159.485 41.2002C160.001 38.6087 161.273 36.2282 163.141 34.3598C165.008 32.4914 167.388 31.219 169.979 30.7035C172.57 30.188 175.256 30.4526 177.696 31.4637C180.137 32.4749 182.223 34.1873 183.69 36.3843C185.158 38.5813 185.941 41.1642 185.941 43.8065C185.937 47.3486 184.529 50.7444 182.025 53.249C179.521 55.7536 176.126 57.1624 172.585 57.1663ZM172.585 32.2281C170.296 32.2281 168.058 32.9072 166.154 34.1794C164.25 35.4517 162.767 37.26 161.891 39.3757C161.014 41.4914 160.785 43.8194 161.232 46.0654C161.678 48.3114 162.781 50.3745 164.4 51.9938C166.019 53.6131 168.081 54.7158 170.327 55.1626C172.572 55.6093 174.9 55.38 177.015 54.5037C179.13 53.6273 180.938 52.1433 182.21 50.2392C183.482 48.3352 184.161 46.0966 184.161 43.8066C184.157 40.7368 182.936 37.7938 180.766 35.6232C178.596 33.4526 175.654 32.2316 172.585 32.2281Z" fill="#CCCCCC"/>
<path d="M172.289 40.7748H172.265L170.855 41.5359L170.643 40.7L172.414 39.752H173.35V47.8617H172.289V40.7748Z" fill="#CCCCCC"/>
<path d="M154.351 78.7345C154.665 78.7454 154.976 78.6613 155.242 78.4933C155.508 78.3253 155.718 78.0811 155.843 77.7924C155.968 77.5037 156.004 77.1839 155.945 76.8747C155.887 76.5654 155.736 76.281 155.514 76.0584C155.291 75.8358 155.007 75.6854 154.698 75.6267C154.389 75.5679 154.069 75.6036 153.78 75.7291C153.492 75.8546 153.247 76.064 153.079 76.3302C152.911 76.5964 152.827 76.907 152.838 77.2216C152.852 77.6184 153.016 77.9953 153.297 78.2761C153.577 78.5569 153.954 78.7207 154.351 78.7345Z" fill="#E6E6E6"/>
<path d="M154.351 88.5314C154.665 88.5423 154.976 88.4582 155.242 88.2902C155.508 88.1222 155.718 87.8779 155.843 87.5893C155.968 87.3006 156.004 86.9808 155.945 86.6715C155.887 86.3623 155.736 86.0779 155.514 85.8553C155.291 85.6327 155.007 85.4823 154.698 85.4235C154.389 85.3648 154.069 85.4005 153.78 85.526C153.492 85.6515 153.247 85.8609 153.079 86.1271C152.911 86.3933 152.827 86.7038 152.838 87.0184C152.852 87.4153 153.016 87.7922 153.297 88.073C153.577 88.3538 153.954 88.5176 154.351 88.5314Z" fill="#E6E6E6"/>
<path d="M154.351 98.3287C154.665 98.3396 154.976 98.2556 155.242 98.0876C155.508 97.9196 155.718 97.6753 155.843 97.3866C155.968 97.0979 156.004 96.7782 155.945 96.4689C155.887 96.1597 155.736 95.8752 155.514 95.6527C155.291 95.4301 155.007 95.2796 154.698 95.2209C154.389 95.1622 154.069 95.1979 153.78 95.3233C153.492 95.4488 153.247 95.6583 153.079 95.9244C152.911 96.1906 152.827 96.5012 152.838 96.8158C152.852 97.2127 153.016 97.5896 153.297 97.8704C153.577 98.1512 153.954 98.315 154.351 98.3287Z" fill="#E6E6E6"/>
<path d="M191.441 78.0577H162.947C162.711 78.0577 162.484 77.9638 162.317 77.7968C162.15 77.6298 162.056 77.4032 162.056 77.167C162.056 76.9308 162.15 76.7043 162.317 76.5372C162.484 76.3702 162.711 76.2764 162.947 76.2764H191.441C191.677 76.2764 191.903 76.3702 192.07 76.5372C192.237 76.7043 192.331 76.9308 192.331 77.167C192.331 77.4032 192.237 77.6298 192.07 77.7968C191.903 77.9638 191.677 78.0577 191.441 78.0577H191.441Z" fill="#E6E6E6"/>
<path d="M191.441 87.855H162.947C162.711 87.8553 162.484 87.7617 162.317 87.5948C162.15 87.428 162.056 87.2015 162.056 86.9653C162.055 86.7291 162.149 86.5025 162.316 86.3353C162.483 86.168 162.709 86.074 162.945 86.0737H191.441C191.677 86.0735 191.904 86.1671 192.071 86.3339C192.238 86.5008 192.332 86.7272 192.332 86.9634C192.332 87.1996 192.239 87.4263 192.072 87.5935C191.905 87.7607 191.679 87.8548 191.443 87.855H191.441Z" fill="#E6E6E6"/>
<path d="M191.441 97.6519H162.947C162.711 97.6519 162.484 97.5581 162.317 97.391C162.15 97.224 162.056 96.9975 162.056 96.7613C162.056 96.525 162.15 96.2985 162.317 96.1315C162.484 95.9644 162.711 95.8706 162.947 95.8706H191.441C191.557 95.8705 191.673 95.8934 191.781 95.938C191.889 95.9827 191.988 96.0482 192.07 96.1308C192.153 96.2134 192.219 96.3115 192.264 96.4195C192.309 96.5275 192.332 96.6433 192.332 96.7603C192.332 96.8773 192.309 96.9931 192.264 97.1012C192.22 97.2093 192.154 97.3076 192.072 97.3904C191.989 97.4732 191.891 97.5389 191.783 97.5837C191.675 97.6286 191.559 97.6518 191.442 97.6519H191.441Z" fill="#E6E6E6"/>
<path d="M255.316 55.3368C252.674 55.3368 250.092 54.5532 247.895 53.0852C245.699 51.6172 243.987 49.5307 242.976 47.0895C241.965 44.6483 241.701 41.9621 242.216 39.3706C242.731 36.7791 244.004 34.3986 245.871 32.5302C247.739 30.6618 250.119 29.3894 252.71 28.8739C255.301 28.3584 257.987 28.623 260.427 29.6341C262.868 30.6453 264.954 32.3577 266.421 34.5547C267.889 36.7517 268.672 39.3347 268.672 41.977C268.672 43.7314 268.327 45.4687 267.656 47.0895C266.985 48.7104 266.001 50.1832 264.76 51.4238C263.52 52.6643 262.048 53.6484 260.427 54.3198C258.807 54.9912 257.07 55.3368 255.316 55.3368ZM255.316 30.3985C253.026 30.3985 250.788 31.0776 248.885 32.3498C246.981 33.6221 245.498 35.4304 244.621 37.5461C243.745 39.6617 243.516 41.9898 243.963 44.2358C244.409 46.4818 245.512 48.5449 247.131 50.1642C248.75 51.7835 250.812 52.8862 253.058 53.333C255.303 53.7798 257.631 53.5505 259.746 52.6741C261.861 51.7978 263.669 50.3137 264.941 48.4097C266.213 46.5056 266.892 44.267 266.892 41.977V41.977C266.888 38.9073 265.667 35.9643 263.497 33.7937C261.327 31.6231 258.385 30.402 255.316 30.3985V30.3985Z" fill="#CCCCCC"/>
<path d="M252.953 46.1009V45.4268L253.813 44.591C255.884 42.6201 256.82 41.5711 256.832 40.3491C256.854 40.1334 256.828 39.9156 256.754 39.7116C256.681 39.5076 256.563 39.3227 256.408 39.1706C256.254 39.0186 256.067 38.9032 255.862 38.833C255.657 38.7628 255.439 38.7397 255.224 38.7652C254.588 38.7886 253.98 39.0307 253.502 39.4506L253.152 38.6774C253.797 38.141 254.61 37.8493 255.448 37.8537C255.77 37.825 256.095 37.8653 256.401 37.972C256.707 38.0786 256.986 38.2491 257.221 38.4722C257.456 38.6952 257.64 38.9657 257.763 39.2656C257.885 39.5655 257.942 39.888 257.93 40.2117C257.93 41.7085 256.844 42.9193 255.136 44.5658L254.487 45.165V45.1894H258.13V46.1009H252.953Z" fill="#CCCCCC"/>
<path d="M290.678 126.827H219.953C218.498 126.826 217.104 126.247 216.075 125.218C215.046 124.189 214.467 122.794 214.466 121.339V79.2591C214.467 77.804 215.046 76.4089 216.075 75.3799C217.104 74.351 218.498 73.7722 219.953 73.7705H290.678C292.133 73.7722 293.527 74.351 294.556 75.3799C295.585 76.4089 296.164 77.804 296.165 79.2591V121.339C296.164 122.794 295.585 124.189 294.556 125.218C293.527 126.247 292.133 126.826 290.678 126.827Z" fill="white"/>
<path d="M279.358 85.1578H231.274C231.038 85.158 230.812 85.0644 230.645 84.8976C230.477 84.7307 230.383 84.5043 230.383 84.2681C230.383 84.0319 230.476 83.8052 230.643 83.638C230.81 83.4708 231.036 83.3767 231.273 83.3765H279.358C279.594 83.3762 279.82 83.4698 279.988 83.6366C280.155 83.8035 280.249 84.03 280.249 84.2662C280.249 84.5024 280.156 84.729 279.989 84.8962C279.822 85.0634 279.596 85.1575 279.36 85.1578H279.358Z" fill="#E6E6E6"/>
<path d="M279.358 93.1734H231.274C231.038 93.1737 230.812 93.0801 230.645 92.9132C230.477 92.7463 230.383 92.5199 230.383 92.2837C230.383 92.0475 230.476 91.8208 230.643 91.6536C230.81 91.4864 231.036 91.3923 231.273 91.3921H279.358C279.594 91.3921 279.82 91.4859 279.987 91.6529C280.154 91.82 280.248 92.0465 280.248 92.2827C280.248 92.519 280.154 92.7455 279.987 92.9125C279.82 93.0796 279.594 93.1734 279.358 93.1734H279.358Z" fill="#E6E6E6"/>
<path d="M279.358 101.189H231.274C231.038 101.19 230.812 101.096 230.645 100.929C230.477 100.762 230.383 100.536 230.383 100.3C230.383 100.064 230.476 99.8369 230.643 99.6697C230.81 99.5025 231.036 99.4085 231.273 99.4082H279.358C279.594 99.408 279.82 99.5015 279.988 99.6684C280.155 99.8352 280.249 100.062 280.249 100.298C280.249 100.534 280.156 100.761 279.989 100.928C279.822 101.095 279.596 101.189 279.36 101.189H279.358Z" fill="#E6E6E6"/>
<path d="M279.357 109.205H231.274C231.038 109.205 230.812 109.111 230.645 108.944C230.479 108.777 230.385 108.551 230.385 108.315C230.385 108.08 230.478 107.853 230.644 107.686C230.81 107.519 231.036 107.425 231.272 107.424H279.357C279.593 107.424 279.819 107.519 279.985 107.686C280.152 107.852 280.245 108.079 280.245 108.314C280.245 108.55 280.152 108.776 279.985 108.943C279.819 109.11 279.593 109.205 279.357 109.205H279.357Z" fill="#E6E6E6"/>
<path d="M279.357 117.221H231.274C231.038 117.221 230.811 117.127 230.644 116.96C230.477 116.793 230.384 116.567 230.384 116.331C230.384 116.094 230.477 115.868 230.644 115.701C230.811 115.534 231.038 115.44 231.274 115.44H279.357C279.593 115.44 279.82 115.533 279.987 115.7C280.154 115.867 280.248 116.093 280.249 116.33C280.249 116.566 280.155 116.792 279.988 116.96C279.822 117.127 279.595 117.221 279.359 117.221H279.357Z" fill="#E6E6E6"/>
<path d="M290.678 126.827H219.953C218.498 126.826 217.104 126.247 216.075 125.218C215.046 124.189 214.467 122.794 214.466 121.339V79.2591C214.467 77.804 215.046 76.4089 216.075 75.3799C217.104 74.351 218.498 73.7722 219.953 73.7705H290.678C292.133 73.7722 293.527 74.351 294.556 75.3799C295.585 76.4089 296.164 77.804 296.165 79.2591V121.339C296.164 122.794 295.585 124.189 294.556 125.218C293.527 126.247 292.133 126.826 290.678 126.827ZM219.953 74.9902C218.822 74.9915 217.737 75.4416 216.937 76.2419C216.137 77.0423 215.686 78.1273 215.685 79.2591V121.339C215.686 122.47 216.137 123.556 216.937 124.356C217.737 125.156 218.822 125.606 219.953 125.608H290.678C291.809 125.606 292.894 125.156 293.694 124.356C294.494 123.556 294.945 122.47 294.946 121.339V79.2591C294.945 78.1273 294.494 77.0423 293.694 76.2419C292.894 75.4416 291.809 74.9915 290.678 74.9902H219.953Z" fill="#E6E6E6"/>
<path d="M344.802 55.3368C342.16 55.3368 339.578 54.5532 337.381 53.0852C335.185 51.6172 333.473 49.5307 332.462 47.0895C331.451 44.6483 331.187 41.9621 331.702 39.3706C332.217 36.7791 333.489 34.3986 335.357 32.5302C337.225 30.6618 339.605 29.3894 342.196 28.8739C344.787 28.3584 347.473 28.623 349.913 29.6341C352.354 30.6453 354.44 32.3577 355.907 34.5547C357.375 36.7517 358.158 39.3347 358.158 41.977C358.158 45.5202 356.751 48.9183 354.246 51.4238C351.741 53.9292 348.344 55.3368 344.802 55.3368ZM344.802 30.3985C342.512 30.3985 340.274 31.0776 338.371 32.3498C336.467 33.6221 334.983 35.4304 334.107 37.5461C333.231 39.6617 333.002 41.9898 333.449 44.2358C333.895 46.4818 334.998 48.5449 336.617 50.1642C338.235 51.7835 340.298 52.8862 342.543 53.333C344.789 53.7798 347.116 53.5505 349.231 52.6741C351.347 51.7978 353.155 50.3137 354.426 48.4097C355.698 46.5056 356.377 44.267 356.377 41.977V41.977C356.374 38.9073 355.153 35.9643 352.983 33.7937C350.813 31.6231 347.871 30.4021 344.802 30.3985V30.3985Z" fill="#CCCCCC"/>
<path d="M342.569 44.7716C343.114 45.0938 343.732 45.27 344.365 45.283C345.775 45.283 346.212 44.3845 346.199 43.7113C346.187 42.5754 345.163 42.0892 344.104 42.0892H343.492V41.2655H344.104C344.902 41.2655 345.913 40.8541 345.913 39.893C345.913 39.2442 345.501 38.6701 344.49 38.6701C343.909 38.6865 343.345 38.8734 342.869 39.2077L342.582 38.4092C343.213 37.9982 343.95 37.7811 344.702 37.7847C346.299 37.7847 347.022 38.7328 347.022 39.7191C347.014 40.1567 346.863 40.5797 346.593 40.924C346.323 41.2683 345.948 41.5153 345.525 41.6274V41.6526C346.026 41.7252 346.485 41.9754 346.817 42.3578C347.149 42.7402 347.332 43.2293 347.334 43.7357C347.334 45.0334 346.323 46.1693 344.378 46.1693C343.639 46.1789 342.911 45.989 342.27 45.6197L342.569 44.7716Z" fill="#CCCCCC"/>
<path d="M325.066 115.074C325.381 115.085 325.691 115.001 325.957 114.833C326.223 114.665 326.433 114.42 326.558 114.132C326.684 113.843 326.719 113.523 326.661 113.214C326.602 112.905 326.451 112.62 326.229 112.398C326.006 112.175 325.722 112.025 325.413 111.966C325.104 111.907 324.784 111.943 324.495 112.068C324.207 112.194 323.963 112.403 323.795 112.67C323.627 112.936 323.543 113.246 323.553 113.561C323.567 113.958 323.731 114.335 324.012 114.615C324.292 114.896 324.669 115.06 325.066 115.074Z" fill="#E6E6E6"/>
<path d="M362.156 114.398H333.662C333.426 114.398 333.199 114.304 333.032 114.137C332.865 113.97 332.771 113.743 332.771 113.507C332.771 113.271 332.865 113.044 333.032 112.877C333.199 112.71 333.426 112.616 333.662 112.616H362.156C362.273 112.616 362.388 112.639 362.497 112.684C362.605 112.728 362.703 112.794 362.786 112.876C362.868 112.959 362.934 113.057 362.979 113.165C363.024 113.273 363.047 113.389 363.047 113.506C363.047 113.623 363.024 113.739 362.98 113.847C362.935 113.955 362.87 114.053 362.787 114.136C362.704 114.219 362.606 114.285 362.498 114.329C362.39 114.374 362.275 114.397 362.158 114.398H362.156Z" fill="#E6E6E6"/>
<path d="M369.799 102.433H319.804C318.673 102.432 317.588 101.982 316.788 101.182C315.988 100.381 315.538 99.2963 315.536 98.1644V78.0394C315.538 76.9076 315.988 75.8226 316.788 75.0223C317.588 74.2219 318.673 73.7718 319.804 73.7705H369.799C370.931 73.7718 372.016 74.2219 372.816 75.0223C373.616 75.8226 374.066 76.9076 374.067 78.0394V98.1644C374.066 99.2963 373.616 100.381 372.816 101.182C372.016 101.982 370.931 102.432 369.799 102.433ZM319.804 74.9902C318.996 74.9911 318.221 75.3127 317.65 75.8843C317.078 76.456 316.757 77.231 316.756 78.0394V98.1644C316.757 98.9729 317.078 99.7479 317.65 100.32C318.221 100.891 318.996 101.213 319.804 101.214H369.799C370.608 101.213 371.382 100.891 371.954 100.32C372.525 99.7479 372.847 98.9729 372.848 98.1644V78.0394C372.847 77.231 372.525 76.456 371.954 75.8843C371.382 75.3127 370.608 74.9911 369.799 74.9902H319.804Z" fill="#E6E6E6"/>
<path d="M372.316 75.0918L316.866 100.09L317.367 101.202L372.817 76.2037L372.316 75.0918Z" fill="#E6E6E6"/>
<path d="M317.6 74.7818L317.091 75.8901L372.233 101.199L372.742 100.09L317.6 74.7818Z" fill="#E6E6E6"/>
<path d="M410.876 88.9248C410.842 88.8539 410.799 88.7881 410.746 88.7292V88.7291L404.068 82.0493C403.986 81.9664 403.887 81.9006 403.779 81.8557C403.671 81.8108 403.555 81.7877 403.438 81.7876C403.321 81.7875 403.206 81.8105 403.097 81.8553C402.989 81.9 402.891 81.9656 402.808 82.0484C402.725 82.1312 402.66 82.2295 402.615 82.3376C402.57 82.4458 402.547 82.5617 402.547 82.6787C402.548 82.7958 402.571 82.9117 402.616 83.0198C402.66 83.1279 402.726 83.2261 402.809 83.3087L407.967 88.4682H385.185C384.949 88.4682 384.722 88.5621 384.555 88.7291C384.388 88.8961 384.294 89.1227 384.294 89.3589C384.294 89.5951 384.388 89.8216 384.555 89.9887C384.722 90.1557 384.949 90.2495 385.185 90.2495H407.967L403.254 94.9637C403.171 95.0463 403.105 95.1445 403.06 95.2527C403.015 95.3608 402.992 95.4767 402.992 95.5939C402.992 95.711 403.015 95.827 403.06 95.9352C403.104 96.0434 403.17 96.1418 403.253 96.2246C403.336 96.3074 403.434 96.3731 403.542 96.4178C403.65 96.4626 403.766 96.4856 403.883 96.4854C404.001 96.4853 404.116 96.4621 404.225 96.4171C404.333 96.3721 404.431 96.3062 404.513 96.2232L410.746 89.9893L410.747 89.9886C410.883 89.8505 410.969 89.6712 410.992 89.4788C411.016 89.2864 410.975 89.0916 410.876 88.9248Z" fill="#CCCCCC"/>
<path d="M467.741 71.4193H467.323V59.9847C467.323 59.1156 467.152 58.255 466.82 57.4521C466.487 56.6492 466 55.9196 465.385 55.3051C464.771 54.6905 464.042 54.2031 463.239 53.8705C462.436 53.5379 461.576 53.3667 460.707 53.3667H436.487C435.618 53.3667 434.758 53.5379 433.955 53.8705C433.153 54.203 432.423 54.6905 431.809 55.3051C431.194 55.9196 430.707 56.6492 430.374 57.4521C430.042 58.255 429.871 59.1156 429.871 59.9847V122.716C429.871 124.471 430.568 126.154 431.809 127.395C433.05 128.636 434.732 129.334 436.487 129.334H460.707C461.576 129.334 462.436 129.162 463.239 128.83C464.042 128.497 464.771 128.01 465.385 127.395C466 126.781 466.487 126.051 466.82 125.248C467.152 124.445 467.323 123.585 467.323 122.716V79.5586H467.741V71.4193Z" fill="#3F3D56"/>
<path d="M465.915 60.0309V122.669C465.915 123.98 465.394 125.237 464.467 126.164C463.541 127.091 462.284 127.612 460.973 127.612H436.638C435.327 127.612 434.07 127.091 433.144 126.164C432.217 125.237 431.696 123.98 431.696 122.669V60.0309C431.696 58.7201 432.217 57.4629 433.144 56.536C434.07 55.6091 435.327 55.0884 436.638 55.0884H439.59C439.445 55.4449 439.389 55.8317 439.429 56.2146C439.468 56.5976 439.601 56.965 439.816 57.2845C440.031 57.6039 440.321 57.8658 440.66 58.0469C441 58.228 441.379 58.3229 441.764 58.3232H455.639C456.024 58.3229 456.402 58.228 456.742 58.0469C457.082 57.8658 457.372 57.6039 457.586 57.2844C457.801 56.9649 457.934 56.5976 457.973 56.2146C458.013 55.8317 457.957 55.4449 457.812 55.0884H460.973C462.284 55.0884 463.541 55.6091 464.467 56.536C465.394 57.4629 465.915 58.7201 465.915 60.0309Z" fill="white"/>
<path d="M146.955 132.398C146.702 132.079 146.526 131.706 146.439 131.308C146.353 130.91 146.358 130.497 146.455 130.102C148.766 120.418 148.766 110.326 146.454 100.642C146.358 100.247 146.353 99.834 146.439 99.4361C146.526 99.0381 146.702 98.6651 146.955 98.3456C147.202 98.0305 147.518 97.776 147.878 97.6014C148.239 97.4267 148.634 97.3366 149.034 97.3379H173.744C174.375 97.3391 174.986 97.5644 175.466 97.9737C175.947 98.383 176.267 98.9497 176.369 99.573C177.981 110.044 177.981 120.7 176.369 131.171C176.267 131.794 175.947 132.361 175.466 132.77C174.985 133.179 174.375 133.405 173.744 133.406H149.034C148.634 133.407 148.239 133.317 147.878 133.143C147.518 132.968 147.202 132.713 146.955 132.398Z" fill="#20A4F3"/>
<path d="M168.975 110.645H155.958C155.474 110.645 155.009 110.452 154.666 110.109C154.323 109.766 154.13 109.301 154.129 108.816V108.039C154.13 107.554 154.323 107.089 154.666 106.746C155.009 106.403 155.474 106.21 155.958 106.209H168.975C169.46 106.21 169.925 106.403 170.268 106.746C170.611 107.089 170.804 107.554 170.804 108.039V108.816C170.804 109.301 170.611 109.766 170.268 110.109C169.925 110.452 169.46 110.645 168.975 110.645Z" fill="white"/>
<path d="M168.975 118.298H155.958C155.474 118.297 155.009 118.104 154.666 117.761C154.323 117.418 154.13 116.953 154.129 116.468V115.691C154.13 115.206 154.323 114.741 154.666 114.398C155.009 114.055 155.474 113.862 155.958 113.862H168.975C169.46 113.862 169.925 114.055 170.268 114.398C170.611 114.741 170.804 115.206 170.804 115.691V116.468C170.804 116.953 170.611 117.418 170.268 117.761C169.925 118.104 169.46 118.297 168.975 118.298Z" fill="white"/>
<path d="M375.486 154.92C373.9 144.619 373.9 134.135 375.486 123.833C375.586 123.22 375.901 122.663 376.374 122.26C376.847 121.857 377.448 121.635 378.069 121.634H402.379C402.773 121.633 403.162 121.722 403.516 121.894C403.871 122.065 404.182 122.316 404.425 122.626C404.673 122.94 404.847 123.307 404.932 123.699C405.017 124.09 405.012 124.496 404.917 124.885C402.643 134.412 402.643 144.341 404.917 153.868C405.012 154.258 405.017 154.663 404.932 155.055C404.847 155.446 404.673 155.813 404.425 156.128C404.182 156.438 403.871 156.688 403.516 156.86C403.162 157.032 402.773 157.121 402.379 157.119H378.069C377.448 157.118 376.847 156.897 376.374 156.494C375.901 156.091 375.586 155.534 375.486 154.92Z" fill="#20A4F3"/>
<path d="M395.342 137.436H382.584C382.1 137.436 381.635 137.243 381.292 136.9C380.949 136.557 380.756 136.092 380.755 135.607V134.892C380.756 134.406 380.949 133.941 381.292 133.598C381.635 133.255 382.1 133.063 382.584 133.062H395.342C395.826 133.063 396.291 133.255 396.634 133.598C396.977 133.941 397.17 134.406 397.171 134.892V135.607C397.17 136.092 396.977 136.557 396.634 136.9C396.291 137.243 395.826 137.436 395.342 137.436Z" fill="white"/>
<path d="M22.4825 222.617C27.588 213.53 34.0537 205.279 41.6551 198.15C42.1125 197.729 42.7041 197.485 43.3248 197.46C43.9454 197.435 44.5548 197.631 45.0445 198.013L64.1778 213.013C64.4886 213.256 64.7401 213.565 64.9131 213.919C65.0861 214.273 65.1761 214.662 65.1762 215.056C65.1778 215.457 65.0881 215.853 64.9138 216.214C64.7395 216.574 64.4852 216.891 64.1703 217.138C56.5047 223.233 50.3812 231.048 46.2952 239.949C46.1301 240.314 45.8839 240.637 45.5753 240.892C45.2667 241.148 44.9039 241.33 44.5145 241.424C44.132 241.518 43.733 241.523 43.348 241.44C42.963 241.356 42.6021 241.186 42.2928 240.942L23.1595 225.942C22.6714 225.557 22.3355 225.012 22.2115 224.403C22.0875 223.795 22.1835 223.161 22.4825 222.617Z" fill="#CCCCCC"/>
<path d="M49.0087 220.242L38.9683 212.37C38.5869 212.071 38.34 211.632 38.2816 211.15C38.2233 210.669 38.3583 210.184 38.657 209.802L39.0978 209.239C39.3974 208.858 39.836 208.611 40.3174 208.552C40.7988 208.494 41.2837 208.629 41.6657 208.928L51.7061 216.8C52.0875 217.099 52.3344 217.538 52.3928 218.019C52.4511 218.501 52.3161 218.986 52.0174 219.368L51.5766 219.931C51.277 220.312 50.8384 220.559 50.357 220.617C49.8756 220.676 49.3907 220.541 49.0087 220.242Z" fill="white"/>
<path d="M44.3656 226.167L34.3252 218.295C33.9438 217.996 33.6969 217.557 33.6386 217.075C33.5802 216.594 33.7152 216.109 34.0139 215.727L34.4549 215.164C34.7545 214.783 35.1931 214.536 35.6745 214.477C36.1559 214.419 36.6408 214.554 37.0228 214.853L47.0633 222.724C47.4446 223.024 47.6915 223.463 47.7499 223.944C47.8082 224.426 47.6732 224.911 47.3745 225.293L46.9336 225.856C46.634 226.237 46.1954 226.484 45.7139 226.542C45.2325 226.601 44.7476 226.466 44.3656 226.167Z" fill="white"/>
<path d="M539.494 230.542C537.908 220.24 537.908 209.756 539.494 199.454C539.594 198.841 539.909 198.284 540.382 197.881C540.855 197.478 541.456 197.257 542.077 197.255H566.387C566.781 197.254 567.17 197.343 567.525 197.515C567.879 197.687 568.19 197.937 568.433 198.247C568.681 198.561 568.855 198.928 568.94 199.32C569.025 199.711 569.02 200.117 568.925 200.506C566.651 210.034 566.651 219.962 568.925 229.489C569.02 229.879 569.025 230.285 568.94 230.676C568.855 231.068 568.681 231.434 568.433 231.749C568.19 232.059 567.879 232.309 567.525 232.481C567.17 232.653 566.781 232.742 566.387 232.74H542.077C541.456 232.739 540.855 232.518 540.382 232.115C539.909 231.712 539.594 231.155 539.494 230.542Z" fill="#CCCCCC"/>
<path d="M559.351 213.058H546.593C546.109 213.057 545.644 212.864 545.301 212.521C544.958 212.178 544.765 211.713 544.764 211.228V210.513C544.765 210.028 544.958 209.563 545.301 209.22C545.644 208.877 546.109 208.684 546.593 208.684H559.351C559.835 208.684 560.3 208.877 560.643 209.22C560.986 209.563 561.179 210.028 561.18 210.513V211.228C561.179 211.713 560.986 212.178 560.643 212.521C560.3 212.864 559.835 213.057 559.351 213.058Z" fill="white"/>
<path d="M546.635 202.104C547.359 200.637 547.506 198.951 547.044 197.381C546.583 195.811 545.547 194.473 544.144 193.632C543.86 193.475 543.564 193.342 543.258 193.235L542.758 171.091L533.915 177.604L535.746 197.634C535.418 198.978 535.531 200.391 536.067 201.667C536.603 202.942 537.534 204.012 538.723 204.718C539.407 205.099 540.163 205.334 540.942 205.408C541.722 205.481 542.508 205.393 543.252 205.147C543.995 204.901 544.68 204.504 545.262 203.98C545.844 203.456 546.312 202.817 546.635 202.104Z" fill="#A0616A"/>
<path d="M542.908 192.271L536.57 192.654C535.894 192.671 535.236 192.432 534.728 191.986C534.219 191.54 533.897 190.919 533.825 190.246L528.562 150.638L520.057 126.478C519.339 124.465 519.418 122.254 520.277 120.297C520.676 119.355 521.264 118.503 522.004 117.796C522.744 117.089 523.62 116.54 524.58 116.184C528.453 114.776 532.694 117.006 534.033 121.154L542.683 148.854L545.35 189.307C545.404 190.04 545.175 190.766 544.71 191.336C544.419 191.694 544.037 191.968 543.604 192.128C543.38 192.209 543.146 192.257 542.908 192.271Z" fill="#3F3D56"/>
<path d="M505.956 314.011L498.481 314.01L494.926 285.172L505.957 285.172L505.956 314.011Z" fill="#A0616A"/>
<path d="M507.862 321.258L483.76 321.258V320.953C483.76 319.72 484.003 318.5 484.475 317.362C484.946 316.223 485.637 315.189 486.508 314.318C487.379 313.446 488.413 312.755 489.552 312.284C490.69 311.812 491.91 311.569 493.142 311.569H493.142L507.863 311.57L507.862 321.258Z" fill="#2F2E41"/>
<path d="M527.905 314.011L520.43 314.01L516.875 285.172L527.906 285.172L527.905 314.011Z" fill="#A0616A"/>
<path d="M529.811 321.258L505.709 321.258V320.953C505.709 319.72 505.952 318.5 506.424 317.362C506.895 316.223 507.586 315.189 508.457 314.318C509.328 313.446 510.362 312.755 511.501 312.284C512.639 311.812 513.859 311.569 515.091 311.569H515.091L529.812 311.57L529.811 321.258Z" fill="#2F2E41"/>
<path d="M532.922 197.464L531.137 303.391C531.131 303.727 531.056 304.057 530.917 304.362C530.778 304.668 530.577 304.941 530.328 305.165C530.078 305.389 529.785 305.559 529.467 305.665C529.148 305.771 528.811 305.81 528.477 305.779L519.731 304.984C519.157 304.932 518.62 304.678 518.215 304.268C517.811 303.858 517.564 303.318 517.52 302.743L512.399 236.669C512.387 236.514 512.316 236.369 512.201 236.264C512.086 236.16 511.935 236.103 511.779 236.106C511.624 236.109 511.475 236.172 511.364 236.281C511.253 236.39 511.188 236.537 511.182 236.693L508.623 304.28C508.599 304.91 508.331 305.507 507.877 305.945C507.423 306.382 506.816 306.627 506.185 306.627H496.805C496.184 306.627 495.586 306.39 495.134 305.964C494.682 305.539 494.409 304.956 494.371 304.336L487.804 196.854L526.825 187.097L532.922 197.464Z" fill="#2F2E41"/>
<path d="M504.619 98C512.889 98 519.593 91.2939 519.593 83.0215C519.593 74.7491 512.889 68.043 504.619 68.043C496.348 68.043 489.644 74.7491 489.644 83.0215C489.644 91.2939 496.348 98 504.619 98Z" fill="#A0616A"/>
<path d="M486.468 200.615C486.208 200.365 486.001 200.065 485.858 199.734C485.716 199.402 485.64 199.046 485.636 198.685L484.626 126.453C484.565 122.779 485.67 119.18 487.782 116.173C489.895 113.166 492.905 110.906 496.382 109.718C497.785 103.352 505.252 102.554 509.605 102.65C510.691 102.673 511.756 102.958 512.709 103.481C513.662 104.003 514.474 104.748 515.078 105.652L518.199 110.333L525.076 114.366C528.259 116.224 530.77 119.046 532.246 122.423C533.722 125.801 534.087 129.56 533.289 133.159L532.23 137.977C528.502 155.028 528.856 172.719 533.265 189.607L535.396 197.732C535.507 198.156 535.515 198.599 535.42 199.026C535.325 199.453 535.129 199.851 534.848 200.187C534.568 200.523 534.212 200.787 533.809 200.957C533.406 201.127 532.968 201.198 532.532 201.165L530.057 200.974C529.415 200.925 528.81 200.652 528.349 200.201C527.888 199.751 527.601 199.153 527.537 198.511L527.128 194.415C527.12 194.34 527.085 194.27 527.029 194.219C526.973 194.169 526.9 194.141 526.825 194.141C526.749 194.141 526.676 194.169 526.62 194.219C526.564 194.27 526.529 194.34 526.521 194.415L526.125 198.381C526.058 199.051 525.747 199.673 525.251 200.129C524.756 200.584 524.11 200.842 523.437 200.852L488.422 201.391C488.407 201.391 488.393 201.391 488.378 201.391C487.664 201.393 486.979 201.114 486.468 200.615Z" fill="#3F3D56"/>
<path d="M505.79 91.655C505.851 93.7724 507.321 94.9974 509.125 96.1065C510.929 97.2155 513.039 97.6964 515.105 98.1603C515.382 98.3077 515.693 98.3811 516.007 98.3734C516.322 98.3657 516.628 98.2771 516.898 98.1163C517.168 97.9554 517.392 97.7276 517.549 97.455C517.705 97.1823 517.788 96.874 517.791 96.5597L519.686 89.3493C520.356 87.046 520.844 84.6935 521.145 82.3135C521.601 77.734 520.516 72.8077 517.321 69.4967C514.125 66.1857 508.583 65.0094 504.754 67.5606C500.21 61.7549 479.437 74.5817 484.562 78.6188C485.473 79.337 486.867 78.4283 488.024 78.3402C489.181 78.2521 490.477 78.4557 491.212 79.3539C492.173 80.5273 491.754 82.2753 492.15 83.7392C492.314 84.2543 492.578 84.7318 492.927 85.1443C493.276 85.5569 493.703 85.8962 494.184 86.1427C494.665 86.3892 495.19 86.5381 495.728 86.5807C496.267 86.6233 496.809 86.5589 497.322 86.391C498.279 85.9195 499.179 85.3408 500.005 84.666C500.893 84.0747 502.014 83.6378 503.013 84.0107C504.33 84.5023 504.798 86.115 504.917 87.5159C505.118 88.9131 505.409 90.2958 505.79 91.655Z" fill="#2F2E41"/>
<path opacity="0.2" d="M502.292 131.799L499.854 161.682L487.05 192.784L505.951 162.292L502.292 131.799Z" fill="black"/>
<path d="M484.056 204.367C484.755 203.805 485.323 203.098 485.719 202.293C486.114 201.489 486.329 200.608 486.348 199.711C486.366 198.815 486.188 197.925 485.825 197.105C485.463 196.285 484.925 195.555 484.25 194.965L492.407 174.757L481.309 176.999L475.265 195.845C474.35 197.045 473.906 198.54 474.019 200.045C474.132 201.55 474.793 202.962 475.877 204.012C476.96 205.062 478.391 205.679 479.899 205.744C481.407 205.809 482.886 205.319 484.056 204.367V204.367Z" fill="#A0616A"/>
<path d="M483.818 195.454L477.536 193.19C476.889 192.953 476.354 192.482 476.036 191.87C475.719 191.259 475.641 190.55 475.82 189.884L486.183 151.94L487.763 117.647C487.811 116.612 488.064 115.596 488.507 114.66C488.95 113.723 489.575 112.884 490.346 112.192C491.116 111.499 492.017 110.967 492.995 110.625C493.973 110.284 495.009 110.14 496.043 110.203C497.077 110.266 498.089 110.533 499.018 110.99C499.948 111.447 500.778 112.085 501.459 112.866C502.14 113.646 502.659 114.555 502.986 115.538C503.313 116.521 503.442 117.559 503.364 118.593L500.542 156.143L487.337 193.782C487.137 194.351 486.756 194.838 486.252 195.168C485.747 195.499 485.149 195.654 484.547 195.611C484.298 195.592 484.053 195.539 483.818 195.454Z" fill="#3F3D56"/>
<path d="M31.3125 305.351L38.0246 308.642L53.9085 284.313L44.0027 279.457L31.3125 305.351Z" fill="#FFB8B8"/>
<path d="M30.6754 302.32L43.8932 308.801L43.8937 308.801C44.9999 309.343 45.9884 310.098 46.8029 311.023C47.6174 311.947 48.2418 313.023 48.6405 314.189C49.0392 315.355 49.2045 316.588 49.1268 317.818C49.0491 319.048 48.73 320.25 48.1877 321.357L48.0535 321.63L26.4121 311.019L30.6754 302.32Z" fill="#2F2E41"/>
<path d="M97.8267 316.822L105.302 316.822L108.857 287.983L97.8254 287.984L97.8267 316.822Z" fill="#FFB8B8"/>
<path d="M95.9204 311.942L110.641 311.941H110.641C111.873 311.941 113.093 312.184 114.231 312.656C115.37 313.127 116.404 313.818 117.275 314.69C118.146 315.561 118.837 316.595 119.308 317.734C119.78 318.872 120.022 320.092 120.022 321.325V321.63L95.9209 321.63L95.9204 311.942Z" fill="#2F2E41"/>
<path d="M81.7712 117.796C90.0415 117.796 96.7459 111.09 96.7459 102.817C96.7459 94.545 90.0415 87.8389 81.7712 87.8389C73.5008 87.8389 66.7964 94.545 66.7964 102.817C66.7964 111.09 73.5008 117.796 81.7712 117.796Z" fill="#FFB8B8"/>
<path d="M96.6832 307.31C95.9768 307.31 95.298 307.036 94.788 306.547C94.278 306.058 93.9762 305.392 93.9454 304.686L88.1571 227.625C88.1504 227.423 88.0771 227.229 87.9486 227.073C87.8201 226.917 87.6437 226.808 87.4468 226.763C87.2499 226.718 87.0437 226.739 86.8602 226.824C86.6768 226.908 86.5265 227.051 86.4327 227.23L49.4049 297.937C49.0688 298.572 48.4987 299.05 47.8158 299.27C47.1329 299.491 46.3909 299.436 45.7474 299.119L35.4253 293.956C34.7778 293.63 34.2849 293.062 34.054 292.375C33.823 291.688 33.8727 290.938 34.1921 290.287L56.2867 245.505L70.9211 211.96C76.5697 200.831 82.568 195.096 89.2586 194.426C96.1226 193.741 103.453 198.462 111.672 208.86L111.739 208.945L111.738 209.053L110.518 303.187C110.52 303.871 110.266 304.531 109.805 305.036C109.345 305.541 108.712 305.855 108.031 305.916L96.9517 307.298C96.8616 307.306 96.7721 307.311 96.6832 307.31Z" fill="#2F2E41"/>
<path d="M65.9664 217.378C66.7813 216.875 67.4761 216.199 68.0017 215.399C68.5274 214.598 68.8711 213.692 69.0088 212.744C69.1465 211.796 69.0748 210.83 68.7986 209.913C68.5225 208.996 68.0487 208.15 67.4106 207.436L69.6686 147.759L58.6941 149.127L57.7687 207.184C56.6404 208.336 55.9736 209.862 55.8948 211.473C55.816 213.083 56.3306 214.667 57.3411 215.923C58.3516 217.18 59.7878 218.022 61.3775 218.29C62.9672 218.558 64.6 218.233 65.9664 217.378Z" fill="#FFB8B8"/>
<path d="M72.9083 158.31L58.1706 156.635C57.7513 156.587 57.3472 156.45 56.9858 156.232C56.6243 156.014 56.3141 155.72 56.0763 155.372C55.8384 155.023 55.6785 154.627 55.6074 154.211C55.5363 153.795 55.5557 153.368 55.6643 152.96L59.4691 138.667C59.725 136.522 60.8206 134.567 62.5159 133.229C64.2112 131.891 66.3676 131.28 68.5124 131.531C70.6573 131.781 72.6154 132.871 73.9574 134.563C75.2995 136.256 75.9159 138.411 75.6716 140.557L76.1751 155.292C76.1893 155.714 76.1126 156.134 75.9499 156.523C75.7873 156.913 75.5426 157.263 75.2326 157.549C74.9226 157.836 74.5545 158.052 74.1534 158.183C73.7523 158.314 73.3277 158.358 72.9084 158.31L72.9083 158.31Z" fill="#2F2E41"/>
<path d="M136.394 120.743C136.319 121.072 136.271 121.407 136.248 121.743L110.057 136.857L103.691 133.191L96.9045 142.078L107.544 149.663C108.403 150.275 109.439 150.593 110.494 150.567C111.549 150.541 112.567 150.174 113.396 149.52L140.403 128.208C141.622 128.66 142.95 128.729 144.209 128.407C145.468 128.086 146.599 127.388 147.453 126.408C148.306 125.427 148.841 124.21 148.985 122.918C149.13 121.626 148.878 120.321 148.263 119.175C147.648 118.03 146.699 117.099 145.542 116.507C144.386 115.914 143.076 115.688 141.787 115.858C140.499 116.028 139.293 116.587 138.329 117.46C137.366 118.332 136.691 119.477 136.394 120.743V120.743Z" fill="#FFB8B8"/>
<path d="M109.182 137.573L100.717 148.546C100.476 148.858 100.171 149.115 99.8217 149.299C99.4727 149.482 99.0883 149.588 98.6946 149.61C98.3009 149.631 97.9072 149.568 97.5403 149.424C97.1734 149.279 96.8419 149.057 96.5684 148.773L86.9856 138.82C85.3947 137.579 84.3609 135.757 84.1111 133.754C83.8613 131.751 84.4159 129.731 85.6532 128.137C86.8904 126.543 88.7094 125.504 90.711 125.25C92.7126 124.995 94.7334 125.545 96.3302 126.779L108.349 133.501C108.693 133.694 108.992 133.958 109.224 134.277C109.457 134.595 109.618 134.96 109.697 135.346C109.776 135.733 109.771 136.131 109.682 136.516C109.593 136.9 109.423 137.26 109.182 137.573H109.182Z" fill="#2F2E41"/>
<path d="M116.086 213.527L99.8356 134.35C99.0632 130.587 96.8626 127.27 93.6961 125.096C90.5297 122.922 86.644 122.06 82.8555 122.691L77.4358 123.595C75.5531 123.909 73.7506 124.59 72.1312 125.601C70.5119 126.612 69.1074 127.931 67.998 129.485C66.2352 131.953 65.0479 134.785 64.5232 137.773C63.9984 140.761 64.1497 143.828 64.9659 146.75L73.936 178.861L67.2791 213.264C67.2047 213.646 67.2227 214.039 67.3315 214.413C67.4403 214.786 67.6368 215.128 67.9045 215.409C68.1722 215.691 68.5035 215.905 68.8706 216.032C69.2377 216.16 69.6299 216.198 70.0147 216.143C73.3475 215.666 78.841 214.985 85.1505 214.614L88.5687 201.426L89.959 214.405C97.7097 214.188 106.123 214.568 113.064 216.371C113.466 216.479 113.888 216.482 114.291 216.38C114.694 216.278 115.065 216.075 115.367 215.791C115.67 215.506 115.895 215.148 116.021 214.752C116.147 214.356 116.169 213.934 116.086 213.527Z" fill="#20A4F3"/>
<path d="M99.017 90.1714C98.1233 84.9717 93.9501 80.6612 88.9788 78.8975C84.0074 77.1338 78.4017 77.7074 73.5333 79.7384C68.3371 81.8517 64.0356 85.7039 61.3635 90.6371C60.7302 90.3536 60.1213 90.0183 59.5431 89.6346C56.6601 87.7154 54.3208 84.9825 51.2017 83.4778C45.7025 80.825 39.0542 82.5885 33.7024 85.5269C28.3506 88.4654 23.6064 92.525 17.953 94.8309C12.2999 97.1368 5.08627 97.2508 0.805595 92.8967C-0.247867 95.9495 -0.334014 99.253 0.558902 102.357C1.45182 105.46 3.28031 108.213 5.79489 110.238C8.30947 112.264 11.3877 113.464 14.6095 113.676C17.8313 113.887 21.0398 113.099 23.7973 111.419C29.9913 107.645 33.4128 99.7317 40.3603 97.6487C44.2045 96.496 48.3328 97.4244 52.2184 98.4299C54.5073 99.0885 56.8429 99.5716 59.2052 99.8752C59.2329 104.14 60.8387 108.243 63.7127 111.393C68.5072 116.442 76.032 117.787 82.9929 117.705L83.1385 117.557C81.0072 114.366 79.3252 109.942 81.6717 106.906C83.9881 103.909 88.5567 104.35 92.1041 103.024C97.0451 101.177 99.9108 95.3712 99.017 90.1714Z" fill="#2F2E41"/>
<path d="M125.546 322H21.8978C21.7361 322 21.581 321.936 21.4667 321.821C21.3523 321.707 21.2881 321.552 21.2881 321.39C21.2881 321.228 21.3523 321.073 21.4667 320.959C21.581 320.845 21.7361 320.78 21.8978 320.78H125.546C125.708 320.78 125.863 320.845 125.977 320.959C126.092 321.073 126.156 321.228 126.156 321.39C126.156 321.552 126.092 321.707 125.977 321.821C125.863 321.936 125.708 322 125.546 322Z" fill="#CCCCCC"/>
<path d="M554.163 322H450.514C450.353 322 450.198 321.936 450.083 321.821C449.969 321.707 449.905 321.552 449.905 321.39C449.905 321.228 449.969 321.073 450.083 320.959C450.198 320.845 450.353 320.78 450.514 320.78H554.163C554.325 320.78 554.48 320.845 554.594 320.959C554.708 321.073 554.773 321.228 554.773 321.39C554.773 321.552 554.708 321.707 554.594 321.821C554.48 321.936 554.325 322 554.163 322Z" fill="#CCCCCC"/>
</g>
<defs>
<clipPath id="clip0">
<rect width="569" height="322" fill="white"/>
</clipPath>
</defs>
</svg>
