<svg width="221" height="162" viewBox="0 0 221 162" fill="none" xmlns="http://www.w3.org/2000/svg">
<g clip-path="url(#clip0)">
<path d="M208.902 21.3506H23.8887V120.514H208.902V21.3506Z" fill="#F2F2F2"/>
<path opacity="0.3" d="M101.555 38.3496H41.7812V111.406H101.555V38.3496Z" fill="#20A4F3"/>
<path d="M172.308 43.6113H124.529V46.2422H172.308V43.6113Z" fill="#3F3D56"/>
<path d="M194.062 48.4683H124.529V51.0991H194.062V48.4683Z" fill="#3F3D56"/>
<path d="M172.308 60.2061H124.529V62.8369H172.308V60.2061Z" fill="#3F3D56"/>
<path d="M172.308 79.6338H124.529V82.2647H172.308V79.6338Z" fill="#3F3D56"/>
<path d="M194.062 65.063H124.529V67.6938H194.062V65.063Z" fill="#3F3D56"/>
<path d="M194.062 69.9199H124.529V72.5508H194.062V69.9199Z" fill="#3F3D56"/>
<path d="M194.062 74.7769H124.529V77.4077H194.062V74.7769Z" fill="#3F3D56"/>
<path d="M149.537 91.3716H124.529V98.2523H149.537V91.3716Z" fill="#20A4F3"/>
<path d="M105.416 34.4033H45.6426V107.46H105.416V34.4033Z" fill="#3F3D56"/>
<path d="M96.8778 74.7987C96.8778 88.9873 88.4038 93.9414 77.9506 93.9414C67.4974 93.9414 59.0234 88.9873 59.0234 74.7987C59.0234 60.6101 77.9506 42.5601 77.9506 42.5601C77.9506 42.5601 96.8778 60.6101 96.8778 74.7987Z" fill="#20A4F3"/>
<path d="M77.2614 91.771L77.4554 79.8964L85.5226 65.2059L77.4857 78.0337L77.5729 72.6943L83.1329 62.0658L77.5959 71.2813V71.2815L77.7526 61.6785L83.7064 53.2168L77.7772 60.1684L77.8752 42.5601L77.2598 65.8705L77.3104 64.9088L71.2572 55.6862L77.2132 66.7546L76.6492 77.4796L76.6326 77.1949L69.6543 67.4894L76.6114 78.2005L76.5409 79.5418L76.5283 79.562L76.534 79.6721L75.1031 106.882H77.0148L77.2443 92.8274L84.1842 82.1427L77.2614 91.771Z" fill="#3F3D56"/>
<path d="M26.7354 162C41.4449 162 53.3693 160.46 53.3693 158.559C53.3693 156.659 41.4449 155.119 26.7354 155.119C12.0259 155.119 0.101562 156.659 0.101562 158.559C0.101562 160.46 12.0259 162 26.7354 162Z" fill="#3F3D56"/>
<path d="M14.1542 63.3179L13.2695 65.4094L14.2648 78.9491C14.2648 78.9491 13.7119 79.7197 14.2648 80.2701C14.8178 80.8204 14.7072 81.0406 14.7072 81.0406C14.7072 81.0406 13.8225 81.0406 14.2648 81.7011C14.7072 82.3616 14.7072 82.6918 14.7072 82.6918L14.486 83.3523C14.486 83.3523 14.9284 83.9027 14.9284 84.343C14.9284 84.7833 17.8037 98.323 17.8037 98.323L20.5684 92.9292L19.0202 71.4637L14.1542 63.3179Z" fill="#20A4F3"/>
<path d="M43.2448 97.1865C43.2448 97.1865 48.1105 100.754 48.2818 103.607C48.4532 106.459 42.0097 99.3584 41.9659 98.5582C41.9221 97.758 43.2448 97.1865 43.2448 97.1865Z" fill="#FFB9B9"/>
<path d="M12.7187 151.161L11.5022 155.124C11.5022 155.124 9.7328 158.977 12.1658 159.527C14.5987 160.078 16.9211 157.986 16.9211 157.986V155.344L17.8058 151.161H12.7187Z" fill="#2F2E41"/>
<path d="M32.6234 151.161C32.6234 151.161 32.0705 158.646 33.287 159.087C34.5035 159.527 38.8164 159.637 38.927 159.087C39.0376 158.536 40.3647 157.986 39.3694 157.215C38.3741 156.445 37.7106 151.932 37.7106 151.932L32.6234 151.161Z" fill="#2F2E41"/>
<path d="M21.4548 80.2698V83.5722C21.4548 83.5722 17.8053 91.1677 16.4782 103.166C15.1512 115.165 10.617 151.711 11.7229 152.372C12.8288 153.032 24.7725 153.472 25.1042 152.592C25.436 151.711 25.7678 125.953 25.7678 125.953L29.8596 107.79C29.8596 107.79 30.6337 114.284 31.2972 115.385C31.9608 116.486 30.1913 152.262 31.2972 152.812C32.4031 153.362 47.3327 154.353 47.1115 152.592C46.8904 150.831 41.9138 103.056 41.9138 103.056C41.9138 103.056 39.3703 80.49 38.5962 80.2698C37.822 80.0497 30.7443 79.8295 29.6384 80.0497C28.5325 80.2698 21.4548 80.2698 21.4548 80.2698Z" fill="#2F2E41"/>
<path d="M29.8583 52.9704C33.3397 52.9704 36.1619 50.1612 36.1619 46.6959C36.1619 43.2306 33.3397 40.4214 29.8583 40.4214C26.3769 40.4214 23.5547 43.2306 23.5547 46.6959C23.5547 50.1612 26.3769 52.9704 29.8583 52.9704Z" fill="#FFB9B9"/>
<path d="M31.1869 51.9797C31.1869 51.9797 27.9798 56.9333 28.7539 58.2542C29.5281 59.5752 20.5703 56.9333 20.5703 56.9333C20.5703 56.9333 25.9892 50.3285 25.8786 49.558C25.768 48.7874 31.1869 51.9797 31.1869 51.9797Z" fill="#FFB9B9"/>
<path d="M37.8204 59.3551C37.8204 59.3551 31.9592 57.4837 31.185 56.7132C30.6884 56.2082 30.2439 55.6551 29.858 55.062C29.858 55.062 22.7802 54.0713 22.5591 54.0713C22.3379 54.0713 20.679 56.0527 20.2367 56.493C19.7943 56.9333 14.1542 59.9055 14.1542 60.676C14.1542 61.4466 13.2695 65.4094 13.2695 65.4094C13.2695 65.4094 15.2601 69.4824 16.4766 70.363C17.6931 71.2436 18.0249 71.0235 18.1355 72.4545C18.2461 73.8855 19.7943 76.1972 19.7943 76.1972C19.7943 76.1972 20.7896 78.729 20.5684 79.4996C20.3473 80.2701 19.352 80.9306 21.6743 80.7104C23.9967 80.4903 35.498 81.1507 35.498 79.9399C35.498 78.729 33.2862 67.1707 33.2862 67.1707L37.8204 59.3551Z" fill="#20A4F3"/>
<path d="M35.7215 59.5751L37.8227 59.355C37.8227 59.355 38.5968 59.7953 38.7074 64.0884C38.818 68.3815 38.818 78.7289 39.5921 79.6095C40.3663 80.4902 43.5734 94.14 43.5734 94.14C43.5734 94.14 44.4581 94.3601 44.4581 95.1307C44.4581 95.9012 45.4534 96.5617 45.011 97.4424C44.5687 98.323 45.4534 98.1028 44.9004 98.6532C44.3475 99.2036 41.6933 100.304 41.5828 99.6439C41.4722 98.9835 41.9145 98.8734 41.4722 98.6532C41.0298 98.4331 41.0298 98.323 40.9192 97.5524C40.8086 96.7819 39.8133 96.0113 39.9239 95.6811C40.0345 95.3508 35.058 85.774 35.058 85.4437C35.058 85.1135 34.7262 83.9026 34.2838 83.6825C33.8415 83.4623 33.1779 83.2422 33.5097 82.6918C33.8415 82.1414 32.625 65.6295 32.625 65.6295L35.7215 59.5751Z" fill="#20A4F3"/>
<path d="M35.1898 42.7166C33.2568 40.628 30.2211 39.5195 27.4373 40.1407C24.6535 40.7619 22.3093 43.2221 22.0916 46.0536C22.0471 46.6328 22.0842 47.2244 21.9336 47.7856C21.6804 48.7296 20.9268 49.4778 20.6612 50.4183C20.4832 51.0483 20.536 51.7266 20.3474 52.3535C19.9989 53.5118 18.9204 54.2671 18.0983 55.1574C17.7654 55.4837 17.5182 55.8864 17.3784 56.3301C17.3061 56.7236 17.2878 57.125 17.3239 57.5234C17.3586 59.6709 16.5565 61.7482 15.0859 63.3198C15.9506 62.6804 16.8848 62.1398 17.8709 61.7082C17.3821 63.2575 17.8289 65.0906 19.0587 66.1575C20.2885 67.2245 22.2583 67.3903 23.588 66.4495C24.3779 65.8906 24.891 65.0328 25.381 64.2005L27.2364 61.0494C27.572 60.4794 27.9224 59.8929 28.4586 59.5035C28.8847 59.1942 29.4025 59.0296 29.8315 58.724C30.9135 57.9534 31.2041 56.4451 31.0026 55.136C30.8011 53.8268 30.2097 52.6114 29.8705 51.3307C29.6022 50.3179 29.518 49.1571 30.1215 48.299C30.9227 47.16 32.5692 47.0147 33.6578 46.1434C34.0677 45.8154 34.2508 45.4163 34.5443 45.0057C34.8153 44.6266 34.8844 44.7625 35.3043 44.7452C36.4573 44.6976 35.617 43.1783 35.1898 42.7166Z" fill="#2F2E41"/>
<path d="M29.6841 50.0877C29.9648 50.0877 30.1923 49.544 30.1923 48.8734C30.1923 48.2028 29.9648 47.6592 29.6841 47.6592C29.4033 47.6592 29.1758 48.2028 29.1758 48.8734C29.1758 49.544 29.4033 50.0877 29.6841 50.0877Z" fill="#FFB9B9"/>
<path d="M137.031 146.923C140.625 146.923 143.537 144.024 143.537 140.447C143.537 136.871 140.625 133.971 137.031 133.971C133.438 133.971 130.525 136.871 130.525 140.447C130.525 144.024 133.438 146.923 137.031 146.923Z" fill="#F2F2F2"/>
<path d="M6.50598 19.428C10.0991 19.428 13.012 16.5286 13.012 12.952C13.012 9.37546 10.0991 6.47607 6.50598 6.47607C2.91283 6.47607 0 9.37546 0 12.952C0 16.5286 2.91283 19.428 6.50598 19.428Z" fill="#F2F2F2"/>
<path d="M214.494 12.9519C218.087 12.9519 221 10.0525 221 6.47595C221 2.89938 218.087 0 214.494 0C210.901 0 207.988 2.89938 207.988 6.47595C207.988 10.0525 210.901 12.9519 214.494 12.9519Z" fill="#F2F2F2"/>
</g>
<defs>
<clipPath id="clip0">
<rect width="221" height="162" fill="white"/>
</clipPath>
</defs>
</svg>
