<svg width="257" height="118" viewBox="0 0 257 118" fill="none" xmlns="http://www.w3.org/2000/svg">
<g clip-path="url(#clip0)">
<path d="M23.0661 112.337L22.7201 112.208C22.6441 112.18 15.0783 109.302 11.5341 102.777C7.98979 96.2523 9.72528 88.3962 9.74322 88.3177L9.8249 87.96L10.1707 88.0887C10.2467 88.1171 17.8124 90.9947 21.3567 97.5194C24.901 104.044 23.1655 111.901 23.1476 111.979L23.0661 112.337ZM12.1016 102.474C15.0981 107.99 21.0769 110.818 22.5917 111.464C22.8797 109.852 23.783 103.335 20.7892 97.8231C17.7957 92.3124 11.8146 89.4801 10.2991 88.833C10.0109 90.4457 9.10801 96.9626 12.1016 102.474Z" fill="#3F3D56"/>
<path d="M14.243 100.489C20.6124 104.293 23.0654 111.848 23.0654 111.848C23.0654 111.848 15.1917 113.237 8.82237 109.433C2.45303 105.629 0 98.0728 0 98.0728C0 98.0728 7.87371 96.6845 14.243 100.489Z" fill="#D0CDE1"/>
<path d="M218.082 1.4532H147.057V0H114.851V1.4532H43.5328C42.9019 1.4532 42.2772 1.57656 41.6943 1.81624C41.1114 2.05592 40.5818 2.40722 40.1357 2.85008C39.6895 3.29295 39.3357 3.8187 39.0942 4.39734C38.8528 4.97597 38.7285 5.59614 38.7285 6.22245V102.768C38.7285 104.033 39.2347 105.246 40.1357 106.14C41.0367 107.034 42.2587 107.537 43.5328 107.537H218.082C218.713 107.537 219.338 107.414 219.921 107.174C220.504 106.934 221.033 106.583 221.479 106.14C221.925 105.697 222.279 105.171 222.521 104.593C222.762 104.014 222.886 103.394 222.886 102.768V6.22245C222.886 5.59614 222.762 4.97596 222.521 4.39733C222.279 3.8187 221.925 3.29294 221.479 2.85008C221.033 2.40721 220.504 2.05591 219.921 1.81624C219.338 1.57656 218.713 1.4532 218.082 1.4532Z" fill="#3F3D56"/>
<path d="M216.446 9.88184H45.1699V105.793H216.446V9.88184Z" fill="#20A4F3"/>
<path d="M130.663 7.266C131.633 7.266 132.42 6.48526 132.42 5.52216C132.42 4.55906 131.633 3.77832 130.663 3.77832C129.693 3.77832 128.906 4.55906 128.906 5.52216C128.906 6.48526 129.693 7.266 130.663 7.266Z" fill="#20A4F3"/>
<path d="M206.615 22.0884H198.496V14.0288H206.615V22.0884ZM198.849 21.738H206.262V14.3792H198.849V21.738Z" fill="#3F3D56"/>
<path d="M227.697 104.049H210.981V102.854C210.981 102.823 210.975 102.792 210.963 102.763C210.951 102.734 210.933 102.708 210.911 102.686C210.889 102.664 210.863 102.647 210.834 102.635C210.805 102.623 210.774 102.617 210.742 102.617H205.011C204.98 102.617 204.949 102.623 204.92 102.635C204.891 102.647 204.865 102.664 204.843 102.686C204.82 102.708 204.803 102.734 204.791 102.763C204.779 102.792 204.773 102.823 204.773 102.854V104.049H201.191V102.854C201.191 102.823 201.185 102.792 201.173 102.763C201.161 102.734 201.143 102.708 201.121 102.686C201.099 102.664 201.072 102.647 201.043 102.635C201.014 102.623 200.983 102.617 200.952 102.617H195.221C195.19 102.617 195.159 102.623 195.13 102.635C195.101 102.647 195.074 102.664 195.052 102.686C195.03 102.708 195.012 102.734 195 102.763C194.988 102.792 194.982 102.823 194.982 102.854V104.049H191.4V102.854C191.4 102.823 191.394 102.792 191.382 102.763C191.37 102.734 191.353 102.708 191.33 102.686C191.308 102.664 191.282 102.647 191.253 102.635C191.224 102.623 191.193 102.617 191.162 102.617H185.431C185.399 102.617 185.368 102.623 185.339 102.635C185.31 102.647 185.284 102.664 185.262 102.686C185.24 102.708 185.222 102.734 185.21 102.763C185.198 102.792 185.192 102.823 185.192 102.854V104.049H181.61V102.854C181.61 102.823 181.604 102.792 181.592 102.763C181.58 102.734 181.562 102.708 181.54 102.686C181.518 102.664 181.491 102.647 181.462 102.635C181.433 102.623 181.402 102.617 181.371 102.617H175.64C175.609 102.617 175.578 102.623 175.549 102.635C175.52 102.647 175.493 102.664 175.471 102.686C175.449 102.708 175.431 102.734 175.419 102.763C175.407 102.792 175.401 102.823 175.401 102.854V104.049H171.819V102.854C171.819 102.823 171.813 102.792 171.801 102.763C171.789 102.734 171.772 102.708 171.749 102.686C171.727 102.664 171.701 102.647 171.672 102.635C171.643 102.623 171.612 102.617 171.581 102.617H165.85C165.818 102.617 165.787 102.623 165.758 102.635C165.729 102.647 165.703 102.664 165.681 102.686C165.659 102.708 165.641 102.734 165.629 102.763C165.617 102.792 165.611 102.823 165.611 102.854V104.049H162.029V102.854C162.029 102.823 162.023 102.792 162.011 102.763C161.999 102.734 161.981 102.708 161.959 102.686C161.937 102.664 161.911 102.647 161.882 102.635C161.853 102.623 161.822 102.617 161.79 102.617H156.059C156.028 102.617 155.997 102.623 155.968 102.635C155.939 102.647 155.913 102.664 155.89 102.686C155.868 102.708 155.851 102.734 155.839 102.763C155.827 102.792 155.82 102.823 155.82 102.854V104.049H152.239V102.854C152.239 102.823 152.232 102.792 152.22 102.763C152.208 102.734 152.191 102.708 152.169 102.686C152.146 102.664 152.12 102.647 152.091 102.635C152.062 102.623 152.031 102.617 152 102.617H107.107C107.076 102.617 107.045 102.623 107.016 102.635C106.987 102.647 106.96 102.664 106.938 102.686C106.916 102.708 106.898 102.734 106.886 102.763C106.874 102.792 106.868 102.823 106.868 102.854V104.049H103.286V102.854C103.286 102.823 103.28 102.792 103.268 102.763C103.256 102.734 103.239 102.708 103.216 102.686C103.194 102.664 103.168 102.647 103.139 102.635C103.11 102.623 103.079 102.617 103.048 102.617H97.3166C97.2852 102.617 97.2541 102.623 97.2252 102.635C97.1962 102.647 97.1699 102.664 97.1477 102.686C97.1255 102.708 97.1079 102.734 97.0959 102.763C97.0839 102.792 97.0778 102.823 97.0778 102.854V104.049H93.4959V102.854C93.4959 102.823 93.4897 102.792 93.4777 102.763C93.4657 102.734 93.4481 102.708 93.4259 102.686C93.4038 102.664 93.3774 102.647 93.3485 102.635C93.3195 102.623 93.2885 102.617 93.2571 102.617H87.5261C87.4947 102.617 87.4637 102.623 87.4347 102.635C87.4058 102.647 87.3794 102.664 87.3573 102.686C87.3351 102.708 87.3175 102.734 87.3055 102.763C87.2935 102.792 87.2873 102.823 87.2873 102.854V104.049H83.7054V102.854C83.7054 102.823 83.6993 102.792 83.6873 102.763C83.6753 102.734 83.6577 102.708 83.6355 102.686C83.6133 102.664 83.587 102.647 83.558 102.635C83.5291 102.623 83.498 102.617 83.4667 102.617H77.7357C77.7043 102.617 77.6733 102.623 77.6443 102.635C77.6153 102.647 77.589 102.664 77.5668 102.686C77.5446 102.708 77.527 102.734 77.515 102.763C77.503 102.792 77.4969 102.823 77.4969 102.854V104.049H73.915V102.854C73.915 102.823 73.9088 102.792 73.8968 102.763C73.8848 102.734 73.8672 102.708 73.8451 102.686C73.8229 102.664 73.7966 102.647 73.7676 102.635C73.7386 102.623 73.7076 102.617 73.6762 102.617H67.9452C67.9139 102.617 67.8828 102.623 67.8538 102.635C67.8249 102.647 67.7985 102.664 67.7764 102.686C67.7542 102.708 67.7366 102.734 67.7246 102.763C67.7126 102.792 67.7064 102.823 67.7064 102.854V104.049H64.1246V102.854C64.1246 102.823 64.1184 102.792 64.1064 102.763C64.0944 102.734 64.0768 102.708 64.0546 102.686C64.0324 102.664 64.0061 102.647 63.9771 102.635C63.9482 102.623 63.9171 102.617 63.8858 102.617H58.1548C58.1234 102.617 58.0924 102.623 58.0634 102.635C58.0344 102.647 58.0081 102.664 57.9859 102.686C57.9637 102.708 57.9462 102.734 57.9342 102.763C57.9222 102.792 57.916 102.823 57.916 102.854V104.049H54.3341V102.854C54.3341 102.823 54.3279 102.792 54.3159 102.763C54.3039 102.734 54.2864 102.708 54.2642 102.686C54.242 102.664 54.2157 102.647 54.1867 102.635C54.1577 102.623 54.1267 102.617 54.0953 102.617H48.3643C48.333 102.617 48.3019 102.623 48.273 102.635C48.244 102.647 48.2177 102.664 48.1955 102.686C48.1733 102.708 48.1557 102.734 48.1437 102.763C48.1317 102.792 48.1255 102.823 48.1255 102.854V104.049H37.1411C35.6212 104.049 34.1635 104.649 33.0887 105.716C32.014 106.783 31.4102 108.23 31.4102 109.738V112.311C31.4102 113.82 32.014 115.267 33.0887 116.334C34.1635 117.401 35.6212 118 37.1411 118H227.697C229.217 118 230.674 117.401 231.749 116.334C232.824 115.267 233.428 113.82 233.428 112.311V109.738C233.428 108.23 232.824 106.783 231.749 105.716C230.674 104.649 229.217 104.049 227.697 104.049Z" fill="#3F3D56"/>
<path d="M257 112.164H7.83789V112.918H257V112.164Z" fill="#3F3D56"/>
<path d="M205.86 63.3255H150.715V32.1602H205.86V63.3255ZM151.261 62.7835H205.314V32.7022H151.261V62.7835Z" fill="#3F3D56"/>
<path d="M104.85 69.5583H55.7109V39.2061H104.85V69.5583ZM56.2569 69.0163H104.304V39.7481H56.2569V69.0163Z" fill="#3F3D56"/>
<path d="M78.6678 57.9052L78.6207 57.2992C78.4799 56.0407 78.9025 54.6656 80.0763 53.2675C81.1328 52.0321 81.7198 51.1233 81.7198 50.0745C81.7198 48.8859 80.9685 48.0935 79.4894 48.0703C78.6435 48.0668 77.8165 48.3188 77.1182 48.7927L76.5547 47.3245C77.3296 46.765 78.6677 46.3921 79.912 46.3921C82.6119 46.3921 83.8327 48.047 83.8327 49.818C83.8327 51.403 82.9405 52.545 81.8136 53.8732C80.7807 55.0851 80.405 56.1106 80.4754 57.2992L80.4989 57.9052L78.6678 57.9052ZM78.1512 61.1681C78.1386 60.978 78.1658 60.7873 78.2312 60.6081C78.2966 60.429 78.3987 60.2652 78.5311 60.1272C78.6634 59.9892 78.8232 59.88 79.0003 59.8064C79.1774 59.7329 79.3679 59.6966 79.5598 59.6998C80.3816 59.6998 80.945 60.3056 80.945 61.1681C80.9528 61.355 80.9224 61.5415 80.8557 61.7165C80.789 61.8915 80.6874 62.0512 80.5569 62.1862C80.4264 62.3212 80.2698 62.4286 80.0964 62.5019C79.9231 62.5753 79.7366 62.6131 79.5481 62.6131C79.3597 62.6131 79.1732 62.5753 78.9998 62.5019C78.8265 62.4286 78.6699 62.3212 78.5394 62.1862C78.4089 62.0512 78.3072 61.8915 78.2405 61.7165C78.1738 61.5415 78.1435 61.355 78.1512 61.1681Z" fill="#D0CDE1"/>
<path d="M176.674 51.1303L176.627 50.5243C176.486 49.2658 176.908 47.8907 178.082 46.4926C179.139 45.2572 179.726 44.3484 179.726 43.2995C179.726 42.111 178.974 41.3186 177.495 41.2953C176.649 41.2919 175.822 41.5439 175.124 42.0178L174.561 40.5496C175.335 39.9901 176.674 39.6172 177.918 39.6172C180.618 39.6172 181.839 41.272 181.839 43.0431C181.839 44.6281 180.946 45.7701 179.819 47.0983C178.787 48.3102 178.411 49.3357 178.481 50.5242L178.505 51.1303L176.674 51.1303ZM176.157 54.3932C176.144 54.203 176.172 54.0124 176.237 53.8332C176.302 53.6541 176.405 53.4903 176.537 53.3523C176.669 53.2143 176.829 53.1051 177.006 53.0315C177.183 52.958 177.374 52.9216 177.566 52.9249C178.387 52.9249 178.951 53.5307 178.951 54.3932C178.959 54.5801 178.928 54.7666 178.862 54.9416C178.795 55.1166 178.693 55.2763 178.563 55.4113C178.432 55.5463 178.276 55.6537 178.102 55.727C177.929 55.8004 177.742 55.8382 177.554 55.8382C177.366 55.8382 177.179 55.8004 177.006 55.727C176.832 55.6537 176.676 55.5463 176.545 55.4113C176.415 55.2763 176.313 55.1166 176.246 54.9416C176.18 54.7666 176.149 54.5801 176.157 54.3932Z" fill="#D0CDE1"/>
<path d="M131.772 94.076C144.783 94.076 155.33 83.606 155.33 70.6906C155.33 57.7752 144.783 47.3052 131.772 47.3052C118.762 47.3052 108.215 57.7752 108.215 70.6906C108.215 83.606 118.762 94.076 131.772 94.076Z" fill="#2F2E41"/>
<path d="M122.675 102.715L115.633 101.449L117.917 86.8521L124.959 88.1176L122.675 102.715Z" fill="#2F2E41"/>
<path d="M139.044 90.6484L132.002 89.3828L129.718 101.908L136.76 103.174L139.044 90.6484Z" fill="#2F2E41"/>
<path d="M141.467 103.856C141.711 102.654 139.292 101.156 136.063 100.508C132.834 99.8615 130.019 100.311 129.775 101.513C129.53 102.715 131.949 104.214 135.178 104.861C138.407 105.508 141.222 105.058 141.467 103.856Z" fill="#2F2E41"/>
<path d="M126.8 103.479C126.962 102.263 124.447 100.93 121.181 100.5C117.916 100.071 115.138 100.708 114.975 101.924C114.813 103.139 117.329 104.473 120.594 104.902C123.859 105.331 126.638 104.694 126.8 103.479Z" fill="#2F2E41"/>
<path d="M133.422 72.963C137.869 72.963 141.474 69.3846 141.474 64.9705C141.474 60.5564 137.869 56.978 133.422 56.978C128.976 56.978 125.371 60.5564 125.371 64.9705C125.371 69.3846 128.976 72.963 133.422 72.963Z" fill="white"/>
<path d="M136.733 64.7697C138.215 64.7697 139.416 63.5769 139.416 62.1056C139.416 60.6342 138.215 59.4414 136.733 59.4414C135.25 59.4414 134.049 60.6342 134.049 62.1056C134.049 63.5769 135.25 64.7697 136.733 64.7697Z" fill="#3F3D56"/>
<path d="M113.19 45.2499C112.835 36.5923 120.352 29.2592 129.978 28.871C139.605 28.4829 147.696 35.1866 148.05 43.8442C148.404 52.5018 141.713 54.4689 132.086 54.8571C122.46 55.2453 113.544 53.9075 113.19 45.2499Z" fill="white"/>
<path d="M154.352 70.0083C160.693 68.5655 165.463 65.794 165.007 63.8179C164.551 61.8419 159.041 61.4096 152.7 62.8524C146.359 64.2952 141.589 67.0667 142.045 69.0428C142.501 71.0188 148.011 71.4511 154.352 70.0083Z" fill="#2F2E41"/>
<path d="M108.11 77.6421C114.451 76.1993 119.221 73.4278 118.765 71.4517C118.308 69.4757 112.798 69.0434 106.458 70.4862C100.117 71.929 95.3464 74.7005 95.8027 76.6765C96.259 78.6526 101.769 79.0849 108.11 77.6421Z" fill="#2F2E41"/>
<path d="M125.303 79.9066C125.177 80.5951 125.189 81.3015 125.339 81.9853C125.488 82.6691 125.772 83.317 126.174 83.892C126.575 84.4671 127.087 84.9579 127.68 85.3365C128.273 85.7152 128.935 85.9742 129.628 86.0989C130.322 86.2235 131.033 86.2113 131.722 86.063C132.411 85.9146 133.064 85.6331 133.643 85.2343C134.222 84.8356 134.717 84.3275 135.098 83.7391C135.48 83.1507 135.74 82.4934 135.866 81.8049C136.394 78.9092 134.139 77.8846 131.222 77.3604C128.305 76.8362 125.831 77.0109 125.303 79.9066Z" fill="white"/>
<path d="M80.9222 3.55615H42.1875V40.1326H80.9222V3.55615Z" fill="#D0CDE1"/>
<path d="M76.5192 7.92578H46.5879V30.6473H76.5192V7.92578Z" fill="white"/>
<path d="M62.8392 33.3276H46.5586V34.1783H62.8392V33.3276Z" fill="#F2F2F2"/>
<path d="M62.8392 35.8794H46.5586V36.73H62.8392V35.8794Z" fill="#F2F2F2"/>
<path d="M51.9138 22.6951C53.8068 22.6951 55.3413 21.1717 55.3413 19.2926C55.3413 17.4135 53.8068 15.8901 51.9138 15.8901C50.0209 15.8901 48.4863 17.4135 48.4863 19.2926C48.4863 21.1717 50.0209 22.6951 51.9138 22.6951Z" fill="#3F3D56"/>
<path d="M61.5564 22.6951C63.4494 22.6951 64.9839 21.1717 64.9839 19.2926C64.9839 17.4135 63.4494 15.8901 61.5564 15.8901C59.6635 15.8901 58.1289 17.4135 58.1289 19.2926C58.1289 21.1717 59.6635 22.6951 61.5564 22.6951Z" fill="#20A4F3"/>
<path d="M71.1951 22.6951C73.088 22.6951 74.6226 21.1717 74.6226 19.2926C74.6226 17.4135 73.088 15.8901 71.1951 15.8901C69.3021 15.8901 67.7676 17.4135 67.7676 19.2926C67.7676 21.1717 69.3021 22.6951 71.1951 22.6951Z" fill="#E6E6E6"/>
<path d="M61.5555 7.38391C62.502 7.38391 63.2693 6.62224 63.2693 5.68268C63.2693 4.74311 62.502 3.98145 61.5555 3.98145C60.6091 3.98145 59.8418 4.74311 59.8418 5.68268C59.8418 6.62224 60.6091 7.38391 61.5555 7.38391Z" fill="#3F3D56"/>
<path d="M99.346 74.3789H60.6113V110.955H99.346V74.3789Z" fill="#D0CDE1"/>
<path d="M94.945 78.7485H65.0137V101.47H94.945V78.7485Z" fill="white"/>
<path d="M82.0908 82.4824H71.5977V92.8989H82.0908V82.4824Z" fill="#20A4F3"/>
<path d="M75.6172 85.0874V97.736H88.3589V85.0874H75.6172ZM87.8062 97.1874H76.1699V85.6361H87.8062V97.1874Z" fill="#3F3D56"/>
<path d="M81.265 103.725H64.9844V104.576H81.265V103.725Z" fill="#F2F2F2"/>
<path d="M79.9794 78.2067C80.9258 78.2067 81.6931 77.445 81.6931 76.5054C81.6931 75.5659 80.9258 74.8042 79.9794 74.8042C79.0329 74.8042 78.2656 75.5659 78.2656 76.5054C78.2656 77.445 79.0329 78.2067 79.9794 78.2067Z" fill="#3F3D56"/>
<path d="M200.194 63.4287H161.459V100.005H200.194V63.4287Z" fill="#D0CDE1"/>
<path d="M195.795 67.7983H165.863V90.5198H195.795V67.7983Z" fill="white"/>
<path d="M184.048 85.5859H177.609V87.4802H184.048V85.5859Z" fill="#3F3D56"/>
<path d="M191.832 70.8384H169.824V71.6502H191.832V70.8384Z" fill="#3F3D56"/>
<path d="M191.832 73.4087H169.824V74.2205H191.832V73.4087Z" fill="#3F3D56"/>
<path d="M191.832 75.9795H169.824V76.7913H191.832V75.9795Z" fill="#3F3D56"/>
<path d="M191.832 78.5503H169.824V79.3621H191.832V78.5503Z" fill="#3F3D56"/>
<path d="M191.832 81.1211H169.824V81.9329H191.832V81.1211Z" fill="#3F3D56"/>
<path d="M182.111 92.7749H165.83V93.6255H182.111V92.7749Z" fill="#F2F2F2"/>
<path d="M188.537 94.9019H165.83V95.7525H188.537V94.9019Z" fill="#F2F2F2"/>
<path d="M180.827 67.2565C181.774 67.2565 182.541 66.4948 182.541 65.5552C182.541 64.6157 181.774 63.854 180.827 63.854C179.881 63.854 179.113 64.6157 179.113 65.5552C179.113 66.4948 179.881 67.2565 180.827 67.2565Z" fill="#3F3D56"/>
</g>
<defs>
<clipPath id="clip0">
<rect width="257" height="118" fill="white"/>
</clipPath>
</defs>
</svg>
