<svg width="223" height="181" viewBox="0 0 223 181" fill="none" xmlns="http://www.w3.org/2000/svg">
<g clip-path="url(#clip0)">
<path d="M35.4128 0L20.6671 28.8167H23.6438V52.3156H8.64239L0 69.2046L107.086 124.213L142.499 55.0087L35.4128 0Z" fill="#F2F2F2"/>
<path d="M196.476 18.7456H32.3008V101.272H196.476V18.7456Z" fill="#3F3D56"/>
<path opacity="0.3" d="M176.513 48.3989H55.3359V48.6787H176.513V48.3989Z" fill="#20A4F3"/>
<path opacity="0.3" d="M176.652 55.3926H55.4746V55.6723H176.652V55.3926Z" fill="#20A4F3"/>
<path opacity="0.3" d="M176.652 69.3804H55.4746V69.6601H176.652V69.3804Z" fill="#20A4F3"/>
<path opacity="0.3" d="M176.652 75.5347H55.4746V75.8144H176.652V75.5347Z" fill="#20A4F3"/>
<path opacity="0.3" d="M176.652 62.3867H55.4746V62.6665H176.652V62.3867Z" fill="#20A4F3"/>
<path d="M158.224 181C186.906 181 210.157 178.871 210.157 176.244C210.157 173.617 186.906 171.488 158.224 171.488C129.542 171.488 106.291 173.617 106.291 176.244C106.291 178.871 129.542 181 158.224 181Z" fill="#3F3D56"/>
<path d="M58.8345 75.7372L58.4492 75.3321L76.4865 58.1072L92.3864 69.5662L105.244 55.2834L110.882 60.085L126.219 50.865L143.255 62.3372L169.992 47.0996L170.268 47.5858L143.23 62.9949L126.202 51.5278L110.826 60.7712L105.296 56.0614L92.4662 70.3129L76.5362 58.8326L58.8345 75.7372Z" fill="#20A4F3"/>
<path d="M110.779 166.687C112.091 171.548 116.586 174.558 116.586 174.558C116.586 174.558 118.953 169.688 117.641 164.827C116.329 159.967 111.834 156.957 111.834 156.957C111.834 156.957 109.467 161.827 110.779 166.687Z" fill="#3F3D56"/>
<path d="M112.708 165.643C116.309 169.155 116.749 174.554 116.749 174.554C116.749 174.554 111.351 174.259 107.75 170.746C104.149 167.234 103.709 161.835 103.709 161.835C103.709 161.835 109.107 162.131 112.708 165.643Z" fill="#20A4F3"/>
<path opacity="0.4" d="M213.648 24.3403C218.814 24.3403 223.002 20.1445 223.002 14.9688C223.002 9.79297 218.814 5.59717 213.648 5.59717C208.483 5.59717 204.295 9.79297 204.295 14.9688C204.295 20.1445 208.483 24.3403 213.648 24.3403Z" fill="#20A4F3"/>
<path opacity="0.4" d="M196.337 26.0188C199.961 26.0188 202.898 23.0755 202.898 19.4447C202.898 15.8139 199.961 12.8706 196.337 12.8706C192.713 12.8706 189.775 15.8139 189.775 19.4447C189.775 23.0755 192.713 26.0188 196.337 26.0188Z" fill="#20A4F3"/>
<path opacity="0.4" d="M188.24 143.514C190.168 143.514 191.73 141.948 191.73 140.017C191.73 138.086 190.168 136.52 188.24 136.52C186.313 136.52 184.75 138.086 184.75 140.017C184.75 141.948 186.313 143.514 188.24 143.514Z" fill="#20A4F3"/>
<path opacity="0.4" d="M128.768 160.858C130.233 160.858 131.42 159.668 131.42 158.201C131.42 156.733 130.233 155.543 128.768 155.543C127.303 155.543 126.115 156.733 126.115 158.201C126.115 159.668 127.303 160.858 128.768 160.858Z" fill="#20A4F3"/>
<path opacity="0.4" d="M119.834 126.449C121.761 126.449 123.324 124.883 123.324 122.952C123.324 121.021 121.761 119.455 119.834 119.455C117.906 119.455 116.344 121.021 116.344 122.952C116.344 124.883 117.906 126.449 119.834 126.449Z" fill="#20A4F3"/>
<path d="M169.811 52.1758C171.816 52.1758 173.441 50.5476 173.441 48.5391C173.441 46.5306 171.816 44.9023 169.811 44.9023C167.807 44.9023 166.182 46.5306 166.182 48.5391C166.182 50.5476 167.807 52.1758 169.811 52.1758Z" fill="#20A4F3"/>
<path d="M146.228 114.41L143.151 114.753C143.151 114.753 141.783 120.918 143.151 129.14C144.518 137.361 146.228 145.582 146.228 145.582C146.228 145.582 147.595 172.301 148.279 172.644C148.963 172.986 155.117 175.042 155.459 172.986C155.801 170.931 155.801 124.001 155.801 124.001L160.587 146.61C160.587 146.61 161.271 175.042 162.639 175.042C164.006 175.042 168.451 174.699 168.451 172.301C168.451 169.904 169.477 138.389 169.477 138.389C169.477 138.389 169.135 115.095 167.767 114.41C166.4 113.725 146.228 114.41 146.228 114.41Z" fill="#2F2E41"/>
<path d="M148.96 171.617C148.96 171.617 145.883 171.274 145.199 171.617C144.515 171.959 143.49 174.357 145.199 175.727C146.909 177.097 151.353 179.153 152.721 179.153C153.669 179.111 154.599 178.878 155.456 178.468L154.772 172.644L148.96 171.617Z" fill="#2F2E41"/>
<path d="M162.639 173.329L162.981 178.125C162.981 178.125 167.425 178.81 167.767 178.125C168.109 177.44 171.528 175.727 171.87 175.384C172.212 175.042 172.554 171.274 170.502 170.931C168.451 170.589 167.767 171.616 167.767 171.616L162.639 173.329Z" fill="#2F2E41"/>
<path d="M133.919 85.6357C133.919 85.6357 125.713 93.5145 126.739 97.6251C127.765 101.736 135.97 113.725 135.97 113.725C135.97 113.725 143.834 117.836 144.859 113.725C145.885 109.614 139.389 110.642 139.389 110.642L134.261 98.3102L140.073 90.0889L133.919 85.6357Z" fill="#FFB8B8"/>
<path d="M170.581 73.6494C170.581 73.6494 178.056 68.8334 177.883 65.5247C177.71 62.216 173.204 51.7835 173.204 51.7835C173.204 51.7835 169.679 44.4403 168.277 47.4413C166.876 50.4423 170.119 53.6368 170.119 53.6368L172.213 63.8706L166.523 69.3086L170.581 73.6494Z" fill="#FFB8B8"/>
<path d="M152.039 66.7953C155.438 66.7953 158.193 64.0347 158.193 60.6293C158.193 57.224 155.438 54.4634 152.039 54.4634C148.64 54.4634 145.885 57.224 145.885 60.6293C145.885 64.0347 148.64 66.7953 152.039 66.7953Z" fill="#FFB8B8"/>
<path d="M148.961 64.3972L149.987 70.9057L157.508 69.5355C157.508 69.5355 157.166 63.027 157.166 62.3419C157.166 61.6568 148.961 64.3972 148.961 64.3972Z" fill="#FFB8B8"/>
<path d="M148.62 70.906C148.62 70.906 157.167 68.8507 158.193 69.5358C159.218 70.2209 164.347 70.906 164.347 70.906L170.159 79.8124L168.45 91.1166C168.45 91.1166 168.108 109.272 168.791 112.355C169.475 115.438 173.236 115.78 165.373 116.466C157.509 117.151 156.141 116.123 150.671 117.493C145.201 118.863 140.756 116.808 142.124 115.438C143.491 114.068 145.885 92.1443 143.149 90.089C140.414 88.0337 139.389 77.4145 139.389 77.4145C139.389 77.4145 148.62 72.6188 148.62 70.906Z" fill="#D0CDE1"/>
<path d="M163.322 71.9336L164.348 70.9059L166.399 68.8506C166.399 68.8506 173.066 71.7623 172.724 72.7899C172.382 73.8176 170.16 79.8123 170.16 79.8123L167.083 80.84L163.322 71.9336Z" fill="#D0CDE1"/>
<path d="M143.491 78.0997L139.389 77.4146C139.389 77.4146 136.312 80.8401 135.286 82.2103C134.26 83.5805 132.209 87.006 132.209 87.006L139.389 92.1443L144.859 86.3209L143.491 78.0997Z" fill="#D0CDE1"/>
<path d="M154.187 53.1594L154.124 52.6655C153.705 52.6631 153.29 52.7286 152.892 52.8594C152.851 52.5615 152.877 52.2583 152.968 51.9718C152.564 52.0758 152.18 52.2434 151.828 52.4683L151.58 51.5669L148.162 53.2546C146.935 53.8604 145.641 54.5261 144.94 55.7027C144.158 57.0143 144.294 58.7001 144.829 60.1309C145.363 61.5618 146.251 62.8281 146.963 64.1792C147.234 64.7602 147.558 65.3141 147.933 65.8334C149.223 67.4448 151.735 67.7703 153.554 66.7978C154.246 66.4636 154.797 65.8948 155.111 65.1921C155.244 64.7561 155.347 64.3119 155.422 63.8623C155.647 62.9415 155.908 61.0408 156.655 60.4582C156.983 60.2019 157.634 61.0517 157.907 60.736C158.606 59.9248 158.459 58.6738 158.025 57.6941C157.608 56.7102 157.121 55.7577 156.567 54.8442C156.332 54.4769 154.179 53.1002 154.187 53.1594Z" fill="#2F2E41"/>
<path d="M21.4105 32.1733H3.54102V50.0773H21.4105V32.1733Z" fill="#3F3D56"/>
</g>
<defs>
<clipPath id="clip0">
<rect width="223" height="181" fill="white"/>
</clipPath>
</defs>
</svg>
