<svg width="205" height="160" viewBox="0 0 205 160" fill="none" xmlns="http://www.w3.org/2000/svg">
<g clip-path="url(#clip0)">
<path d="M59.8949 0L27.2457 17.7626C27.804 18.728 28.1637 19.7961 28.3035 20.9037C28.4432 22.0113 28.3602 23.1358 28.0594 24.2105C27.7586 25.2853 27.246 26.2885 26.552 27.1606C25.8581 28.0328 24.997 28.7562 24.0196 29.2879C23.0422 29.8196 21.9685 30.1489 20.8621 30.2562C19.7557 30.3635 18.6391 30.2467 17.5785 29.9126C16.5179 29.5785 15.5349 29.034 14.6876 28.3113C13.8404 27.5887 13.1461 26.7025 12.6461 25.7054L1.51367 31.762L30.3501 85.2341L88.7314 53.4722L59.8949 0Z" fill="#F2F2F2"/>
<path d="M19.5663 28.7218C23.2888 28.7218 26.3064 25.6909 26.3064 21.952C26.3064 18.2131 23.2888 15.1821 19.5663 15.1821C15.8438 15.1821 12.8262 18.2131 12.8262 21.952C12.8262 25.6909 15.8438 28.7218 19.5663 28.7218Z" fill="#20A4F3"/>
<path d="M141.879 143.149L177.18 131.584C176.804 130.533 176.641 129.418 176.703 128.303C176.764 127.188 177.047 126.097 177.536 125.094C178.024 124.092 178.708 123.197 179.547 122.465C180.386 121.733 181.363 121.177 182.42 120.831C183.477 120.485 184.592 120.355 185.699 120.45C186.807 120.544 187.884 120.861 188.868 121.382C189.851 121.902 190.72 122.616 191.424 123.48C192.128 124.344 192.652 125.341 192.965 126.412L205.001 122.469L186.226 64.6543L123.104 85.3348L141.879 143.149Z" fill="#F2F2F2"/>
<path d="M185.482 135.622C189.205 135.622 192.222 132.591 192.222 128.852C192.222 125.113 189.205 122.082 185.482 122.082C181.76 122.082 178.742 125.113 178.742 128.852C178.742 132.591 181.76 135.622 185.482 135.622Z" fill="#20A4F3"/>
<path d="M186.873 31.7178H23.8887V106.09H186.873V31.7178Z" fill="#3F3D56"/>
<path d="M184.185 34.4185H26.5781V101.935H184.185V34.4185Z" fill="white"/>
<path d="M168.155 98.7153H152.85V103.909H168.155V98.7153Z" fill="#3F3D56"/>
<path d="M152.022 102.663H140.854V104.117H152.022V102.663Z" fill="#20A4F3"/>
<path d="M39.4023 59.9713H99.5906L108.922 64.5373L123.79 71.8128L133.511 53.5312H161.02" stroke="#3F3D56" stroke-width="2" stroke-miterlimit="10"/>
<path d="M63.0684 59.9712L67.5308 70.5661H78.4929" stroke="#3F3D56" stroke-width="2" stroke-miterlimit="10"/>
<path d="M79.7969 59.9714L95.039 51.6616H105.794" stroke="#3F3D56" stroke-width="2" stroke-miterlimit="10"/>
<path d="M62.9806 61.841C64.0087 61.841 64.8421 61.0039 64.8421 59.9713C64.8421 58.9387 64.0087 58.1016 62.9806 58.1016C61.9526 58.1016 61.1191 58.9387 61.1191 59.9713C61.1191 61.0039 61.9526 61.841 62.9806 61.841Z" fill="#20A4F3"/>
<path d="M80.3556 61.841C81.3837 61.841 82.2171 61.0039 82.2171 59.9713C82.2171 58.9387 81.3837 58.1016 80.3556 58.1016C79.3276 58.1016 78.4941 58.9387 78.4941 59.9713C78.4941 61.0039 79.3276 61.841 80.3556 61.841Z" fill="#20A4F3"/>
<path d="M108.898 64.5415L110.139 83.0307H120.895" stroke="#3F3D56" stroke-width="2" stroke-miterlimit="10"/>
<path d="M129.612 60.8632L117.791 51.6616H128.96" stroke="#3F3D56" stroke-width="2" stroke-miterlimit="10"/>
<path d="M149.137 53.5312L160.605 62.672H171.361" stroke="#3F3D56" stroke-width="2" stroke-miterlimit="10"/>
<path d="M108.897 66.4113C109.925 66.4113 110.758 65.5742 110.758 64.5416C110.758 63.509 109.925 62.6719 108.897 62.6719C107.869 62.6719 107.035 63.509 107.035 64.5416C107.035 65.5742 107.869 66.4113 108.897 66.4113Z" fill="#20A4F3"/>
<path d="M149.024 55.401C150.052 55.401 150.885 54.5639 150.885 53.5313C150.885 52.4987 150.052 51.6616 149.024 51.6616C147.996 51.6616 147.162 52.4987 147.162 53.5313C147.162 54.5639 147.996 55.401 149.024 55.401Z" fill="#20A4F3"/>
<path d="M129.58 62.672C130.608 62.672 131.442 61.8349 131.442 60.8023C131.442 59.7697 130.608 58.9326 129.58 58.9326C128.552 58.9326 127.719 59.7697 127.719 60.8023C127.719 61.8349 128.552 62.672 129.58 62.672Z" fill="#20A4F3"/>
<path d="M67.7383 72.228H78.4936" stroke="#3F3D56" stroke-width="2" stroke-miterlimit="10"/>
<path d="M167.439 18.7563C169.124 18.7563 170.491 17.3838 170.491 15.6909C170.491 13.9979 169.124 12.6255 167.439 12.6255C165.753 12.6255 164.387 13.9979 164.387 15.6909C164.387 17.3838 165.753 18.7563 167.439 18.7563Z" stroke="#3F3D56" stroke-width="2" stroke-miterlimit="10"/>
<path d="M31.4385 160C48.8016 160 62.8771 157.396 62.8771 154.183C62.8771 150.97 48.8016 148.366 31.4385 148.366C14.0755 148.366 0 150.97 0 154.183C0 157.396 14.0755 160 31.4385 160Z" fill="#F2F2F2"/>
<path d="M53.0286 102.555L47.4199 105.397L47.7829 106.123L53.3914 103.281L53.0286 102.555Z" fill="#20A4F3"/>
<path d="M52.1175 97.2682L51.8655 98.7867C51.8655 98.7867 52.2435 109.29 49.4718 106C46.7002 102.709 48.5899 98.2805 48.5899 98.2805L49.3458 97.0151L52.1175 97.2682Z" fill="#FBBEBE"/>
<path d="M35.9919 48.6768C35.9919 48.6768 35.4879 53.9915 35.2359 54.2445C34.984 54.4976 39.0155 59.3062 39.0155 59.3062L42.5431 56.0161C42.5431 56.0161 42.2911 51.2076 43.047 50.1953C43.8029 49.1829 35.9919 48.6768 35.9919 48.6768Z" fill="#FBBEBE"/>
<path opacity="0.1" d="M35.9919 48.6768C35.9919 48.6768 35.4879 53.9915 35.2359 54.2445C34.984 54.4976 39.0155 59.3062 39.0155 59.3062L42.5431 56.0161C42.5431 56.0161 42.2911 51.2076 43.047 50.1953C43.8029 49.1829 35.9919 48.6768 35.9919 48.6768Z" fill="black"/>
<path d="M26.6683 145.607V150.162L24.9044 150.416L22.3848 149.656L23.1405 144.848L26.6683 145.607Z" fill="#3F3D56"/>
<path d="M24.4004 147.884C24.4004 147.884 23.6445 145.86 22.3847 146.113C21.1248 146.366 20.8728 147.884 20.8728 147.884C20.8728 147.884 19.8649 151.68 18.3531 152.946C16.8413 154.211 15.3295 157.501 18.3531 158.008C21.3768 158.514 23.8965 157.248 23.8965 156.995C23.8965 156.742 24.6524 155.224 25.9122 154.971C27.1721 154.717 28.18 154.464 28.18 153.452C28.18 152.44 27.4241 151.427 27.4241 151.427C27.4241 151.427 27.1721 146.627 26.6681 147.256C26.3196 147.752 26.0635 148.308 25.9122 148.897L24.4004 147.884Z" fill="#2F2E41"/>
<path d="M37.504 143.329L36.4961 147.125L39.0157 147.632L40.2755 146.366L40.5275 143.076L37.504 143.329Z" fill="#3F3D56"/>
<path d="M37.2521 146.619C37.2521 146.619 38.26 145.86 38.7639 145.86H39.5198C39.5198 145.86 39.5198 144.088 40.7797 144.088C42.0395 144.088 41.7876 145.354 41.7876 145.354C41.7876 145.354 44.5592 149.656 45.3152 150.415C46.0711 151.175 50.1026 153.452 46.827 154.465C43.5514 155.477 41.2836 155.477 39.7718 153.705C39.7718 153.705 38.26 152.946 37.2521 152.946C36.2442 152.946 34.9844 152.44 34.9844 151.681C34.9844 150.922 35.7403 149.403 35.7403 149.403C35.7403 149.403 36.2442 144.848 36.4962 145.354C36.7482 145.86 37.2521 146.619 37.2521 146.619Z" fill="#2F2E41"/>
<path d="M26.4167 85.1201V93.4718C26.4167 93.4718 23.645 109.669 23.645 114.984C23.645 120.298 19.3615 145.607 21.3773 146.113C23.393 146.619 28.1805 147.378 28.4324 146.619C28.6844 145.86 30.4482 121.817 30.7002 121.564C30.9521 121.311 36.2435 101.317 36.2435 101.317L37.2514 101.57L37.7553 124.348C37.7553 124.348 35.2356 144.847 36.4955 144.847C37.7553 144.847 43.0467 144.594 43.0467 143.076C43.0467 141.557 45.8184 113.465 45.8184 113.465C45.8184 113.465 49.094 91.1941 47.8342 88.9163C46.5743 86.6386 46.5743 85.3732 46.5743 85.3732L26.4167 85.1201Z" fill="#2F2E41"/>
<path d="M40.1488 52.5993C42.932 52.5993 45.1882 50.3331 45.1882 47.5377C45.1882 44.7422 42.932 42.4761 40.1488 42.4761C37.3656 42.4761 35.1094 44.7422 35.1094 47.5377C35.1094 50.3331 37.3656 52.5993 40.1488 52.5993Z" fill="#FBBEBE"/>
<path d="M39.0149 56.2693C39.0149 56.2693 35.8652 53.6119 35.6132 52.5996C35.6132 52.5996 33.9754 54.2446 33.9754 54.4977C33.9754 54.7508 26.9203 55.51 25.1565 57.5347C23.3927 59.5593 21.8809 63.8617 21.8809 63.8617L26.1644 71.9603C26.1644 71.9603 26.4163 76.5158 26.4163 77.0219C26.4163 77.5281 25.1565 85.6267 25.6604 85.8798C26.1644 86.1329 31.2038 88.6637 35.4873 88.1575C39.7708 87.6514 44.0543 86.8921 45.3141 86.8921C46.574 86.8921 47.5819 87.3983 47.5819 86.8921C47.5819 86.386 46.8259 85.3736 46.8259 84.8675C46.8259 84.3613 46.574 83.0959 46.574 82.3367C46.574 81.5774 46.07 80.312 46.07 79.2997C46.07 78.2874 51.6134 64.621 51.6134 64.621C51.6134 64.621 51.3614 60.3186 47.3299 58.2939C43.2984 56.2693 42.7944 55.51 42.7944 55.51C42.7944 55.51 42.7159 53.9916 42.5032 53.9916C42.2905 53.9916 41.5346 56.2693 39.5188 56.5224L39.0149 56.2693Z" fill="#D0CDE1"/>
<path d="M25.4082 89.929L27.1721 92.7128L31.7075 91.7004L28.4319 87.9043L25.4082 89.929Z" fill="#FBBEBE"/>
<path d="M50.1019 62.5962L51.6138 64.6208C51.6138 64.6208 54.6374 79.2996 54.1335 84.6143C53.6295 89.929 53.1256 93.9783 53.1256 93.9783C53.1256 93.9783 54.1335 97.7745 53.3776 97.7745C52.6216 97.7745 48.0862 98.0276 48.0862 97.2683C48.0862 96.5091 48.5901 91.7005 48.5901 91.7005L47.3303 80.565L44.5586 76.7687L50.1019 62.5962Z" fill="#D0CDE1"/>
<path d="M36.7267 45.0803C37.0356 44.9488 37.3927 45.0555 37.7235 44.9994C38.112 44.9335 38.4596 44.6444 38.8519 44.6809C39.0378 44.7155 39.2184 44.7744 39.3891 44.8561C39.4748 44.8965 39.5677 44.9191 39.6622 44.9225C39.7568 44.9259 39.8511 44.9101 39.9394 44.8759C39.9815 44.8563 40.0187 44.8275 40.0484 44.7916C40.078 44.7557 40.0993 44.7137 40.1108 44.6685C40.1223 44.6234 40.1236 44.5762 40.1146 44.5305C40.1057 44.4847 40.0867 44.4415 40.0591 44.4041C40.391 44.3747 40.7048 44.239 40.9542 44.0171C41.0038 43.9653 41.0615 43.9218 41.125 43.8884C41.1989 43.869 41.276 43.8651 41.3516 43.8769C41.4271 43.8887 41.4994 43.916 41.5639 43.9571L42.1405 44.224C42.2704 44.2701 42.3846 44.3522 42.47 44.4608C42.5386 44.5682 42.552 44.7126 42.6491 44.7948C42.7731 44.8997 42.9584 44.8484 43.1201 44.8587C43.267 44.873 43.4035 44.941 43.5038 45.0498C43.604 45.1585 43.6611 45.3005 43.664 45.4486C43.6618 45.6186 43.6002 45.8271 43.734 45.9311C43.8117 45.9914 43.9219 45.9818 44.0128 46.0188C44.2485 46.1149 44.2494 46.4445 44.2146 46.6975C44.1798 46.9506 44.197 47.2845 44.4392 47.3624C44.6098 47.4173 44.7841 47.3003 44.9613 47.2742C45.2286 47.2349 45.476 47.4028 45.714 47.5313C45.952 47.6598 46.2681 47.7465 46.4744 47.5712C46.6663 47.4081 46.654 47.1097 46.6012 46.8628C46.5255 46.5088 46.401 46.1671 46.2315 45.8476C46.1688 45.7535 46.1318 45.6446 46.1244 45.5316C46.1387 45.4521 46.1697 45.3766 46.2153 45.31C46.2608 45.2434 46.3199 45.1872 46.3887 45.1452C46.6803 44.9137 47.0157 44.6806 47.1101 44.3195C47.1794 44.0544 47.1014 43.7749 47.1074 43.501C47.1148 43.1677 47.2467 42.8358 47.1848 42.5082C47.0727 41.9144 46.4147 41.6287 45.99 41.2006C45.4065 40.6123 45.217 39.6713 44.5283 39.2119C43.9773 38.8443 43.2566 38.8881 42.6292 38.6778C41.9399 38.4468 41.3851 37.916 40.7052 37.6585C40.3341 37.5211 39.9373 37.4678 39.5433 37.5025C39.1493 37.5372 38.7678 37.6591 38.4261 37.8593C38.2233 38.0104 37.9969 38.1266 37.7561 38.2031C37.5534 38.2267 37.3484 38.2243 37.1463 38.196C36.7444 38.1752 36.344 38.2582 35.9831 38.4371C35.845 38.4925 35.73 38.5938 35.6573 38.7241C35.5356 38.9956 35.7124 39.4201 35.4456 39.55C35.3212 39.6105 35.1743 39.5525 35.0361 39.5556C34.7674 39.5615 34.5606 39.7964 34.4327 40.0339C34.333 40.2849 34.1899 40.5163 34.01 40.7173C33.6815 41.0063 33.0846 41.054 32.9988 41.4841C32.9973 41.6661 33.0076 41.8481 33.0296 42.0288C33.0048 42.4099 32.5987 42.6996 32.6199 43.0809C32.6444 43.5208 33.2008 43.7357 33.3495 44.1501C33.4627 44.4656 33.3137 44.8068 33.2112 45.1261C33.1086 45.4453 33.0777 45.8545 33.3425 46.0588C33.4464 46.1389 33.5799 46.1718 33.6858 46.2492C33.9598 46.4493 33.9564 46.8533 33.9259 47.1923C33.9084 47.2627 33.9083 47.3363 33.9256 47.4067C33.943 47.4771 33.9773 47.5422 34.0255 47.5962C34.0707 47.6237 34.1213 47.6412 34.1738 47.6475C34.2263 47.6539 34.2796 47.6489 34.33 47.6329C34.4946 47.5928 34.6492 47.5194 34.7845 47.4172C34.9198 47.3149 35.0329 47.186 35.1168 47.0383C35.205 46.8917 35.2227 46.7625 35.3831 46.6848C35.4918 46.632 35.6239 46.6791 35.7347 46.6106C36.2615 46.2849 36.0801 45.3555 36.7267 45.0803Z" fill="#2F2E41"/>
<path d="M22.6369 63.1021L21.881 63.8613C21.881 63.8613 17.3455 77.5277 18.8574 80.5646C20.3692 83.6016 23.3928 91.1941 24.4007 90.941C25.4086 90.6879 28.9362 88.4102 28.9362 88.1571C28.9362 87.904 24.6527 80.8177 24.6527 80.8177C24.6527 80.8177 24.1487 79.2992 24.4007 79.0462C24.6527 78.7931 24.6527 79.0462 24.4007 78.54C24.1487 78.0338 24.1487 78.54 24.6527 78.0338C25.1566 77.5277 25.1566 77.5277 25.1566 77.2746C25.1566 77.0215 26.6684 70.6945 26.6684 70.6945L22.6369 63.1021Z" fill="#D0CDE1"/>
<path d="M26.543 92.8393L32.0865 91.0679L32.8423 92.8393L26.7951 94.1047L26.543 92.8393Z" fill="#2F2E41"/>
<path opacity="0.1" d="M26.543 92.8393L32.0865 91.0679L32.8423 92.8393L26.7951 94.1047L26.543 92.8393Z" fill="black"/>
<path opacity="0.1" d="M34.1016 54.624L38.3851 58.1671L38.8891 57.4078L34.1016 54.624Z" fill="black"/>
<path opacity="0.1" d="M42.668 55.6362L39.6445 57.4077L39.8965 58.167L42.668 55.6362Z" fill="black"/>
</g>
<defs>
<clipPath id="clip0">
<rect width="205" height="160" fill="white"/>
</clipPath>
</defs>
</svg>
