<svg width="80" height="49" viewBox="0 0 80 49" fill="none" xmlns="http://www.w3.org/2000/svg">
<path d="M78.3517 7.66733C77.4298 4.66917 74.7277 2.30575 71.3009 1.49844C65.0406 0 39.9991 0 39.9991 0C39.9991 0 14.9585 0 8.69826 1.44163C5.33741 2.24809 2.56934 4.6696 1.64746 7.66733C0 13.1434 0 24.5 0 24.5C0 24.5 0 35.9139 1.64746 41.3327C2.57032 44.3304 5.27149 46.6938 8.69875 47.5011C15.0244 49 40.0001 49 40.0001 49C40.0001 49 65.0406 49 71.3009 47.5584C74.7282 46.7515 77.4298 44.3881 78.3527 41.3903C79.9997 35.9139 79.9997 24.5577 79.9997 24.5577C79.9997 24.5577 80.0656 13.1434 78.3517 7.66733ZM32.0264 34.9916V14.0084L52.8497 24.5L32.0264 34.9916Z" fill="#FF1243"/>
<path d="M32 35V14L53 24.5L32 35Z" fill="white"/>
</svg>
