<svg width="19" height="12" viewBox="0 0 19 12" fill="none" xmlns="http://www.w3.org/2000/svg">
<path d="M9.5 0.0922852C5.8702 0.0922852 2.57923 2.16047 0.14897 5.52888C-0.0496567 5.80518 -0.0496567 6.18712 0.14897 6.46342C2.57923 9.8359 5.8702 11.9081 9.5 11.9081C13.1298 11.9081 16.4208 9.83996 18.851 6.47155C19.0497 6.19525 19.0497 5.81331 18.851 5.53701C16.4208 2.16453 13.1298 0.0922852 9.5 0.0922852ZM9.76094 10.161C7.35016 10.3194 5.36389 8.24718 5.51578 5.73204C5.64041 3.6598 7.25279 1.97356 9.24295 1.84353C11.6537 1.68507 13.64 3.75731 13.4881 6.27245C13.3596 8.34469 11.7472 10.0269 9.76094 10.161Z" fill="#BABABA"/>
</svg>
